<?xml version="1.0" encoding="UTF-8" standalone="no"?>
<svg
   xmlns:dc="http://purl.org/dc/elements/1.1/"
   xmlns:cc="http://creativecommons.org/ns#"
   xmlns:rdf="http://www.w3.org/1999/02/22-rdf-syntax-ns#"
   xmlns:svg="http://www.w3.org/2000/svg"
   xmlns="http://www.w3.org/2000/svg"
   xmlns:sodipodi="http://sodipodi.sourceforge.net/DTD/sodipodi-0.dtd"
   xmlns:inkscape="http://www.inkscape.org/namespaces/inkscape"
   width="5.5mm"
   height="5.5mm"
   viewBox="0 0 5.5000002 5.5"
   version="1.1"
   id="svg119641">
  <defs
     id="defs119635" />
  <sodipodi:namedview
     id="base"
     pagecolor="#ffffff"
     bordercolor="#666666"
     borderopacity="1.0"
     inkscape:pageopacity="0.0"
     inkscape:pageshadow="2"
     inkscape:zoom="57.102482"
     inkscape:cx="10.393701"
     inkscape:cy="10.384837"
     inkscape:document-units="mm"
     inkscape:current-layer="layer1"
     inkscape:document-rotation="0"
     showgrid="true"
     fit-margin-top="0"
     fit-margin-left="0"
     fit-margin-right="0"
     fit-margin-bottom="0"
     inkscape:window-width="2417"
     inkscape:window-height="1406"
     inkscape:window-x="-11"
     inkscape:window-y="-11"
     inkscape:window-maximized="1"
     objecttolerance="10000"
     guidetolerance="10000"
     inkscape:snap-global="false">
    <inkscape:grid
       type="xygrid"
       id="grid1529"
       snapvisiblegridlinesonly="false"
       spacingx="0.099999998"
       spacingy="0.099999998"
       originx="-1.5017741"
       originy="-0.99346844"
       dotted="true"
       enabled="true" />
  </sodipodi:namedview>
  <metadata
     id="metadata119638">
    <rdf:RDF>
      <cc:Work
         rdf:about="">
        <dc:format>image/svg+xml</dc:format>
        <dc:type
           rdf:resource="http://purl.org/dc/dcmitype/StillImage" />
        <dc:title></dc:title>
      </cc:Work>
    </rdf:RDF>
  </metadata>
  <g
     inkscape:label="Layer 1"
     inkscape:groupmode="layer"
     id="layer1"
     transform="translate(-84.097124,-124.64155)">
    <g
       transform="matrix(0.23743556,0,0,0.24725412,-138.42588,72.537246)"
       id="g55735">
      <g
         transform="translate(950.7631,210.7286)"
         id="g55733">
        <path
           d="m 0,0 -1.215,1.214 c -0.08,0.081 -0.19,0.123 -0.305,0.118 -0.328,-0.017 -0.657,-0.017 -0.986,0 C -2.619,1.337 -2.729,1.295 -2.81,1.214 L -4.024,0 c -0.097,-0.097 -0.236,-0.138 -0.369,-0.109 -6.15,1.315 -10.07,7.366 -8.755,13.516 1.314,6.151 7.366,10.071 13.516,8.757 C 6.519,20.849 10.438,14.797 9.124,8.647 8.186,4.258 4.757,0.829 0.368,-0.109 0.234,-0.138 0.096,-0.097 0,0"
           style="fill:#ffffff;fill-opacity:1;fill-rule:nonzero;stroke:none"
           id="path55731" />
      </g>
    </g>
    <g
       transform="matrix(0.23842054,0,0,0.24095615,-139.35209,73.932496)"
       id="g55741"
       style="fill:#ece8e5;fill-opacity:1;stroke:#221d19;stroke-opacity:1">
      <g
         transform="translate(950.7631,210.7286)"
         id="g55739"
         style="fill:#ece8e5;fill-opacity:1;stroke:#221d19;stroke-opacity:1">
        <path
           d="m 0,0 -1.215,1.214 c -0.08,0.081 -0.19,0.123 -0.305,0.118 -0.328,-0.017 -0.657,-0.017 -0.986,0 C -2.619,1.337 -2.729,1.295 -2.81,1.214 L -4.024,0 c -0.097,-0.097 -0.236,-0.138 -0.369,-0.109 -6.15,1.315 -10.07,7.366 -8.755,13.516 1.314,6.151 7.366,10.071 13.516,8.757 C 6.519,20.849 10.438,14.797 9.124,8.647 8.186,4.258 4.757,0.829 0.368,-0.109 0.234,-0.138 0.096,-0.097 0,0 Z"
           style="fill:#ece8e5;fill-opacity:1;stroke:#221d19;stroke-width:0.268;stroke-linecap:butt;stroke-linejoin:round;stroke-miterlimit:10;stroke-dasharray:none;stroke-opacity:1"
           id="path55737" />
      </g>
    </g>
    <g
       transform="matrix(0.23743556,0,0,0.24725412,-138.42588,72.572323)"
       id="g55747">
      <g
         transform="translate(949.4203,214.7364)"
         id="g55745">
        <path
           d="M 0,0 V -0.19"
           style="fill:none;stroke:#000000;stroke-width:0.268;stroke-linecap:butt;stroke-linejoin:miter;stroke-miterlimit:10;stroke-dasharray:none;stroke-opacity:1"
           id="path55743" />
      </g>
    </g>
    <g
       transform="matrix(0.23743556,0,0,0.24725412,-138.42589,72.572317)"
       id="g55753">
      <g
         transform="translate(948.0805,214.7364)"
         id="g55751">
        <path
           d="M 0,0 V -0.19"
           style="fill:none;stroke:#000000;stroke-width:0.268;stroke-linecap:butt;stroke-linejoin:miter;stroke-miterlimit:10;stroke-dasharray:none;stroke-opacity:1"
           id="path55749" />
      </g>
    </g>
    <g
       transform="matrix(0.23743556,0,0,0.24725412,-138.42588,72.57233)"
       id="g56497">
      <g
         transform="translate(948.0805,213.5958)"
         id="g56495">
        <path
           d="M 0,0 V 0.95"
           style="fill:none;stroke:#000000;stroke-width:0.268;stroke-linecap:butt;stroke-linejoin:miter;stroke-miterlimit:10;stroke-dasharray:none;stroke-opacity:1"
           id="path56493" />
      </g>
    </g>
    <g
       transform="matrix(0.23743556,0,0,0.24725412,-138.42587,72.572324)"
       id="g56503">
      <g
         transform="translate(949.4203,214.7364)"
         id="g56501">
        <path
           d="M 0,0 H -1.34"
           style="fill:none;stroke:#000000;stroke-width:0.268;stroke-linecap:butt;stroke-linejoin:miter;stroke-miterlimit:10;stroke-dasharray:none;stroke-opacity:1"
           id="path56499" />
      </g>
    </g>
    <g
       transform="matrix(0.23743556,0,0,0.24725412,-138.42589,72.572318)"
       id="g58387">
      <g
         transform="translate(949.4203,213.5958)"
         id="g58385">
        <path
           d="M 0,0 V -0.079"
           style="fill:none;stroke:#000000;stroke-width:0.268;stroke-linecap:butt;stroke-linejoin:miter;stroke-miterlimit:10;stroke-dasharray:none;stroke-opacity:1"
           id="path58383" />
      </g>
    </g>
    <g
       transform="matrix(0.23743556,0,0,0.24725412,-138.42588,72.572322)"
       id="g58705">
      <g
         transform="translate(948.0805,213.5958)"
         id="g58703">
        <path
           d="M 0,0 V -0.079"
           style="fill:none;stroke:#000000;stroke-width:0.268;stroke-linecap:butt;stroke-linejoin:miter;stroke-miterlimit:10;stroke-dasharray:none;stroke-opacity:1"
           id="path58701" />
      </g>
    </g>
    <g
       transform="matrix(0.23743556,0,0,0.24725412,-138.42588,72.572331)"
       id="g59125">
      <g
         transform="translate(940.0639,221.756)"
         id="g59123">
        <path
           d="m 0,0 c 0,-4.798 3.889,-8.688 8.687,-8.688 4.797,0 8.687,3.89 8.687,8.688 0,4.798 -3.89,8.687 -8.687,8.687 C 3.889,8.687 0,4.798 0,0"
           style="fill:#ffffff;fill-opacity:1;fill-rule:nonzero;stroke:none"
           id="path59121" />
      </g>
    </g>
    <g
       transform="matrix(0.24729231,0,0,0.24729474,-147.76719,72.558501)"
       id="g59131"
       style="fill:#ece8e5;fill-opacity:1;stroke:#221d19;stroke-opacity:1">
      <g
         transform="translate(940.0639,221.756)"
         id="g59129"
         style="fill:#ece8e5;fill-opacity:1;stroke:#221d19;stroke-opacity:1">
        <path
           d="m 0,0 c 0,-4.798 3.889,-8.688 8.687,-8.688 4.797,0 8.687,3.89 8.687,8.688 0,4.798 -3.89,8.687 -8.687,8.687 C 3.889,8.687 0,4.798 0,0 Z"
           style="fill:#ece8e5;fill-opacity:1;stroke:#221d19;stroke-width:0.268;stroke-linecap:butt;stroke-linejoin:miter;stroke-miterlimit:10;stroke-dasharray:none;stroke-opacity:1"
           id="path59127" />
      </g>
    </g>
    <g
       transform="matrix(0.24730519,0,0,0.24730834,84.503782,127.4036)"
       id="g59135"
       style="stroke:#221d19;stroke-opacity:1">
      <path
         d="m 0,0 c 0,-5.208 4.222,-9.429 9.429,-9.429 5.208,0 9.428,4.221 9.428,9.429 0,5.207 -4.22,9.429 -9.428,9.429 C 4.222,9.429 0,5.207 0,0 Z"
         style="fill:none;stroke:#221d19;stroke-width:0.268;stroke-linecap:butt;stroke-linejoin:miter;stroke-miterlimit:10;stroke-dasharray:none;stroke-opacity:1"
         id="path59133" />
    </g>
    <g
       transform="matrix(0.24727549,0,0,0.24786164,-147.76155,72.442605)"
       id="g59179"
       style="fill:none;fill-opacity:1;stroke:#221d19;stroke-opacity:1">
      <g
         transform="translate(948.0805,214.7364)"
         id="g59177"
         style="fill:none;fill-opacity:1;stroke:#221d19;stroke-opacity:1">
        <path
           d="m 0,0 c -3.876,0.37 -6.719,3.813 -6.35,7.689 0.371,3.877 3.814,6.72 7.69,6.35 C 5.217,13.669 8.06,10.226 7.689,6.35 7.369,2.984 4.705,0.321 1.34,0"
           style="fill:none;fill-opacity:1;stroke:#221d19;stroke-width:0.268;stroke-linecap:butt;stroke-linejoin:miter;stroke-miterlimit:10;stroke-dasharray:none;stroke-opacity:1"
           id="path59175" />
      </g>
    </g>
    <g
       transform="matrix(0.23743556,0,0,0.24725412,-138.42588,72.572328)"
       id="g59185"
       style="fill:#221d19;fill-opacity:1">
      <g
         transform="translate(949.4203,213.1446)"
         id="g59183"
         style="fill:#221d19;fill-opacity:1">
        <path
           d="m 0,0 v 0.373 0.078 0.95 0.191 3.67 c 0,0.37 -0.3,0.67 -0.67,0.67 -0.369,0 -0.67,-0.3 -0.67,-0.67 V 1.592 0.373 0"
           style="fill:#221d19;fill-opacity:1;fill-rule:nonzero;stroke:none"
           id="path59181" />
      </g>
    </g>
    <g
       transform="matrix(0.23743556,0,0,0.24725412,-138.42588,72.572328)"
       id="g59191"
       style="stroke:#221d19;stroke-opacity:1">
      <g
         transform="translate(949.4203,213.1446)"
         id="g59189"
         style="stroke:#221d19;stroke-opacity:1">
        <path
           d="m 0,0 v 0.373 0.078 0.95 0.191 3.67 c 0,0.37 -0.3,0.67 -0.67,0.67 -0.369,0 -0.67,-0.3 -0.67,-0.67 V 1.592 0.373 0"
           style="fill:none;stroke:#221d19;stroke-width:0.268;stroke-linecap:butt;stroke-linejoin:miter;stroke-miterlimit:10;stroke-dasharray:none;stroke-opacity:1"
           id="path59187" />
      </g>
    </g>
  </g>
</svg>
