<?xml version="1.0" encoding="UTF-8" standalone="no"?>
<svg
   xmlns:dc="http://purl.org/dc/elements/1.1/"
   xmlns:cc="http://creativecommons.org/ns#"
   xmlns:rdf="http://www.w3.org/1999/02/22-rdf-syntax-ns#"
   xmlns:svg="http://www.w3.org/2000/svg"
   xmlns="http://www.w3.org/2000/svg"
   width="2.2022221mm"
   height="5.3260479mm"
   viewBox="0 0 2.2022221 5.3260479"
   version="1.1"
   id="svg52677">
  <defs
     id="defs52671" />
  <metadata
     id="metadata52674">
    <rdf:RDF>
      <cc:Work
         rdf:about="">
        <dc:format>image/svg+xml</dc:format>
        <dc:type
           rdf:resource="http://purl.org/dc/dcmitype/StillImage" />
        <dc:title />
      </cc:Work>
    </rdf:RDF>
  </metadata>
  <g
     id="layer1"
     transform="translate(-87.345318,-143.23579)">
    <g
       transform="matrix(0.24534544,0,0,0.24536075,57.740638,116.05919)"
       id="g31687"
       style="fill:#dadada;fill-opacity:1">
      <g
         transform="translate(122.0717,128.0802)"
         id="g31685"
         style="fill:#dadada;fill-opacity:1">
        <path
           d="m 0,0 c 0,-1.702 1.38,-3.082 3.081,-3.082 1.702,0 3.082,1.38 3.082,3.082 0,1.702 -1.38,3.081 -3.082,3.081 C 1.38,3.081 0,1.702 0,0 Z"
           style="fill:#dadada;fill-opacity:1;stroke:#000000;stroke-width:0.268;stroke-linecap:butt;stroke-linejoin:miter;stroke-miterlimit:10;stroke-dasharray:none;stroke-opacity:1"
           id="path31683" />
      </g>
    </g>
    <g
       transform="matrix(0.24534544,0,0,0.24536075,57.740638,116.05919)"
       id="g31693">
      <g
         transform="translate(121.8042,128.0802)"
         id="g31691">
        <path
           d="m 0,0 c 0,-1.85 1.499,-3.35 3.349,-3.35 1.849,0 3.349,1.5 3.349,3.35 0,1.85 -1.5,3.349 -3.349,3.349 C 1.499,3.349 0,1.85 0,0 Z"
           style="fill:none;stroke:#000000;stroke-width:0.268;stroke-linecap:butt;stroke-linejoin:miter;stroke-miterlimit:10;stroke-dasharray:none;stroke-opacity:1"
           id="path31689" />
      </g>
    </g>
  </g>
</svg>
