<?xml version="1.0" encoding="UTF-8" standalone="no"?>
<svg
   xmlns:dc="http://purl.org/dc/elements/1.1/"
   xmlns:cc="http://creativecommons.org/ns#"
   xmlns:rdf="http://www.w3.org/1999/02/22-rdf-syntax-ns#"
   xmlns:svg="http://www.w3.org/2000/svg"
   xmlns="http://www.w3.org/2000/svg"
   width="50.984444mm"
   height="50.803638mm"
   viewBox="0 0 50.984444 50.803638"
   version="1.1"
   id="svg3243">
  <defs
     id="defs3237" />
  <metadata
     id="metadata3240">
    <rdf:RDF>
      <cc:Work
         rdf:about="">
        <dc:format>image/svg+xml</dc:format>
        <dc:type
           rdf:resource="http://purl.org/dc/dcmitype/StillImage" />
        <dc:title />
      </cc:Work>
    </rdf:RDF>
  </metadata>
  <g
     id="layer1"
     transform="translate(-74.507778,-124.50776)">
    <path
       id="path3808"
       style="fill:#ece8e5;stroke:#0a0103;stroke-width:1;stroke-linecap:round;stroke-miterlimit:4;stroke-dasharray:none;paint-order:stroke fill markers"
       d="M 124.99222,149.90958 A 24.992222,24.901819 0 0 1 100,174.8114 24.992222,24.901819 0 0 1 75.007778,149.90958 24.992222,24.901819 0 0 1 100,125.00776 a 24.992222,24.901819 0 0 1 24.99222,24.90182 z" />
    <circle
       style="fill:#ece8e5;stroke:#0a0103;stroke-width:1;stroke-linecap:round;stroke-miterlimit:4;stroke-dasharray:none;paint-order:stroke fill markers"
       id="path12413"
       cx="100"
       cy="150"
       rx="18.999998"
       ry="18.000002" />
    <path
       id="path3808-3"
       style="fill:#ece8e5;stroke:#0a0103;stroke-width:1;stroke-linecap:round;stroke-miterlimit:4;stroke-dasharray:none;paint-order:stroke fill markers"
       d="M 119.019,150.01953 A 19.009497,18.255737 0 0 1 100.0095,168.27527 19.009497,18.255737 0 0 1 81.000002,150.01953 19.009497,18.255737 0 0 1 100.0095,131.76379 19.009497,18.255737 0 0 1 119.019,150.01953 Z" />
    <path
       style="fill:none;stroke:#000000;stroke-width:3.5;stroke-linecap:butt;stroke-linejoin:miter;stroke-miterlimit:4;stroke-dasharray:none;stroke-opacity:1"
       d="m 100,131.56188 v 15.21261"
       id="path12415" />
  </g>
</svg>
