<?xml version="1.0" encoding="UTF-8" standalone="no"?>
<svg
   xmlns:dc="http://purl.org/dc/elements/1.1/"
   xmlns:cc="http://creativecommons.org/ns#"
   xmlns:rdf="http://www.w3.org/1999/02/22-rdf-syntax-ns#"
   xmlns:svg="http://www.w3.org/2000/svg"
   xmlns="http://www.w3.org/2000/svg"
   width="58.074635mm"
   height="16.056461mm"
   viewBox="0 0 58.074635 16.056461"
   version="1.1"
   id="svg5751">
  <defs
     id="defs5745" />
  <metadata
     id="metadata5748">
    <rdf:RDF>
      <cc:Work
         rdf:about="">
        <dc:format>image/svg+xml</dc:format>
        <dc:type
           rdf:resource="http://purl.org/dc/dcmitype/StillImage" />
        <dc:title />
      </cc:Work>
    </rdf:RDF>
  </metadata>
  <g
     id="layer1"
     transform="translate(-11.028158,-116.70392)">
    <path
       style="fill:none;stroke:#ece8e5;stroke-width:0.1;stroke-linecap:round;stroke-linejoin:miter;stroke-miterlimit:4;stroke-dasharray:none;stroke-opacity:1"
       d="m 17.398321,123.59453 0.738223,-1.43393"
       id="path5201-0" />
    <path
       style="fill:none;stroke:#ece8e5;stroke-width:0.1;stroke-linecap:round;stroke-linejoin:miter;stroke-miterlimit:4;stroke-dasharray:none;stroke-opacity:1"
       d="m 18.134194,124.14024 1.323604,-1.11147"
       id="path5203-8" />
    <path
       style="fill:none;stroke:#ece8e5;stroke-width:0.1;stroke-linecap:round;stroke-linejoin:miter;stroke-miterlimit:4;stroke-dasharray:none;stroke-opacity:1"
       d="m 18.564142,124.96706 1.570233,-0.41459"
       id="path5205-5" />
    <path
       style="fill:none;stroke:#ece8e5;stroke-width:0.1;stroke-linecap:round;stroke-linejoin:miter;stroke-miterlimit:4;stroke-dasharray:none;stroke-opacity:1"
       d="m 18.613751,125.88483 1.546847,0.30852"
       id="path5207-9" />
    <path
       style="fill:none;stroke:#ece8e5;stroke-width:0.1;stroke-linecap:round;stroke-linejoin:miter;stroke-miterlimit:4;stroke-dasharray:none;stroke-opacity:1"
       d="m 18.192071,126.70339 1.55771,1.1032"
       id="path5209-7" />
    <path
       style="fill:none;stroke:#ece8e5;stroke-width:0.25;stroke-linecap:round;stroke-linejoin:miter;stroke-miterlimit:4;stroke-dasharray:none;stroke-opacity:1"
       d="m 17.538881,127.34831 0.919364,1.4177"
       id="path5211-8" />
    <path
       id="rect41388-0-0-7-8-5-1-4-0"
       style="fill:none;fill-opacity:1;stroke:none;stroke-width:0.05;stroke-miterlimit:10;stroke-dasharray:none;stroke-opacity:1;paint-order:markers fill stroke"
       d="m 11.05639,116.73215 h 58.018173 v 16 H 11.05639 Z" />
    <path
       style="fill:none;stroke:#ece8e5;stroke-width:0.1;stroke-linecap:butt;stroke-linejoin:miter;stroke-opacity:1;stroke-miterlimit:4;stroke-dasharray:none"
       d="m 12.028158,117.70392 v 14"
       id="path12748" />
    <path
       style="fill:none;stroke:#fe5045;stroke-width:0.264583px;stroke-linecap:butt;stroke-linejoin:miter;stroke-opacity:1"
       d="M 13.028158,119.70392 H 68.028157"
       id="path12750" />
    <g
       aria-label="ARPEGGIATOR / SEQUENCER"
       id="text41512"
       style="font-style:normal;font-variant:normal;font-weight:bold;font-stretch:normal;font-size:1.6px;line-height:1.25;font-family:'Yu Gothic UI';-inkscape-font-specification:'Yu Gothic UI Bold';letter-spacing:0px;word-spacing:0px;fill:#ece8e5;fill-opacity:1;stroke-width:0.101;stroke-miterlimit:4;stroke-dasharray:none">
      <path
         d="m 14.174809,119.18474 h -0.145312 l -0.11875,-0.31406 h -0.475 l -0.111719,0.31406 h -0.146094 l 0.429688,-1.12031 h 0.135937 z m -0.307031,-0.43203 -0.175781,-0.47735 q -0.0086,-0.0234 -0.01719,-0.075 h -0.0031 q -0.0078,0.0477 -0.01797,0.075 l -0.174218,0.47735 z"
         style="font-style:normal;font-variant:normal;font-weight:normal;font-stretch:normal;font-size:1.6px;font-family:'Yu Gothic UI';-inkscape-font-specification:'Yu Gothic UI';fill:#ece8e5;fill-opacity:1;stroke-width:0.101;stroke-miterlimit:4;stroke-dasharray:none"
         id="path930" />
      <path
         d="m 15.142778,119.18474 h -0.15625 l -0.1875,-0.31406 q -0.02578,-0.0437 -0.05,-0.0742 -0.02422,-0.0312 -0.05,-0.0508 -0.025,-0.0195 -0.05469,-0.0281 -0.02891,-0.009 -0.06562,-0.009 h -0.107812 v 0.47656 h -0.13125 v -1.12031 h 0.334375 q 0.07344,0 0.135156,0.0187 0.0625,0.018 0.107813,0.0555 0.04609,0.0375 0.07188,0.0937 0.02578,0.0555 0.02578,0.13047 0,0.0586 -0.01797,0.10782 -0.01719,0.0484 -0.05,0.0867 -0.03203,0.0383 -0.07813,0.0656 -0.04531,0.0266 -0.102344,0.0414 v 0.003 q 0.02812,0.0125 0.04844,0.0289 0.02109,0.0156 0.03984,0.0375 0.01875,0.0219 0.03672,0.05 0.01875,0.0273 0.04141,0.0641 z m -0.671875,-1.00156 v 0.40625 h 0.178125 q 0.04922,0 0.09063,-0.0148 0.04219,-0.0148 0.07266,-0.0422 0.03047,-0.0281 0.04766,-0.068 0.01719,-0.0406 0.01719,-0.0906 0,-0.0898 -0.05859,-0.13984 -0.05781,-0.0508 -0.167969,-0.0508 z"
         style="font-style:normal;font-variant:normal;font-weight:normal;font-stretch:normal;font-size:1.6px;font-family:'Yu Gothic UI';-inkscape-font-specification:'Yu Gothic UI';fill:#ece8e5;fill-opacity:1;stroke-width:0.101;stroke-miterlimit:4;stroke-dasharray:none"
         id="path932" />
      <path
         d="m 15.427934,118.7613 v 0.42344 h -0.13125 v -1.12031 h 0.307813 q 0.179687,0 0.278125,0.0875 0.09922,0.0875 0.09922,0.24687 0,0.15938 -0.110156,0.26094 -0.109375,0.10156 -0.296094,0.10156 z m 0,-0.57812 v 0.45937 h 0.1375 q 0.135938,0 0.207031,-0.0617 0.07188,-0.0625 0.07188,-0.17578 0,-0.22187 -0.2625,-0.22187 z"
         style="font-style:normal;font-variant:normal;font-weight:normal;font-stretch:normal;font-size:1.6px;font-family:'Yu Gothic UI';-inkscape-font-specification:'Yu Gothic UI';fill:#ece8e5;fill-opacity:1;stroke-width:0.101;stroke-miterlimit:4;stroke-dasharray:none"
         id="path934" />
      <path
         d="m 16.786528,119.18474 h -0.59375 v -1.12031 h 0.56875 v 0.11875 h -0.4375 v 0.37265 h 0.404687 v 0.11797 h -0.404687 v 0.39219 h 0.4625 z"
         style="font-style:normal;font-variant:normal;font-weight:normal;font-stretch:normal;font-size:1.6px;font-family:'Yu Gothic UI';-inkscape-font-specification:'Yu Gothic UI';fill:#ece8e5;fill-opacity:1;stroke-width:0.101;stroke-miterlimit:4;stroke-dasharray:none"
         id="path936" />
      <path
         d="m 17.839653,119.10818 q -0.16875,0.0953 -0.375,0.0953 -0.239844,0 -0.388281,-0.15469 -0.147656,-0.15469 -0.147656,-0.40937 0,-0.26016 0.164062,-0.42657 0.164844,-0.16718 0.417188,-0.16718 0.182812,0 0.307031,0.0594 v 0.14531 q -0.135938,-0.0859 -0.321875,-0.0859 -0.188281,0 -0.308594,0.12968 -0.120312,0.12969 -0.120312,0.33594 0,0.2125 0.111718,0.33438 0.111719,0.12109 0.303125,0.12109 0.13125,0 0.227344,-0.0523 v -0.31407 h -0.245312 v -0.11875 h 0.376562 z"
         style="font-style:normal;font-variant:normal;font-weight:normal;font-stretch:normal;font-size:1.6px;font-family:'Yu Gothic UI';-inkscape-font-specification:'Yu Gothic UI';fill:#ece8e5;fill-opacity:1;stroke-width:0.101;stroke-miterlimit:4;stroke-dasharray:none"
         id="path938" />
      <path
         d="m 18.937309,119.10818 q -0.16875,0.0953 -0.375,0.0953 -0.239843,0 -0.388281,-0.15469 -0.147656,-0.15469 -0.147656,-0.40937 0,-0.26016 0.164062,-0.42657 0.164844,-0.16718 0.417188,-0.16718 0.182812,0 0.307031,0.0594 v 0.14531 q -0.135937,-0.0859 -0.321875,-0.0859 -0.188281,0 -0.308594,0.12968 -0.120312,0.12969 -0.120312,0.33594 0,0.2125 0.111719,0.33438 0.111718,0.12109 0.303125,0.12109 0.13125,0 0.227343,-0.0523 v -0.31407 h -0.245312 v -0.11875 h 0.376562 z"
         style="font-style:normal;font-variant:normal;font-weight:normal;font-stretch:normal;font-size:1.6px;font-family:'Yu Gothic UI';-inkscape-font-specification:'Yu Gothic UI';fill:#ece8e5;fill-opacity:1;stroke-width:0.101;stroke-miterlimit:4;stroke-dasharray:none"
         id="path940" />
      <path
         d="m 19.328716,119.18474 h -0.13125 v -1.12031 h 0.13125 z"
         style="font-style:normal;font-variant:normal;font-weight:normal;font-stretch:normal;font-size:1.6px;font-family:'Yu Gothic UI';-inkscape-font-specification:'Yu Gothic UI';fill:#ece8e5;fill-opacity:1;stroke-width:0.101;stroke-miterlimit:4;stroke-dasharray:none"
         id="path942" />
      <path
         d="m 20.490434,119.18474 h -0.145312 l -0.11875,-0.31406 h -0.475 l -0.111719,0.31406 h -0.146094 l 0.429688,-1.12031 h 0.135937 z m -0.307031,-0.43203 -0.175781,-0.47735 q -0.0086,-0.0234 -0.01719,-0.075 h -0.0031 q -0.0078,0.0477 -0.01797,0.075 l -0.174219,0.47735 z"
         style="font-style:normal;font-variant:normal;font-weight:normal;font-stretch:normal;font-size:1.6px;font-family:'Yu Gothic UI';-inkscape-font-specification:'Yu Gothic UI';fill:#ece8e5;fill-opacity:1;stroke-width:0.101;stroke-miterlimit:4;stroke-dasharray:none"
         id="path944" />
      <path
         d="M 21.261528,118.18318 H 20.93809 v 1.00156 h -0.13125 v -1.00156 h -0.322656 v -0.11875 h 0.777344 z"
         style="font-style:normal;font-variant:normal;font-weight:normal;font-stretch:normal;font-size:1.6px;font-family:'Yu Gothic UI';-inkscape-font-specification:'Yu Gothic UI';fill:#ece8e5;fill-opacity:1;stroke-width:0.101;stroke-miterlimit:4;stroke-dasharray:none"
         id="path946" />
      <path
         d="m 21.873246,119.20349 q -0.238281,0 -0.382031,-0.15703 -0.142969,-0.15703 -0.142969,-0.4086 0,-0.27031 0.146094,-0.43125 0.146094,-0.16093 0.397656,-0.16093 0.232032,0 0.373438,0.15625 0.142187,0.15625 0.142187,0.40859 0,0.27422 -0.145312,0.43359 -0.145313,0.15938 -0.389063,0.15938 z m 0.0094,-1.03906 q -0.176562,0 -0.286718,0.12734 -0.110157,0.12734 -0.110157,0.33437 0,0.20704 0.107032,0.3336 0.107812,0.12578 0.280468,0.12578 0.184375,0 0.290625,-0.12031 0.10625,-0.12032 0.10625,-0.33672 0,-0.22188 -0.103125,-0.34297 -0.103125,-0.12109 -0.284375,-0.12109 z"
         style="font-style:normal;font-variant:normal;font-weight:normal;font-stretch:normal;font-size:1.6px;font-family:'Yu Gothic UI';-inkscape-font-specification:'Yu Gothic UI';fill:#ece8e5;fill-opacity:1;stroke-width:0.101;stroke-miterlimit:4;stroke-dasharray:none"
         id="path948" />
      <path
         d="m 23.431059,119.18474 h -0.15625 l -0.1875,-0.31406 q -0.02578,-0.0437 -0.05,-0.0742 -0.02422,-0.0312 -0.05,-0.0508 -0.025,-0.0195 -0.05469,-0.0281 -0.02891,-0.009 -0.06562,-0.009 h -0.107813 v 0.47656 h -0.13125 v -1.12031 h 0.334375 q 0.07344,0 0.135156,0.0187 0.0625,0.018 0.107813,0.0555 0.04609,0.0375 0.07187,0.0937 0.02578,0.0555 0.02578,0.13047 0,0.0586 -0.01797,0.10782 -0.01719,0.0484 -0.05,0.0867 -0.03203,0.0383 -0.07813,0.0656 -0.04531,0.0266 -0.102343,0.0414 v 0.003 q 0.02812,0.0125 0.04844,0.0289 0.02109,0.0156 0.03984,0.0375 0.01875,0.0219 0.03672,0.05 0.01875,0.0273 0.04141,0.0641 z m -0.671875,-1.00156 v 0.40625 h 0.178125 q 0.04922,0 0.09062,-0.0148 0.04219,-0.0148 0.07266,-0.0422 0.03047,-0.0281 0.04766,-0.068 0.01719,-0.0406 0.01719,-0.0906 0,-0.0898 -0.05859,-0.13984 -0.05781,-0.0508 -0.167968,-0.0508 z"
         style="font-style:normal;font-variant:normal;font-weight:normal;font-stretch:normal;font-size:1.6px;font-family:'Yu Gothic UI';-inkscape-font-specification:'Yu Gothic UI';fill:#ece8e5;fill-opacity:1;stroke-width:0.101;stroke-miterlimit:4;stroke-dasharray:none"
         id="path950" />
      <path
         d="m 24.511528,118.06443 -0.5375,1.30625 h -0.119532 l 0.535938,-1.30625 z"
         style="font-style:normal;font-variant:normal;font-weight:normal;font-stretch:normal;font-size:1.6px;font-family:'Yu Gothic UI';-inkscape-font-specification:'Yu Gothic UI';fill:#ece8e5;fill-opacity:1;stroke-width:0.101;stroke-miterlimit:4;stroke-dasharray:none"
         id="path952" />
      <path
         d="m 25.032622,119.13943 v -0.15469 q 0.02656,0.0234 0.06328,0.0422 0.0375,0.0188 0.07813,0.032 0.04141,0.0125 0.08281,0.0195 0.04141,0.007 0.07656,0.007 0.121094,0 0.180469,-0.0445 0.06016,-0.0453 0.06016,-0.12969 0,-0.0453 -0.02031,-0.0789 -0.01953,-0.0336 -0.05469,-0.0609 -0.03516,-0.0281 -0.08359,-0.0531 -0.04766,-0.0258 -0.103125,-0.0539 -0.05859,-0.0297 -0.109375,-0.0602 -0.05078,-0.0305 -0.08828,-0.0672 -0.0375,-0.0367 -0.05937,-0.0828 -0.02109,-0.0469 -0.02109,-0.10938 0,-0.0766 0.03359,-0.13281 0.03359,-0.057 0.08828,-0.0937 0.05469,-0.0367 0.124219,-0.0547 0.07031,-0.018 0.142969,-0.018 0.165625,0 0.241406,0.0398 v 0.14766 q -0.09922,-0.0688 -0.254688,-0.0688 -0.04297,0 -0.08594,0.009 -0.04297,0.009 -0.07656,0.0289 -0.03359,0.0203 -0.05469,0.0523 -0.02109,0.032 -0.02109,0.0781 0,0.043 0.01563,0.0742 0.01641,0.0312 0.04766,0.057 0.03125,0.0258 0.07578,0.05 0.04531,0.0242 0.103906,0.0531 0.06016,0.0297 0.114062,0.0625 0.05391,0.0328 0.09453,0.0727 0.04063,0.0398 0.06406,0.0883 0.02422,0.0484 0.02422,0.11094 0,0.0828 -0.03281,0.14062 -0.03203,0.057 -0.0875,0.093 -0.05469,0.0359 -0.126562,0.0516 -0.07187,0.0164 -0.151563,0.0164 -0.02656,0 -0.06563,-0.005 -0.03906,-0.004 -0.07969,-0.0125 -0.04062,-0.008 -0.07734,-0.0195 -0.03594,-0.0125 -0.05781,-0.0273 z"
         style="font-style:normal;font-variant:normal;font-weight:normal;font-stretch:normal;font-size:1.6px;font-family:'Yu Gothic UI';-inkscape-font-specification:'Yu Gothic UI';fill:#ece8e5;fill-opacity:1;stroke-width:0.101;stroke-miterlimit:4;stroke-dasharray:none"
         id="path954" />
      <path
         d="m 26.528716,119.18474 h -0.59375 v -1.12031 h 0.56875 v 0.11875 h -0.4375 v 0.37265 h 0.404687 v 0.11797 h -0.404687 v 0.39219 h 0.4625 z"
         style="font-style:normal;font-variant:normal;font-weight:normal;font-stretch:normal;font-size:1.6px;font-family:'Yu Gothic UI';-inkscape-font-specification:'Yu Gothic UI';fill:#ece8e5;fill-opacity:1;stroke-width:0.101;stroke-miterlimit:4;stroke-dasharray:none"
         id="path956" />
      <path
         d="m 27.195903,119.20349 q -0.2375,0 -0.382031,-0.15703 -0.142969,-0.15703 -0.142969,-0.4086 0,-0.27109 0.146094,-0.43125 0.146875,-0.16093 0.397656,-0.16093 0.23125,0 0.373438,0.15625 0.142187,0.15625 0.142187,0.40859 0,0.27422 -0.145312,0.43359 -0.03438,0.0383 -0.07344,0.0656 l 0.314844,0.22578 h -0.238281 l -0.210938,-0.15781 q -0.08281,0.0258 -0.18125,0.0258 z m 0.0094,-1.03906 q -0.176562,0 -0.286719,0.12734 -0.110156,0.12734 -0.110156,0.33437 0,0.20625 0.107031,0.3336 0.107813,0.12578 0.280469,0.12578 0.184375,0 0.290625,-0.12031 0.10625,-0.12032 0.10625,-0.33672 0,-0.22266 -0.103125,-0.34297 -0.103125,-0.12109 -0.284375,-0.12109 z"
         style="font-style:normal;font-variant:normal;font-weight:normal;font-stretch:normal;font-size:1.6px;font-family:'Yu Gothic UI';-inkscape-font-specification:'Yu Gothic UI';fill:#ece8e5;fill-opacity:1;stroke-width:0.101;stroke-miterlimit:4;stroke-dasharray:none"
         id="path958" />
      <path
         d="m 28.770122,118.73161 q 0,0.47188 -0.425781,0.47188 -0.407813,0 -0.407813,-0.45391 v -0.68515 h 0.13125 v 0.67656 q 0,0.34453 0.290625,0.34453 0.280469,0 0.280469,-0.33281 v -0.68828 h 0.13125 z"
         style="font-style:normal;font-variant:normal;font-weight:normal;font-stretch:normal;font-size:1.6px;font-family:'Yu Gothic UI';-inkscape-font-specification:'Yu Gothic UI';fill:#ece8e5;fill-opacity:1;stroke-width:0.101;stroke-miterlimit:4;stroke-dasharray:none"
         id="path960" />
      <path
         d="m 29.643559,119.18474 h -0.59375 v -1.12031 h 0.56875 v 0.11875 h -0.4375 v 0.37265 h 0.404688 v 0.11797 h -0.404688 v 0.39219 h 0.4625 z"
         style="font-style:normal;font-variant:normal;font-weight:normal;font-stretch:normal;font-size:1.6px;font-family:'Yu Gothic UI';-inkscape-font-specification:'Yu Gothic UI';fill:#ece8e5;fill-opacity:1;stroke-width:0.101;stroke-miterlimit:4;stroke-dasharray:none"
         id="path962" />
      <path
         d="m 30.76231,119.18474 h -0.160938 l -0.576562,-0.89297 q -0.02187,-0.0336 -0.03594,-0.0703 h -0.0047 q 0.0063,0.0359 0.0063,0.1539 v 0.80938 h -0.13125 v -1.12031 h 0.170312 l 0.560938,0.8789 q 0.03516,0.0547 0.04531,0.075 h 0.0031 q -0.0078,-0.0484 -0.0078,-0.16484 v -0.78906 h 0.13125 z"
         style="font-style:normal;font-variant:normal;font-weight:normal;font-stretch:normal;font-size:1.6px;font-family:'Yu Gothic UI';-inkscape-font-specification:'Yu Gothic UI';fill:#ece8e5;fill-opacity:1;stroke-width:0.101;stroke-miterlimit:4;stroke-dasharray:none"
         id="path964" />
      <path
         d="m 31.818559,119.13786 q -0.124218,0.0656 -0.309375,0.0656 -0.239062,0 -0.382812,-0.15391 -0.14375,-0.1539 -0.14375,-0.4039 0,-0.26875 0.161719,-0.43438 0.161718,-0.16562 0.410156,-0.16562 0.159375,0 0.264062,0.0461 v 0.13984 q -0.120312,-0.0672 -0.265625,-0.0672 -0.192968,0 -0.313281,0.1289 -0.119531,0.12891 -0.119531,0.34453 0,0.20469 0.111719,0.32657 0.1125,0.12109 0.294531,0.12109 0.16875,0 0.292187,-0.075 z"
         style="font-style:normal;font-variant:normal;font-weight:normal;font-stretch:normal;font-size:1.6px;font-family:'Yu Gothic UI';-inkscape-font-specification:'Yu Gothic UI';fill:#ece8e5;fill-opacity:1;stroke-width:0.101;stroke-miterlimit:4;stroke-dasharray:none"
         id="path966" />
      <path
         d="m 32.640435,119.18474 h -0.59375 v -1.12031 h 0.56875 v 0.11875 h -0.4375 v 0.37265 h 0.404687 v 0.11797 h -0.404687 v 0.39219 h 0.4625 z"
         style="font-style:normal;font-variant:normal;font-weight:normal;font-stretch:normal;font-size:1.6px;font-family:'Yu Gothic UI';-inkscape-font-specification:'Yu Gothic UI';fill:#ece8e5;fill-opacity:1;stroke-width:0.101;stroke-miterlimit:4;stroke-dasharray:none"
         id="path968" />
      <path
         d="m 33.659184,119.18474 h -0.15625 l -0.1875,-0.31406 q -0.02578,-0.0437 -0.05,-0.0742 -0.02422,-0.0312 -0.05,-0.0508 -0.025,-0.0195 -0.05469,-0.0281 -0.02891,-0.009 -0.06563,-0.009 h -0.107812 v 0.47656 h -0.13125 v -1.12031 h 0.334375 q 0.07344,0 0.135156,0.0187 0.0625,0.018 0.107812,0.0555 0.04609,0.0375 0.07187,0.0937 0.02578,0.0555 0.02578,0.13047 0,0.0586 -0.01797,0.10782 -0.01719,0.0484 -0.05,0.0867 -0.03203,0.0383 -0.07813,0.0656 -0.04531,0.0266 -0.102344,0.0414 v 0.003 q 0.02813,0.0125 0.04844,0.0289 0.02109,0.0156 0.03984,0.0375 0.01875,0.0219 0.03672,0.05 0.01875,0.0273 0.04141,0.0641 z m -0.671875,-1.00156 v 0.40625 h 0.178125 q 0.04922,0 0.09063,-0.0148 0.04219,-0.0148 0.07266,-0.0422 0.03047,-0.0281 0.04766,-0.068 0.01719,-0.0406 0.01719,-0.0906 0,-0.0898 -0.05859,-0.13984 -0.05781,-0.0508 -0.167969,-0.0508 z"
         style="font-style:normal;font-variant:normal;font-weight:normal;font-stretch:normal;font-size:1.6px;font-family:'Yu Gothic UI';-inkscape-font-specification:'Yu Gothic UI';fill:#ece8e5;fill-opacity:1;stroke-width:0.101;stroke-miterlimit:4;stroke-dasharray:none"
         id="path970" />
    </g>
    <g
       aria-label="TEMPO"
       id="text41910"
       style="font-style:normal;font-variant:normal;font-weight:bold;font-stretch:normal;font-size:1px;line-height:1;font-family:'Yu Gothic UI';-inkscape-font-specification:'Yu Gothic UI Bold';letter-spacing:0px;word-spacing:0px;fill:#ece8e5;fill-opacity:1;stroke-width:0.0733241">
      <path
         d="m 15.344231,129.91808 h -0.201172 v 0.60156 h -0.116211 v -0.60156 h -0.200684 v -0.0986 h 0.518067 z"
         style="font-style:normal;font-variant:normal;font-weight:bold;font-stretch:normal;font-size:1px;font-family:'Yu Gothic UI';-inkscape-font-specification:'Yu Gothic UI Bold';fill:#ece8e5;fill-opacity:1;stroke-width:0.0733241"
         id="path919" />
      <path
         d="M 15.839836,130.51964 H 15.44677 v -0.7002 h 0.377441 v 0.0986 h -0.26123 v 0.19824 h 0.240722 v 0.0981 h -0.240722 v 0.20703 h 0.276855 z"
         style="font-style:normal;font-variant:normal;font-weight:bold;font-stretch:normal;font-size:1px;font-family:'Yu Gothic UI';-inkscape-font-specification:'Yu Gothic UI Bold';fill:#ece8e5;fill-opacity:1;stroke-width:0.0733241"
         id="path921" />
      <path
         d="m 16.716301,130.51964 h -0.115234 v -0.45313 q 0,-0.0557 0.0068,-0.13623 h -0.002 q -0.01074,0.0459 -0.01904,0.0659 l -0.208984,0.52344 h -0.08008 l -0.209473,-0.51953 q -0.0088,-0.023 -0.01855,-0.0698 h -0.002 q 0.0039,0.042 0.0039,0.13721 v 0.45215 h -0.107422 v -0.7002 h 0.163574 l 0.184082,0.46631 q 0.021,0.0537 0.02734,0.0801 h 0.0024 q 0.01807,-0.0552 0.0293,-0.082 l 0.1875,-0.46436 h 0.157715 z"
         style="font-style:normal;font-variant:normal;font-weight:bold;font-stretch:normal;font-size:1px;font-family:'Yu Gothic UI';-inkscape-font-specification:'Yu Gothic UI Bold';fill:#ece8e5;fill-opacity:1;stroke-width:0.0733241"
         id="path923" />
      <path
         d="m 17.004387,130.26573 v 0.25391 h -0.115723 v -0.7002 h 0.212403 q 0.120605,0 0.187011,0.0562 0.06641,0.0562 0.06641,0.1582 0,0.10205 -0.06934,0.16699 -0.06934,0.0649 -0.1875,0.0649 z m 0,-0.35058 v 0.25586 h 0.07519 q 0.07471,0 0.11377,-0.0347 0.03906,-0.0347 0.03906,-0.0977 0,-0.12353 -0.143554,-0.12353 z"
         style="font-style:normal;font-variant:normal;font-weight:bold;font-stretch:normal;font-size:1px;font-family:'Yu Gothic UI';-inkscape-font-specification:'Yu Gothic UI Bold';fill:#ece8e5;fill-opacity:1;stroke-width:0.0733241"
         id="path925" />
      <path
         d="m 17.761711,130.53136 q -0.151367,0 -0.242676,-0.0982 -0.09082,-0.0981 -0.09082,-0.25537 0,-0.16894 0.09277,-0.26953 0.09277,-0.10059 0.251954,-0.10059 0.147461,0 0.237304,0.0977 0.09033,0.0977 0.09033,0.25537 0,0.17139 -0.09229,0.271 -0.09228,0.0996 -0.246582,0.0996 z m 0.0054,-0.62159 q -0.09619,0 -0.156738,0.0718 -0.06006,0.0718 -0.06006,0.18897 0,0.1167 0.05859,0.18799 0.05859,0.0713 0.15332,0.0713 0.100586,0 0.158692,-0.0679 0.0581,-0.0679 0.0581,-0.18994 0,-0.12549 -0.05664,-0.19385 -0.05615,-0.0684 -0.155274,-0.0684 z"
         style="font-style:normal;font-variant:normal;font-weight:bold;font-stretch:normal;font-size:1px;font-family:'Yu Gothic UI';-inkscape-font-specification:'Yu Gothic UI Bold';fill:#ece8e5;fill-opacity:1;stroke-width:0.0733241"
         id="path927" />
    </g>
    <g
       aria-label="SYNC"
       id="text41910-4"
       style="font-style:normal;font-variant:normal;font-weight:bold;font-stretch:normal;font-size:1px;line-height:1;font-family:'Yu Gothic UI';-inkscape-font-specification:'Yu Gothic UI Bold';letter-spacing:0px;word-spacing:0px;fill:#ece8e5;fill-opacity:1;stroke-width:0.0733241">
      <path
         d="m 23.232546,130.57217 v -0.11962 q 0.01611,0.0146 0.03809,0.0264 0.02246,0.0117 0.04736,0.02 0.0249,0.008 0.0498,0.0122 0.0249,0.004 0.0459,0.004 0.07324,0 0.108887,-0.0244 0.03613,-0.0244 0.03613,-0.0708 0,-0.0249 -0.01221,-0.043 -0.01172,-0.0186 -0.0332,-0.0337 -0.02148,-0.0151 -0.05078,-0.0288 -0.02881,-0.0142 -0.06201,-0.0293 -0.03564,-0.019 -0.06641,-0.0386 -0.03076,-0.0195 -0.05371,-0.043 -0.02246,-0.0239 -0.03564,-0.0537 -0.0127,-0.0298 -0.0127,-0.0698 0,-0.0493 0.02197,-0.0854 0.02246,-0.0366 0.05859,-0.0601 0.03662,-0.0239 0.08301,-0.0352 0.04639,-0.0117 0.09473,-0.0117 0.109864,0 0.160157,0.0249 v 0.11475 q -0.05957,-0.043 -0.153321,-0.043 -0.02588,0 -0.05176,0.005 -0.02539,0.005 -0.0459,0.0161 -0.02002,0.0112 -0.03271,0.0288 -0.0127,0.0176 -0.0127,0.0425 0,0.0234 0.0098,0.0405 0.0098,0.0171 0.02832,0.0312 0.01904,0.0142 0.0459,0.0278 0.02734,0.0132 0.06299,0.0288 0.03662,0.0191 0.06885,0.04 0.03271,0.021 0.05713,0.0464 0.0249,0.0254 0.03906,0.0566 0.01465,0.0308 0.01465,0.0703 0,0.0532 -0.02148,0.0899 -0.02148,0.0366 -0.05811,0.0596 -0.03613,0.0229 -0.0835,0.0332 -0.04736,0.0102 -0.100098,0.0102 -0.01758,0 -0.04346,-0.003 -0.02539,-0.002 -0.05225,-0.008 -0.02686,-0.005 -0.05078,-0.0122 -0.02393,-0.007 -0.03857,-0.0166 z"
         style="font-style:normal;font-variant:normal;font-weight:bold;font-stretch:normal;font-size:1px;font-family:'Yu Gothic UI';-inkscape-font-specification:'Yu Gothic UI Bold';fill:#ece8e5;fill-opacity:1;stroke-width:0.0733241"
         id="path910" />
      <path
         d="m 24.287233,129.89981 -0.229492,0.4458 v 0.2544 H 23.94153 v -0.25196 l -0.223633,-0.44824 h 0.132325 l 0.137695,0.30029 q 0.0024,0.005 0.01465,0.0405 h 0.0015 q 0.0044,-0.0156 0.01611,-0.0405 l 0.144042,-0.30029 z"
         style="font-style:normal;font-variant:normal;font-weight:bold;font-stretch:normal;font-size:1px;font-family:'Yu Gothic UI';-inkscape-font-specification:'Yu Gothic UI Bold';fill:#ece8e5;fill-opacity:1;stroke-width:0.0733241"
         id="path912" />
      <path
         d="m 24.970339,130.60001 h -0.126953 l -0.334473,-0.51465 q -0.0127,-0.0195 -0.021,-0.0405 h -0.0029 q 0.0039,0.0225 0.0039,0.0962 v 0.45899 h -0.112305 v -0.7002 h 0.135254 l 0.323242,0.50244 q 0.02051,0.0312 0.02637,0.043 h 0.002 q -0.0049,-0.0278 -0.0049,-0.0942 v -0.45117 h 0.111817 z"
         style="font-style:normal;font-variant:normal;font-weight:bold;font-stretch:normal;font-size:1px;font-family:'Yu Gothic UI';-inkscape-font-specification:'Yu Gothic UI Bold';fill:#ece8e5;fill-opacity:1;stroke-width:0.0733241"
         id="path914" />
      <path
         d="m 25.63196,130.57071 q -0.0791,0.041 -0.196777,0.041 -0.152344,0 -0.244141,-0.0962 -0.0918,-0.0962 -0.0918,-0.25244 0,-0.16797 0.103027,-0.27148 0.103516,-0.10352 0.261231,-0.10352 0.101562,0 0.168457,0.0288 v 0.11524 q -0.0708,-0.042 -0.15625,-0.042 -0.11377,0 -0.18457,0.0728 -0.07031,0.0727 -0.07031,0.19433 0,0.11573 0.06592,0.18457 0.06592,0.0684 0.17334,0.0684 0.09912,0 0.171875,-0.0469 z"
         style="font-style:normal;font-variant:normal;font-weight:bold;font-stretch:normal;font-size:1px;font-family:'Yu Gothic UI';-inkscape-font-specification:'Yu Gothic UI Bold';fill:#ece8e5;fill-opacity:1;stroke-width:0.0733241"
         id="path916" />
    </g>
    <g
       aria-label="RANGE"
       id="text41910-4-2"
       style="font-style:normal;font-variant:normal;font-weight:bold;font-stretch:normal;font-size:1px;line-height:1;font-family:'Yu Gothic UI';-inkscape-font-specification:'Yu Gothic UI Bold';letter-spacing:0px;word-spacing:0px;fill:#ece8e5;fill-opacity:1;stroke-width:0.0733241">
      <path
         d="m 29.075317,130.5701 h -0.135742 l -0.111816,-0.1875 q -0.01514,-0.0259 -0.02979,-0.0439 -0.01416,-0.0186 -0.0293,-0.0303 -0.01465,-0.0117 -0.03223,-0.0171 -0.01758,-0.005 -0.03955,-0.005 h -0.04687 v 0.28418 h -0.115722 v -0.7002 h 0.230469 q 0.04932,0 0.09082,0.0117 0.0415,0.0117 0.07226,0.0357 0.03076,0.0234 0.04785,0.0591 0.01758,0.0352 0.01758,0.0825 0,0.0371 -0.01123,0.0684 -0.01074,0.0308 -0.03125,0.0552 -0.02002,0.0239 -0.04883,0.041 -0.02832,0.0171 -0.06396,0.0264 v 0.002 q 0.01904,0.0107 0.0332,0.0239 0.01416,0.0127 0.02686,0.0264 0.0127,0.0137 0.0249,0.0312 0.0127,0.0171 0.02783,0.04 z m -0.425293,-0.60596 v 0.22754 h 0.09668 q 0.02686,0 0.04932,-0.008 0.02295,-0.008 0.03955,-0.0239 0.0166,-0.0156 0.02588,-0.0381 0.0093,-0.0225 0.0093,-0.0503 0,-0.0503 -0.03174,-0.0786 -0.03174,-0.0283 -0.09131,-0.0283 z"
         style="font-style:normal;font-variant:normal;font-weight:bold;font-stretch:normal;font-size:1px;font-family:'Yu Gothic UI';-inkscape-font-specification:'Yu Gothic UI Bold';fill:#ece8e5;fill-opacity:1;stroke-width:0.0733241"
         id="path899" />
      <path
         d="m 29.732056,130.5701 h -0.127442 l -0.06299,-0.17822 h -0.275391 l -0.06055,0.17822 h -0.126953 l 0.262207,-0.7002 h 0.13086 z m -0.221192,-0.27295 -0.09717,-0.2793 q -0.0044,-0.0137 -0.0093,-0.0439 h -0.002 q -0.0044,0.0278 -0.0098,0.0439 l -0.09619,0.2793 z"
         style="font-style:normal;font-variant:normal;font-weight:bold;font-stretch:normal;font-size:1px;font-family:'Yu Gothic UI';-inkscape-font-specification:'Yu Gothic UI Bold';fill:#ece8e5;fill-opacity:1;stroke-width:0.0733241"
         id="path901" />
      <path
         d="m 30.421997,130.5701 h -0.126953 l -0.334473,-0.51465 q -0.0127,-0.0195 -0.021,-0.0405 h -0.0029 q 0.0039,0.0225 0.0039,0.0962 v 0.45899 h -0.112305 v -0.7002 h 0.135254 l 0.323242,0.50244 q 0.02051,0.0312 0.02637,0.043 h 0.002 q -0.0049,-0.0278 -0.0049,-0.0942 v -0.45118 h 0.111816 z"
         style="font-style:normal;font-variant:normal;font-weight:bold;font-stretch:normal;font-size:1px;font-family:'Yu Gothic UI';-inkscape-font-specification:'Yu Gothic UI Bold';fill:#ece8e5;fill-opacity:1;stroke-width:0.0733241"
         id="path903" />
      <path
         d="m 31.141724,130.52225 q -0.109375,0.0596 -0.243653,0.0596 -0.155273,0 -0.251465,-0.0967 -0.09619,-0.0967 -0.09619,-0.25586 0,-0.1626 0.104981,-0.2666 0.105468,-0.1045 0.267578,-0.1045 0.116699,0 0.196289,0.0342 v 0.11963 q -0.08057,-0.0537 -0.191895,-0.0537 -0.111816,0 -0.183594,0.0737 -0.07129,0.0737 -0.07129,0.19092 0,0.12061 0.06152,0.18994 0.06152,0.0688 0.166992,0.0688 0.07227,0 0.125,-0.0278 v -0.16651 H 30.87854 v -0.0977 h 0.263184 z"
         style="font-style:normal;font-variant:normal;font-weight:bold;font-stretch:normal;font-size:1px;font-family:'Yu Gothic UI';-inkscape-font-specification:'Yu Gothic UI Bold';fill:#ece8e5;fill-opacity:1;stroke-width:0.0733241"
         id="path905" />
      <path
         d="m 31.685669,130.5701 h -0.393066 v -0.7002 h 0.377441 v 0.0986 h -0.261231 v 0.19824 h 0.240723 v 0.0981 h -0.240723 v 0.20703 h 0.276856 z"
         style="font-style:normal;font-variant:normal;font-weight:bold;font-stretch:normal;font-size:1px;font-family:'Yu Gothic UI';-inkscape-font-specification:'Yu Gothic UI Bold';fill:#ece8e5;fill-opacity:1;stroke-width:0.0733241"
         id="path907" />
    </g>
    <g
       aria-label="MODE"
       id="text41910-4-2-3"
       style="font-style:normal;font-variant:normal;font-weight:bold;font-stretch:normal;font-size:1px;line-height:1;font-family:'Yu Gothic UI';-inkscape-font-specification:'Yu Gothic UI Bold';letter-spacing:0px;word-spacing:0px;fill:#ece8e5;fill-opacity:1;stroke-width:0.0733241">
      <path
         d="m 38.753975,130.5269 h -0.115234 v -0.45312 q 0,-0.0557 0.0068,-0.13623 h -0.002 q -0.01074,0.0459 -0.01904,0.0659 l -0.208984,0.52344 h -0.08008 l -0.209473,-0.51953 q -0.0088,-0.023 -0.01855,-0.0698 h -0.002 q 0.0039,0.042 0.0039,0.1372 v 0.45215 h -0.107422 v -0.70019 h 0.163574 l 0.184082,0.4663 q 0.021,0.0537 0.02734,0.0801 h 0.0024 q 0.01807,-0.0552 0.0293,-0.082 l 0.1875,-0.46435 h 0.157715 z"
         style="font-style:normal;font-variant:normal;font-weight:bold;font-stretch:normal;font-size:1px;font-family:'Yu Gothic UI';-inkscape-font-specification:'Yu Gothic UI Bold';fill:#ece8e5;fill-opacity:1;stroke-width:0.0733241"
         id="path890" />
      <path
         d="m 39.214912,130.53862 q -0.151367,0 -0.242675,-0.0981 -0.09082,-0.0982 -0.09082,-0.25538 0,-0.16894 0.09277,-0.26953 0.09277,-0.10058 0.251953,-0.10058 0.147461,0 0.237305,0.0977 0.09033,0.0977 0.09033,0.25537 0,0.17139 -0.09229,0.271 -0.09229,0.0996 -0.246582,0.0996 z m 0.0054,-0.62158 q -0.09619,0 -0.156739,0.0718 -0.06006,0.0718 -0.06006,0.18896 0,0.1167 0.05859,0.18799 0.05859,0.0713 0.153321,0.0713 0.100586,0 0.158691,-0.0679 0.05811,-0.0679 0.05811,-0.18995 0,-0.12548 -0.05664,-0.19384 -0.05615,-0.0684 -0.155273,-0.0684 z"
         style="font-style:normal;font-variant:normal;font-weight:bold;font-stretch:normal;font-size:1px;font-family:'Yu Gothic UI';-inkscape-font-specification:'Yu Gothic UI Bold';fill:#ece8e5;fill-opacity:1;stroke-width:0.0733241"
         id="path892" />
      <path
         d="m 39.682198,130.5269 v -0.70019 h 0.202148 q 0.387207,0 0.387207,0.3413 0,0.16211 -0.107422,0.26075 -0.107422,0.0981 -0.288086,0.0981 z m 0.115722,-0.60156 v 0.50342 h 0.09277 q 0.122558,0 0.190429,-0.0674 0.06836,-0.0674 0.06836,-0.19043 0,-0.2456 -0.254395,-0.2456 z"
         style="font-style:normal;font-variant:normal;font-weight:bold;font-stretch:normal;font-size:1px;font-family:'Yu Gothic UI';-inkscape-font-specification:'Yu Gothic UI Bold';fill:#ece8e5;fill-opacity:1;stroke-width:0.0733241"
         id="path894" />
      <path
         d="m 40.792549,130.5269 h -0.393066 v -0.70019 h 0.377441 v 0.0986 h -0.26123 v 0.19824 h 0.240722 v 0.0982 h -0.240722 v 0.20703 h 0.276855 z"
         style="font-style:normal;font-variant:normal;font-weight:bold;font-stretch:normal;font-size:1px;font-family:'Yu Gothic UI';-inkscape-font-specification:'Yu Gothic UI Bold';fill:#ece8e5;fill-opacity:1;stroke-width:0.0733241"
         id="path896" />
    </g>
    <g
       aria-label="ON"
       id="text41910-4-2-3-4"
       style="font-style:normal;font-variant:normal;font-weight:bold;font-stretch:normal;font-size:1px;line-height:1;font-family:'Yu Gothic UI';-inkscape-font-specification:'Yu Gothic UI Bold';letter-spacing:0px;word-spacing:0px;fill:#ece8e5;fill-opacity:1;stroke-width:0.0733241">
      <path
         d="m 49.733078,130.54646 q -0.151367,0 -0.242676,-0.0981 -0.09082,-0.0982 -0.09082,-0.25537 0,-0.16895 0.09277,-0.26953 0.09277,-0.10059 0.251953,-0.10059 0.147461,0 0.237305,0.0977 0.09033,0.0976 0.09033,0.25537 0,0.17138 -0.09228,0.27099 -0.09229,0.0996 -0.246582,0.0996 z m 0.0054,-0.62158 q -0.09619,0 -0.156738,0.0718 -0.06006,0.0718 -0.06006,0.18896 0,0.1167 0.05859,0.18799 0.05859,0.0713 0.15332,0.0713 0.100586,0 0.158692,-0.0679 0.05811,-0.0679 0.05811,-0.18994 0,-0.12549 -0.05664,-0.19385 -0.05615,-0.0684 -0.155274,-0.0684 z"
         style="font-style:normal;font-variant:normal;font-weight:bold;font-stretch:normal;font-size:1px;font-family:'Yu Gothic UI';-inkscape-font-specification:'Yu Gothic UI Bold';fill:#ece8e5;fill-opacity:1;stroke-width:0.0733241"
         id="path885" />
      <path
         d="M 50.794113,130.53474 H 50.66716 l -0.334473,-0.51464 q -0.0127,-0.0195 -0.021,-0.0405 h -0.0029 q 0.0039,0.0225 0.0039,0.0962 v 0.45898 h -0.112305 v -0.70019 h 0.135254 l 0.323242,0.50244 q 0.02051,0.0312 0.02637,0.043 h 0.002 q -0.0049,-0.0278 -0.0049,-0.0942 v -0.45117 h 0.111816 z"
         style="font-style:normal;font-variant:normal;font-weight:bold;font-stretch:normal;font-size:1px;font-family:'Yu Gothic UI';-inkscape-font-specification:'Yu Gothic UI Bold';fill:#ece8e5;fill-opacity:1;stroke-width:0.0733241"
         id="path887" />
    </g>
    <g
       aria-label="HOLD"
       id="text41910-4-2-3-4-8"
       style="font-style:normal;font-variant:normal;font-weight:bold;font-stretch:normal;font-size:1px;line-height:1;font-family:'Yu Gothic UI';-inkscape-font-specification:'Yu Gothic UI Bold';letter-spacing:0px;word-spacing:0px;fill:#ece8e5;fill-opacity:1;stroke-width:0.0733241">
      <path
         d="m 55.084236,130.58981 h -0.116699 v -0.30371 h -0.32959 v 0.30371 h -0.116211 v -0.70019 h 0.116211 v 0.29443 h 0.32959 v -0.29443 h 0.116699 z"
         style="font-style:normal;font-variant:normal;font-weight:bold;font-stretch:normal;font-size:1px;font-family:'Yu Gothic UI';-inkscape-font-specification:'Yu Gothic UI Bold';fill:#ece8e5;fill-opacity:1;stroke-width:0.0733241"
         id="path876" />
      <path
         d="m 55.545662,130.60153 q -0.151367,0 -0.242676,-0.0981 -0.09082,-0.0982 -0.09082,-0.25537 0,-0.16895 0.09277,-0.26953 0.09277,-0.10059 0.251953,-0.10059 0.147461,0 0.237305,0.0977 0.09033,0.0976 0.09033,0.25537 0,0.17138 -0.09229,0.27099 -0.09228,0.0996 -0.246582,0.0996 z m 0.0054,-0.62158 q -0.09619,0 -0.156738,0.0718 -0.06006,0.0718 -0.06006,0.18896 0,0.1167 0.05859,0.18799 0.05859,0.0713 0.15332,0.0713 0.100586,0 0.158692,-0.0679 0.0581,-0.0679 0.0581,-0.18994 0,-0.12549 -0.05664,-0.19385 -0.05615,-0.0684 -0.155273,-0.0684 z"
         style="font-style:normal;font-variant:normal;font-weight:bold;font-stretch:normal;font-size:1px;font-family:'Yu Gothic UI';-inkscape-font-specification:'Yu Gothic UI Bold';fill:#ece8e5;fill-opacity:1;stroke-width:0.0733241"
         id="path878" />
      <path
         d="m 56.400642,130.58981 h -0.387695 v -0.70019 h 0.116211 v 0.60205 h 0.271484 z"
         style="font-style:normal;font-variant:normal;font-weight:bold;font-stretch:normal;font-size:1px;font-family:'Yu Gothic UI';-inkscape-font-specification:'Yu Gothic UI Bold';fill:#ece8e5;fill-opacity:1;stroke-width:0.0733241"
         id="path880" />
      <path
         d="m 56.501717,130.58981 v -0.70019 h 0.202148 q 0.387207,0 0.387207,0.34131 0,0.16211 -0.107422,0.26074 -0.107422,0.0981 -0.288086,0.0981 z m 0.115722,-0.60156 v 0.50342 h 0.09277 q 0.122558,0 0.190429,-0.0674 0.06836,-0.0674 0.06836,-0.19043 0,-0.24561 -0.254395,-0.24561 z"
         style="font-style:normal;font-variant:normal;font-weight:bold;font-stretch:normal;font-size:1px;font-family:'Yu Gothic UI';-inkscape-font-specification:'Yu Gothic UI Bold';fill:#ece8e5;fill-opacity:1;stroke-width:0.0733241"
         id="path882" />
    </g>
    <g
       aria-label="SEQ REC"
       id="text41910-4-2-3-4-8-3"
       style="font-style:normal;font-variant:normal;font-weight:bold;font-stretch:normal;font-size:1px;line-height:1;font-family:'Yu Gothic UI';-inkscape-font-specification:'Yu Gothic UI Bold';letter-spacing:0px;word-spacing:0px;fill:#ece8e5;fill-opacity:1;stroke-width:0.0733241">
      <path
         d="m 59.873844,130.51474 v -0.11963 q 0.01611,0.0147 0.03809,0.0264 0.02246,0.0117 0.04736,0.02 0.0249,0.008 0.0498,0.0122 0.0249,0.004 0.0459,0.004 0.07324,0 0.108887,-0.0244 0.03613,-0.0244 0.03613,-0.0708 0,-0.0249 -0.01221,-0.043 -0.01172,-0.0186 -0.0332,-0.0337 -0.02148,-0.0151 -0.05078,-0.0288 -0.02881,-0.0142 -0.06201,-0.0293 -0.03564,-0.019 -0.06641,-0.0386 -0.03076,-0.0195 -0.05371,-0.043 -0.02246,-0.0239 -0.03564,-0.0537 -0.0127,-0.0298 -0.0127,-0.0698 0,-0.0493 0.02197,-0.0855 0.02246,-0.0366 0.05859,-0.0601 0.03662,-0.0239 0.08301,-0.0352 0.04639,-0.0117 0.09473,-0.0117 0.109863,0 0.160156,0.0249 v 0.11475 q -0.05957,-0.043 -0.15332,-0.043 -0.02588,0 -0.05176,0.005 -0.02539,0.005 -0.0459,0.0161 -0.02002,0.0112 -0.03271,0.0288 -0.0127,0.0176 -0.0127,0.0425 0,0.0234 0.0098,0.0405 0.0098,0.0171 0.02832,0.0312 0.01904,0.0142 0.0459,0.0278 0.02734,0.0132 0.06299,0.0288 0.03662,0.019 0.06885,0.04 0.03271,0.021 0.05713,0.0464 0.0249,0.0254 0.03906,0.0566 0.01465,0.0308 0.01465,0.0703 0,0.0532 -0.02148,0.0898 -0.02148,0.0366 -0.05811,0.0596 -0.03613,0.023 -0.0835,0.0332 -0.04736,0.0103 -0.100097,0.0103 -0.01758,0 -0.04346,-0.003 -0.02539,-0.002 -0.05225,-0.008 -0.02686,-0.005 -0.05078,-0.0122 -0.02393,-0.007 -0.03857,-0.0166 z"
         style="font-style:normal;font-variant:normal;font-weight:bold;font-stretch:normal;font-size:1px;font-family:'Yu Gothic UI';-inkscape-font-specification:'Yu Gothic UI Bold';fill:#ece8e5;fill-opacity:1;stroke-width:0.0733241"
         id="path863" />
      <path
         d="m 60.843571,130.54257 h -0.393067 v -0.70019 h 0.377442 v 0.0986 h -0.261231 v 0.19824 h 0.240723 v 0.0982 h -0.240723 v 0.20703 h 0.276856 z"
         style="font-style:normal;font-variant:normal;font-weight:bold;font-stretch:normal;font-size:1px;font-family:'Yu Gothic UI';-inkscape-font-specification:'Yu Gothic UI Bold';fill:#ece8e5;fill-opacity:1;stroke-width:0.0733241"
         id="path865" />
      <path
         d="m 61.256657,130.55429 q -0.07568,0 -0.137207,-0.0259 -0.06152,-0.0259 -0.104981,-0.0723 -0.04346,-0.0469 -0.06738,-0.11182 -0.02392,-0.0649 -0.02392,-0.14355 0,-0.084 0.02392,-0.15235 0.02441,-0.0684 0.06885,-0.1167 0.04492,-0.0483 0.108887,-0.0747 0.06397,-0.0264 0.143066,-0.0264 0.07324,0 0.133789,0.0259 0.06055,0.0259 0.103516,0.0728 0.04297,0.0464 0.06641,0.11133 0.02393,0.0649 0.02393,0.14307 0,0.10351 -0.03467,0.18164 -0.03467,0.0776 -0.09766,0.125 l 0.203125,0.14648 h -0.176758 l -0.125,-0.0972 q -0.0249,0.007 -0.05176,0.0107 -0.02686,0.004 -0.05615,0.004 z m 0.0054,-0.62158 q -0.04785,0 -0.08789,0.019 -0.03955,0.0186 -0.06836,0.0532 -0.02881,0.0342 -0.04492,0.082 -0.01563,0.0479 -0.01563,0.10644 0,0.0581 0.01514,0.10596 0.01563,0.0479 0.04346,0.082 0.02783,0.0337 0.06689,0.0527 0.03906,0.0186 0.08643,0.0186 0.05029,0 0.09033,-0.0176 0.04004,-0.0176 0.06787,-0.0503 0.02832,-0.0332 0.04346,-0.0811 0.01514,-0.0478 0.01514,-0.10888 0,-0.0625 -0.01465,-0.11133 -0.01465,-0.0488 -0.04199,-0.082 -0.02734,-0.0337 -0.06689,-0.0513 -0.03906,-0.0176 -0.08838,-0.0176 z"
         style="font-style:normal;font-variant:normal;font-weight:bold;font-stretch:normal;font-size:1px;font-family:'Yu Gothic UI';-inkscape-font-specification:'Yu Gothic UI Bold';fill:#ece8e5;fill-opacity:1;stroke-width:0.0733241"
         id="path867" />
      <path
         d="m 62.53986,130.54257 h -0.135742 l -0.111817,-0.1875 q -0.01514,-0.0259 -0.02979,-0.0439 -0.01416,-0.0186 -0.0293,-0.0303 -0.01465,-0.0117 -0.03223,-0.0171 -0.01758,-0.005 -0.03955,-0.005 h -0.04687 v 0.28418 h -0.115723 v -0.70019 h 0.230469 q 0.04932,0 0.09082,0.0117 0.0415,0.0117 0.07227,0.0356 0.03076,0.0234 0.04785,0.0591 0.01758,0.0352 0.01758,0.0825 0,0.0371 -0.01123,0.0684 -0.01074,0.0308 -0.03125,0.0552 -0.02002,0.0239 -0.04883,0.041 -0.02832,0.0171 -0.06397,0.0264 v 0.002 q 0.01904,0.0107 0.0332,0.0239 0.01416,0.0127 0.02686,0.0264 0.0127,0.0137 0.0249,0.0312 0.0127,0.0171 0.02783,0.04 z m -0.425293,-0.60596 v 0.22754 h 0.09668 q 0.02686,0 0.04932,-0.008 0.02295,-0.008 0.03955,-0.0239 0.0166,-0.0156 0.02588,-0.0381 0.0093,-0.0225 0.0093,-0.0503 0,-0.0503 -0.03174,-0.0786 -0.03174,-0.0283 -0.09131,-0.0283 z"
         style="font-style:normal;font-variant:normal;font-weight:bold;font-stretch:normal;font-size:1px;font-family:'Yu Gothic UI';-inkscape-font-specification:'Yu Gothic UI Bold';fill:#ece8e5;fill-opacity:1;stroke-width:0.0733241"
         id="path869" />
      <path
         d="m 63.014469,130.54257 h -0.393066 v -0.70019 h 0.377441 v 0.0986 h -0.26123 v 0.19824 h 0.240722 v 0.0982 h -0.240722 v 0.20703 h 0.276855 z"
         style="font-style:normal;font-variant:normal;font-weight:bold;font-stretch:normal;font-size:1px;font-family:'Yu Gothic UI';-inkscape-font-specification:'Yu Gothic UI Bold';fill:#ece8e5;fill-opacity:1;stroke-width:0.0733241"
         id="path871" />
      <path
         d="m 63.627262,130.51328 q -0.0791,0.041 -0.196777,0.041 -0.152344,0 -0.244141,-0.0962 -0.0918,-0.0962 -0.0918,-0.25244 0,-0.16797 0.103028,-0.27149 0.103515,-0.10351 0.26123,-0.10351 0.101563,0 0.168457,0.0288 v 0.11523 q -0.0708,-0.042 -0.15625,-0.042 -0.113769,0 -0.18457,0.0728 -0.07031,0.0728 -0.07031,0.19434 0,0.11572 0.06592,0.18457 0.06592,0.0684 0.17334,0.0684 0.09912,0 0.171875,-0.0469 z"
         style="font-style:normal;font-variant:normal;font-weight:bold;font-stretch:normal;font-size:1px;font-family:'Yu Gothic UI';-inkscape-font-specification:'Yu Gothic UI Bold';fill:#ece8e5;fill-opacity:1;stroke-width:0.0733241"
         id="path873" />
    </g>
    <path
       style="fill:none;stroke:#ece8e5;stroke-width:0.25;stroke-linecap:round;stroke-linejoin:miter;stroke-miterlimit:4;stroke-dasharray:none;stroke-opacity:1"
       d="m 15.438751,127.34831 -0.850209,1.41186"
       id="path5187-6" />
    <path
       style="fill:none;stroke:#ece8e5;stroke-width:0.1;stroke-linecap:round;stroke-linejoin:miter;stroke-miterlimit:4;stroke-dasharray:none;stroke-opacity:1"
       d="m 14.818634,126.69512 -1.372039,1.03304"
       id="path5189-0" />
    <path
       style="fill:none;stroke:#ece8e5;stroke-width:0.1;stroke-linecap:round;stroke-linejoin:miter;stroke-miterlimit:4;stroke-dasharray:none;stroke-opacity:1"
       d="m 14.405223,125.87656 -1.563384,0.40207"
       id="path5191-9" />
    <path
       style="fill:none;stroke:#ece8e5;stroke-width:0.1;stroke-linecap:round;stroke-linejoin:miter;stroke-miterlimit:4;stroke-dasharray:none;stroke-opacity:1"
       d="m 14.430027,124.96706 -1.59362,-0.47789"
       id="path5193-3" />
    <path
       style="fill:none;stroke:#ece8e5;stroke-width:0.1;stroke-linecap:round;stroke-linejoin:miter;stroke-miterlimit:4;stroke-dasharray:none;stroke-opacity:1"
       d="M 14.859975,124.15677 13.638183,123.1072"
       id="path5195-6" />
    <path
       style="fill:none;stroke:#ece8e5;stroke-width:0.1;stroke-linecap:round;stroke-linejoin:miter;stroke-miterlimit:4;stroke-dasharray:none;stroke-opacity:1"
       d="M 15.612384,123.58626 14.857625,122.1221"
       id="path5197-1" />
    <path
       style="fill:none;stroke:#ece8e5;stroke-width:0.1;stroke-linecap:round;stroke-linejoin:miter;stroke-miterlimit:4;stroke-dasharray:none;stroke-opacity:1"
       d="m 16.488816,123.41263 0.0083,-1.53714"
       id="path5199-6" />
  </g>
</svg>
