<?xml version="1.0" encoding="UTF-8" standalone="no"?>
<svg
   xmlns:dc="http://purl.org/dc/elements/1.1/"
   xmlns:cc="http://creativecommons.org/ns#"
   xmlns:rdf="http://www.w3.org/1999/02/22-rdf-syntax-ns#"
   xmlns:svg="http://www.w3.org/2000/svg"
   xmlns="http://www.w3.org/2000/svg"
   width="18.055994mm"
   height="16.05599mm"
   viewBox="0 0 18.055994 16.05599"
   version="1.1"
   id="svg4984">
  <defs
     id="defs4978" />
  <metadata
     id="metadata4981">
    <rdf:RDF>
      <cc:Work
         rdf:about="">
        <dc:format>image/svg+xml</dc:format>
        <dc:type
           rdf:resource="http://purl.org/dc/dcmitype/StillImage" />
        <dc:title />
      </cc:Work>
    </rdf:RDF>
  </metadata>
  <g
     id="layer1"
     transform="translate(-100.5851,-137.11486)">
    <path
       id="rect41388-0-0-7-8-5-1-4"
       style="fill:none;fill-opacity:1;stroke:none;stroke-width:0.05;stroke-miterlimit:10;stroke-dasharray:none;stroke-opacity:1;paint-order:markers fill stroke"
       d="m 100.6131,137.14285 h 18 v 16 h -18 z" />
    <path
       style="fill:none;stroke:#ece8e5;stroke-width:0.1;stroke-linecap:butt;stroke-linejoin:miter;stroke-opacity:1;stroke-miterlimit:4;stroke-dasharray:none"
       d="m 101.5851,138.11486 v 14"
       id="path11801" />
    <path
       style="fill:none;stroke:#527b9b;stroke-width:0.264583px;stroke-linecap:butt;stroke-linejoin:miter;stroke-opacity:1"
       d="m 102.5851,140.11486 h 15"
       id="path11803" />
    <g
       aria-label="VOICE ASSIGN"
       id="text41512"
       style="font-style:normal;font-variant:normal;font-weight:bold;font-stretch:normal;font-size:1.6px;line-height:1.25;font-family:'Yu Gothic UI';-inkscape-font-specification:'Yu Gothic UI Bold';letter-spacing:0px;word-spacing:0px;fill:#ece8e5;fill-opacity:1;stroke-width:0.101;stroke-miterlimit:4;stroke-dasharray:none">
      <path
         d="m 103.69738,138.50652 -0.41485,1.12031 H 103.138 l -0.40625,-1.12031 h 0.1461 l 0.31015,0.88828 q 0.0148,0.043 0.0227,0.0992 h 0.003 q 0.006,-0.0469 0.0258,-0.10078 l 0.31641,-0.88672 z"
         style="font-style:normal;font-variant:normal;font-weight:normal;font-stretch:normal;font-size:1.6px;font-family:'Yu Gothic UI';-inkscape-font-specification:'Yu Gothic UI';fill:#ece8e5;fill-opacity:1;stroke-width:0.101;stroke-miterlimit:4;stroke-dasharray:none"
         id="path866" />
      <path
         d="m 104.28566,139.64558 q -0.23828,0 -0.38203,-0.15703 -0.14297,-0.15703 -0.14297,-0.40859 0,-0.27032 0.14609,-0.43125 0.1461,-0.16094 0.39766,-0.16094 0.23203,0 0.37344,0.15625 0.14218,0.15625 0.14218,0.40859 0,0.27422 -0.14531,0.4336 -0.14531,0.15937 -0.38906,0.15937 z m 0.009,-1.03906 q -0.17656,0 -0.28672,0.12734 -0.11015,0.12735 -0.11015,0.33438 0,0.20703 0.10703,0.33359 0.10781,0.12578 0.28047,0.12578 0.18437,0 0.29062,-0.12031 0.10625,-0.12031 0.10625,-0.33672 0,-0.22187 -0.10312,-0.34297 -0.10313,-0.12109 -0.28438,-0.12109 z"
         style="font-style:normal;font-variant:normal;font-weight:normal;font-stretch:normal;font-size:1.6px;font-family:'Yu Gothic UI';-inkscape-font-specification:'Yu Gothic UI';fill:#ece8e5;fill-opacity:1;stroke-width:0.101;stroke-miterlimit:4;stroke-dasharray:none"
         id="path868" />
      <path
         d="m 105.1716,139.62683 h -0.13125 v -1.12031 h 0.13125 z"
         style="font-style:normal;font-variant:normal;font-weight:normal;font-stretch:normal;font-size:1.6px;font-family:'Yu Gothic UI';-inkscape-font-specification:'Yu Gothic UI';fill:#ece8e5;fill-opacity:1;stroke-width:0.101;stroke-miterlimit:4;stroke-dasharray:none"
         id="path870" />
      <path
         d="m 106.22863,139.57996 q -0.12422,0.0656 -0.30938,0.0656 -0.23906,0 -0.38281,-0.15391 -0.14375,-0.1539 -0.14375,-0.4039 0,-0.26875 0.16172,-0.43438 0.16172,-0.16562 0.41015,-0.16562 0.15938,0 0.26407,0.0461 v 0.13985 q -0.12032,-0.0672 -0.26563,-0.0672 -0.19297,0 -0.31328,0.1289 -0.11953,0.12891 -0.11953,0.34454 0,0.20468 0.11172,0.32656 0.1125,0.12109 0.29453,0.12109 0.16875,0 0.29219,-0.075 z"
         style="font-style:normal;font-variant:normal;font-weight:normal;font-stretch:normal;font-size:1.6px;font-family:'Yu Gothic UI';-inkscape-font-specification:'Yu Gothic UI';fill:#ece8e5;fill-opacity:1;stroke-width:0.101;stroke-miterlimit:4;stroke-dasharray:none"
         id="path872" />
      <path
         d="m 107.0505,139.62683 h -0.59375 v -1.12031 h 0.56875 v 0.11875 h -0.4375 v 0.37265 h 0.40469 v 0.11797 H 106.588 v 0.39219 h 0.4625 z"
         style="font-style:normal;font-variant:normal;font-weight:normal;font-stretch:normal;font-size:1.6px;font-family:'Yu Gothic UI';-inkscape-font-specification:'Yu Gothic UI';fill:#ece8e5;fill-opacity:1;stroke-width:0.101;stroke-miterlimit:4;stroke-dasharray:none"
         id="path874" />
      <path
         d="m 108.5716,139.62683 h -0.14532 l -0.11875,-0.31406 h -0.475 l -0.11172,0.31406 h -0.14609 l 0.42969,-1.12031 h 0.13594 z m -0.30704,-0.43203 -0.17578,-0.47734 q -0.009,-0.0234 -0.0172,-0.075 h -0.003 q -0.008,0.0477 -0.018,0.075 l -0.17422,0.47734 z"
         style="font-style:normal;font-variant:normal;font-weight:normal;font-stretch:normal;font-size:1.6px;font-family:'Yu Gothic UI';-inkscape-font-specification:'Yu Gothic UI';fill:#ece8e5;fill-opacity:1;stroke-width:0.101;stroke-miterlimit:4;stroke-dasharray:none"
         id="path876" />
      <path
         d="m 108.6841,139.58152 v -0.15469 q 0.0266,0.0234 0.0633,0.0422 0.0375,0.0188 0.0781,0.032 0.0414,0.0125 0.0828,0.0195 0.0414,0.007 0.0766,0.007 0.12109,0 0.18047,-0.0445 0.0601,-0.0453 0.0601,-0.12969 0,-0.0453 -0.0203,-0.0789 -0.0195,-0.0336 -0.0547,-0.0609 -0.0351,-0.0281 -0.0836,-0.0531 -0.0477,-0.0258 -0.10313,-0.0539 -0.0586,-0.0297 -0.10937,-0.0602 -0.0508,-0.0305 -0.0883,-0.0672 -0.0375,-0.0367 -0.0594,-0.0828 -0.0211,-0.0469 -0.0211,-0.10937 0,-0.0766 0.0336,-0.13282 0.0336,-0.057 0.0883,-0.0937 0.0547,-0.0367 0.12422,-0.0547 0.0703,-0.018 0.14297,-0.018 0.16563,0 0.24141,0.0398 v 0.14766 q -0.0992,-0.0688 -0.25469,-0.0688 -0.043,0 -0.0859,0.009 -0.043,0.009 -0.0766,0.0289 -0.0336,0.0203 -0.0547,0.0523 -0.0211,0.032 -0.0211,0.0781 0,0.043 0.0156,0.0742 0.0164,0.0312 0.0477,0.057 0.0312,0.0258 0.0758,0.05 0.0453,0.0242 0.10391,0.0531 0.0601,0.0297 0.11406,0.0625 0.0539,0.0328 0.0945,0.0727 0.0406,0.0398 0.0641,0.0883 0.0242,0.0484 0.0242,0.11094 0,0.0828 -0.0328,0.14062 -0.032,0.057 -0.0875,0.093 -0.0547,0.0359 -0.12656,0.0516 -0.0719,0.0164 -0.15157,0.0164 -0.0266,0 -0.0656,-0.005 -0.0391,-0.004 -0.0797,-0.0125 -0.0406,-0.008 -0.0773,-0.0195 -0.0359,-0.0125 -0.0578,-0.0273 z"
         style="font-style:normal;font-variant:normal;font-weight:normal;font-stretch:normal;font-size:1.6px;font-family:'Yu Gothic UI';-inkscape-font-specification:'Yu Gothic UI';fill:#ece8e5;fill-opacity:1;stroke-width:0.101;stroke-miterlimit:4;stroke-dasharray:none"
         id="path878" />
      <path
         d="m 109.5341,139.58152 v -0.15469 q 0.0266,0.0234 0.0633,0.0422 0.0375,0.0188 0.0781,0.032 0.0414,0.0125 0.0828,0.0195 0.0414,0.007 0.0766,0.007 0.12109,0 0.18047,-0.0445 0.0602,-0.0453 0.0602,-0.12969 0,-0.0453 -0.0203,-0.0789 -0.0195,-0.0336 -0.0547,-0.0609 -0.0352,-0.0281 -0.0836,-0.0531 -0.0477,-0.0258 -0.10313,-0.0539 -0.0586,-0.0297 -0.10937,-0.0602 -0.0508,-0.0305 -0.0883,-0.0672 -0.0375,-0.0367 -0.0594,-0.0828 -0.0211,-0.0469 -0.0211,-0.10937 0,-0.0766 0.0336,-0.13282 0.0336,-0.057 0.0883,-0.0937 0.0547,-0.0367 0.12422,-0.0547 0.0703,-0.018 0.14297,-0.018 0.16563,0 0.24141,0.0398 v 0.14766 q -0.0992,-0.0688 -0.25469,-0.0688 -0.043,0 -0.0859,0.009 -0.043,0.009 -0.0766,0.0289 -0.0336,0.0203 -0.0547,0.0523 -0.0211,0.032 -0.0211,0.0781 0,0.043 0.0156,0.0742 0.0164,0.0312 0.0477,0.057 0.0312,0.0258 0.0758,0.05 0.0453,0.0242 0.10391,0.0531 0.0602,0.0297 0.11406,0.0625 0.0539,0.0328 0.0945,0.0727 0.0406,0.0398 0.0641,0.0883 0.0242,0.0484 0.0242,0.11094 0,0.0828 -0.0328,0.14062 -0.032,0.057 -0.0875,0.093 -0.0547,0.0359 -0.12656,0.0516 -0.0719,0.0164 -0.15157,0.0164 -0.0266,0 -0.0656,-0.005 -0.0391,-0.004 -0.0797,-0.0125 -0.0406,-0.008 -0.0773,-0.0195 -0.0359,-0.0125 -0.0578,-0.0273 z"
         style="font-style:normal;font-variant:normal;font-weight:normal;font-stretch:normal;font-size:1.6px;font-family:'Yu Gothic UI';-inkscape-font-specification:'Yu Gothic UI';fill:#ece8e5;fill-opacity:1;stroke-width:0.101;stroke-miterlimit:4;stroke-dasharray:none"
         id="path880" />
      <path
         d="m 110.56769,139.62683 h -0.13125 v -1.12031 h 0.13125 z"
         style="font-style:normal;font-variant:normal;font-weight:normal;font-stretch:normal;font-size:1.6px;font-family:'Yu Gothic UI';-inkscape-font-specification:'Yu Gothic UI';fill:#ece8e5;fill-opacity:1;stroke-width:0.101;stroke-miterlimit:4;stroke-dasharray:none"
         id="path882" />
      <path
         d="m 111.69972,139.55027 q -0.16875,0.0953 -0.375,0.0953 -0.23984,0 -0.38828,-0.15469 -0.14766,-0.15468 -0.14766,-0.40937 0,-0.26016 0.16407,-0.42656 0.16484,-0.16719 0.41718,-0.16719 0.18282,0 0.30703,0.0594 v 0.14532 q -0.13593,-0.0859 -0.32187,-0.0859 -0.18828,0 -0.30859,0.12969 -0.12032,0.12968 -0.12032,0.33593 0,0.2125 0.11172,0.33438 0.11172,0.12109 0.30313,0.12109 0.13125,0 0.22734,-0.0523 v -0.31406 h -0.24531 v -0.11875 h 0.37656 z"
         style="font-style:normal;font-variant:normal;font-weight:normal;font-stretch:normal;font-size:1.6px;font-family:'Yu Gothic UI';-inkscape-font-specification:'Yu Gothic UI';fill:#ece8e5;fill-opacity:1;stroke-width:0.101;stroke-miterlimit:4;stroke-dasharray:none"
         id="path884" />
      <path
         d="m 112.863,139.62683 h -0.16093 l -0.57657,-0.89297 q -0.0219,-0.0336 -0.0359,-0.0703 h -0.005 q 0.006,0.0359 0.006,0.15391 v 0.80937 h -0.13125 v -1.12031 h 0.17031 l 0.56094,0.8789 q 0.0352,0.0547 0.0453,0.075 h 0.003 q -0.008,-0.0484 -0.008,-0.16484 v -0.78906 h 0.13125 z"
         style="font-style:normal;font-variant:normal;font-weight:normal;font-stretch:normal;font-size:1.6px;font-family:'Yu Gothic UI';-inkscape-font-specification:'Yu Gothic UI';fill:#ece8e5;fill-opacity:1;stroke-width:0.101;stroke-miterlimit:4;stroke-dasharray:none"
         id="path886" />
    </g>
    <g
       aria-label="MODE"
       id="text41910"
       style="font-style:normal;font-variant:normal;font-weight:bold;font-stretch:normal;font-size:1px;line-height:1;font-family:'Yu Gothic UI';-inkscape-font-specification:'Yu Gothic UI Bold';letter-spacing:0px;word-spacing:0px;fill:#ece8e5;fill-opacity:1;stroke-width:0.0733241">
      <path
         d="m 103.97005,150.34314 h -0.11524 v -0.45313 q 0,-0.0557 0.007,-0.13623 h -0.002 q -0.0108,0.0459 -0.0191,0.0659 l -0.20898,0.52344 h -0.0801 l -0.20947,-0.51953 q -0.009,-0.023 -0.0186,-0.0698 h -0.002 q 0.004,0.042 0.004,0.13721 v 0.45215 h -0.10743 v -0.7002 h 0.16358 l 0.18408,0.46631 q 0.021,0.0537 0.0273,0.0801 h 0.002 q 0.0181,-0.0552 0.0293,-0.082 l 0.1875,-0.46436 h 0.15772 z"
         style="font-style:normal;font-variant:normal;font-weight:bold;font-stretch:normal;font-size:1px;font-family:'Yu Gothic UI';-inkscape-font-specification:'Yu Gothic UI Bold';fill:#ece8e5;fill-opacity:1;stroke-width:0.0733241"
         id="path857" />
      <path
         d="m 104.43098,150.35486 q -0.15136,0 -0.24267,-0.0982 -0.0908,-0.0981 -0.0908,-0.25537 0,-0.16894 0.0928,-0.26953 0.0928,-0.10058 0.25195,-0.10058 0.14747,0 0.23731,0.0977 0.0903,0.0977 0.0903,0.25537 0,0.17139 -0.0923,0.271 -0.0923,0.0996 -0.24659,0.0996 z m 0.005,-0.62158 q -0.0962,0 -0.15674,0.0718 -0.0601,0.0718 -0.0601,0.18897 0,0.1167 0.0586,0.18799 0.0586,0.0713 0.15332,0.0713 0.10059,0 0.15869,-0.0679 0.0581,-0.0679 0.0581,-0.18994 0,-0.12548 -0.0566,-0.19384 -0.0561,-0.0684 -0.15527,-0.0684 z"
         style="font-style:normal;font-variant:normal;font-weight:bold;font-stretch:normal;font-size:1px;font-family:'Yu Gothic UI';-inkscape-font-specification:'Yu Gothic UI Bold';fill:#ece8e5;fill-opacity:1;stroke-width:0.0733241"
         id="path859" />
      <path
         d="m 104.89827,150.34314 v -0.7002 h 0.20215 q 0.38721,0 0.38721,0.34131 0,0.16211 -0.10743,0.26075 -0.10742,0.0981 -0.28808,0.0981 z m 0.11572,-0.60156 v 0.50342 h 0.0928 q 0.12255,0 0.19043,-0.0674 0.0683,-0.0674 0.0683,-0.19043 0,-0.2456 -0.25439,-0.2456 z"
         style="font-style:normal;font-variant:normal;font-weight:bold;font-stretch:normal;font-size:1px;font-family:'Yu Gothic UI';-inkscape-font-specification:'Yu Gothic UI Bold';fill:#ece8e5;fill-opacity:1;stroke-width:0.0733241"
         id="path861" />
      <path
         d="m 106.00862,150.34314 h -0.39307 v -0.7002 h 0.37745 v 0.0986 h -0.26123 v 0.19824 h 0.24072 v 0.0981 h -0.24072 v 0.20704 h 0.27685 z"
         style="font-style:normal;font-variant:normal;font-weight:bold;font-stretch:normal;font-size:1px;font-family:'Yu Gothic UI';-inkscape-font-specification:'Yu Gothic UI Bold';fill:#ece8e5;fill-opacity:1;stroke-width:0.0733241"
         id="path863" />
    </g>
    <g
       aria-label="BINAURAL"
       id="text41910-3"
       style="font-style:normal;font-variant:normal;font-weight:bold;font-stretch:normal;font-size:1px;line-height:1;font-family:'Yu Gothic UI';-inkscape-font-specification:'Yu Gothic UI Bold';letter-spacing:0px;word-spacing:0px;fill:#ece8e5;fill-opacity:1;stroke-width:0.0733241">
      <path
         d="m 112.63238,150.35095 v -0.70019 h 0.22217 q 0.10156,0 0.16064,0.0444 0.0596,0.0444 0.0596,0.11572 0,0.0596 -0.0337,0.10352 -0.0337,0.0439 -0.0933,0.0625 v 0.002 q 0.0723,0.008 0.11523,0.0537 0.0435,0.0449 0.0435,0.11719 0,0.0898 -0.0708,0.14551 -0.0708,0.0557 -0.17871,0.0557 z m 0.11572,-0.60693 v 0.19922 h 0.0752 q 0.0605,0 0.0947,-0.0283 0.0347,-0.0288 0.0347,-0.0811 0,-0.0898 -0.12012,-0.0898 z m 0,0.29248 v 0.22168 h 0.0991 q 0.0649,0 0.1001,-0.0298 0.0356,-0.0303 0.0356,-0.083 0,-0.10889 -0.15088,-0.10889 z"
         style="font-style:normal;font-variant:normal;font-weight:bold;font-stretch:normal;font-size:1px;font-family:'Yu Gothic UI';-inkscape-font-specification:'Yu Gothic UI Bold';fill:#ece8e5;fill-opacity:1;stroke-width:0.0733241"
         id="path840" />
      <path
         d="m 113.35552,150.35095 h -0.11963 v -0.70019 h 0.11963 z"
         style="font-style:normal;font-variant:normal;font-weight:bold;font-stretch:normal;font-size:1px;font-family:'Yu Gothic UI';-inkscape-font-specification:'Yu Gothic UI Bold';fill:#ece8e5;fill-opacity:1;stroke-width:0.0733241"
         id="path842" />
      <path
         d="m 114.12164,150.35095 h -0.12696 l -0.33447,-0.51465 q -0.0127,-0.0195 -0.021,-0.0405 h -0.003 q 0.004,0.0225 0.004,0.0962 v 0.45898 h -0.1123 v -0.70019 h 0.13525 l 0.32324,0.50244 q 0.0205,0.0312 0.0264,0.043 h 0.002 q -0.005,-0.0278 -0.005,-0.0942 v -0.45117 h 0.11182 z"
         style="font-style:normal;font-variant:normal;font-weight:bold;font-stretch:normal;font-size:1px;font-family:'Yu Gothic UI';-inkscape-font-specification:'Yu Gothic UI Bold';fill:#ece8e5;fill-opacity:1;stroke-width:0.0733241"
         id="path844" />
      <path
         d="m 114.87017,150.35095 h -0.12744 l -0.063,-0.17822 h -0.27539 l -0.0605,0.17822 h -0.12695 l 0.26221,-0.70019 h 0.13086 z m -0.22119,-0.27295 -0.0972,-0.27929 q -0.004,-0.0137 -0.009,-0.0439 h -0.002 q -0.004,0.0278 -0.01,0.0439 l -0.0962,0.27929 z"
         style="font-style:normal;font-variant:normal;font-weight:bold;font-stretch:normal;font-size:1px;font-family:'Yu Gothic UI';-inkscape-font-specification:'Yu Gothic UI Bold';fill:#ece8e5;fill-opacity:1;stroke-width:0.0733241"
         id="path846" />
      <path
         d="m 115.50494,150.06775 q 0,0.29492 -0.2793,0.29492 -0.26758,0 -0.26758,-0.28369 v -0.42822 h 0.11621 v 0.40429 q 0,0.20606 0.16016,0.20606 0.1543,0 0.1543,-0.19873 v -0.41162 h 0.11621 z"
         style="font-style:normal;font-variant:normal;font-weight:bold;font-stretch:normal;font-size:1px;font-family:'Yu Gothic UI';-inkscape-font-specification:'Yu Gothic UI Bold';fill:#ece8e5;fill-opacity:1;stroke-width:0.0733241"
         id="path848" />
      <path
         d="m 116.2105,150.35095 h -0.13574 l -0.11182,-0.1875 q -0.0151,-0.0259 -0.0298,-0.0439 -0.0142,-0.0186 -0.0293,-0.0303 -0.0146,-0.0117 -0.0322,-0.0171 -0.0176,-0.005 -0.0396,-0.005 h -0.0469 v 0.28418 h -0.11572 v -0.70019 h 0.23047 q 0.0493,0 0.0908,0.0117 0.0415,0.0117 0.0723,0.0356 0.0308,0.0234 0.0478,0.0591 0.0176,0.0352 0.0176,0.0825 0,0.0371 -0.0112,0.0684 -0.0107,0.0308 -0.0312,0.0552 -0.02,0.0239 -0.0488,0.041 -0.0283,0.0171 -0.064,0.0264 v 0.002 q 0.019,0.0107 0.0332,0.0239 0.0142,0.0127 0.0269,0.0264 0.0127,0.0137 0.0249,0.0312 0.0127,0.0171 0.0278,0.04 z m -0.42529,-0.60595 v 0.22753 h 0.0967 q 0.0268,0 0.0493,-0.008 0.0229,-0.008 0.0396,-0.0239 0.0166,-0.0156 0.0259,-0.0381 0.009,-0.0225 0.009,-0.0503 0,-0.0503 -0.0317,-0.0786 -0.0317,-0.0283 -0.0913,-0.0283 z"
         style="font-style:normal;font-variant:normal;font-weight:bold;font-stretch:normal;font-size:1px;font-family:'Yu Gothic UI';-inkscape-font-specification:'Yu Gothic UI Bold';fill:#ece8e5;fill-opacity:1;stroke-width:0.0733241"
         id="path850" />
      <path
         d="m 116.86724,150.35095 h -0.12744 l -0.063,-0.17822 h -0.27539 l -0.0606,0.17822 h -0.12695 l 0.26221,-0.70019 h 0.13086 z m -0.22119,-0.27295 -0.0972,-0.27929 q -0.004,-0.0137 -0.009,-0.0439 h -0.002 q -0.004,0.0278 -0.01,0.0439 l -0.0962,0.27929 z"
         style="font-style:normal;font-variant:normal;font-weight:bold;font-stretch:normal;font-size:1px;font-family:'Yu Gothic UI';-inkscape-font-specification:'Yu Gothic UI Bold';fill:#ece8e5;fill-opacity:1;stroke-width:0.0733241"
         id="path852" />
      <path
         d="m 117.35113,150.35095 h -0.3877 v -0.70019 h 0.11621 v 0.60205 h 0.27149 z"
         style="font-style:normal;font-variant:normal;font-weight:bold;font-stretch:normal;font-size:1px;font-family:'Yu Gothic UI';-inkscape-font-specification:'Yu Gothic UI Bold';fill:#ece8e5;fill-opacity:1;stroke-width:0.0733241"
         id="path854" />
    </g>
  </g>
</svg>
