<?xml version="1.0" encoding="UTF-8" standalone="no"?>
<svg
   xmlns:dc="http://purl.org/dc/elements/1.1/"
   xmlns:cc="http://creativecommons.org/ns#"
   xmlns:rdf="http://www.w3.org/1999/02/22-rdf-syntax-ns#"
   xmlns:svg="http://www.w3.org/2000/svg"
   xmlns="http://www.w3.org/2000/svg"
   width="16.974783mm"
   height="16.057901mm"
   viewBox="0 0 16.974783 16.057901"
   version="1.1"
   id="svg10058">
  <defs
     id="defs10052" />
  <metadata
     id="metadata10055">
    <rdf:RDF>
      <cc:Work
         rdf:about="">
        <dc:format>image/svg+xml</dc:format>
        <dc:type
           rdf:resource="http://purl.org/dc/dcmitype/StillImage" />
        <dc:title />
      </cc:Work>
    </rdf:RDF>
  </metadata>
  <g
     id="layer1"
     transform="translate(-40.649509,-131.06628)">
    <path
       id="rect41388-0-0-7-8-5-1-6"
       style="fill:none;fill-opacity:1;stroke:none;stroke-width:0.05;stroke-miterlimit:10;stroke-dasharray:none;stroke-opacity:1;paint-order:markers fill stroke"
       d="m 40.678459,131.09523 h 16.916882 v 16 H 40.678459 Z" />
    <path
       style="fill:none;stroke:#ece8e5;stroke-width:0.1;stroke-linecap:butt;stroke-linejoin:miter;stroke-opacity:1;stroke-miterlimit:4;stroke-dasharray:none"
       d="m 41.649509,132.06628 v 14"
       id="path16817" />
    <path
       style="fill:none;stroke:#527b9b;stroke-width:0.265;stroke-linecap:butt;stroke-linejoin:miter;stroke-opacity:1;stroke-miterlimit:4;stroke-dasharray:none"
       d="m 42.649509,134.06628 h 14"
       id="path16819" />
    <g
       aria-label="CHORUS"
       id="text41512"
       style="font-style:normal;font-variant:normal;font-weight:bold;font-stretch:normal;font-size:1.6px;line-height:1.25;font-family:'Yu Gothic UI';-inkscape-font-specification:'Yu Gothic UI Bold';letter-spacing:0px;word-spacing:0px;fill:#ece8e5;fill-opacity:1;stroke-width:0.101;stroke-miterlimit:4;stroke-dasharray:none">
      <path
         d="m 43.760548,133.55803 q -0.124218,0.0656 -0.309375,0.0656 -0.239062,0 -0.382812,-0.1539 -0.14375,-0.15391 -0.14375,-0.40391 0,-0.26875 0.161719,-0.43437 0.161718,-0.16563 0.410156,-0.16563 0.159375,0 0.264062,0.0461 v 0.13984 q -0.120312,-0.0672 -0.265625,-0.0672 -0.192968,0 -0.313281,0.12891 -0.119531,0.1289 -0.119531,0.34453 0,0.20469 0.111719,0.32656 0.1125,0.1211 0.294531,0.1211 0.16875,0 0.292187,-0.075 z"
         style="font-style:normal;font-variant:normal;font-weight:normal;font-stretch:normal;font-size:1.6px;font-family:'Yu Gothic UI';-inkscape-font-specification:'Yu Gothic UI';fill:#ece8e5;fill-opacity:1;stroke-width:0.101;stroke-miterlimit:4;stroke-dasharray:none"
         id="path848" />
      <path
         d="m 44.830861,133.6049 h -0.13125 v -0.51093 h -0.579688 v 0.51093 h -0.13125 v -1.12031 h 0.13125 v 0.49141 h 0.579688 v -0.49141 h 0.13125 z"
         style="font-style:normal;font-variant:normal;font-weight:normal;font-stretch:normal;font-size:1.6px;font-family:'Yu Gothic UI';-inkscape-font-specification:'Yu Gothic UI';fill:#ece8e5;fill-opacity:1;stroke-width:0.101;stroke-miterlimit:4;stroke-dasharray:none"
         id="path850" />
      <path
         d="m 45.576174,133.62365 q -0.238282,0 -0.382032,-0.15703 -0.142969,-0.15703 -0.142969,-0.40859 0,-0.27031 0.146094,-0.43125 0.146094,-0.16094 0.397657,-0.16094 0.232031,0 0.373437,0.15625 0.142188,0.15625 0.142188,0.4086 0,0.27421 -0.145313,0.43359 -0.145312,0.15937 -0.389062,0.15937 z m 0.0094,-1.03906 q -0.176563,0 -0.286719,0.12735 -0.110157,0.12734 -0.110157,0.33437 0,0.20703 0.107032,0.33359 0.107812,0.12579 0.280469,0.12579 0.184375,0 0.290625,-0.12032 0.10625,-0.12031 0.10625,-0.33672 0,-0.22187 -0.103125,-0.34296 -0.103125,-0.1211 -0.284375,-0.1211 z"
         style="font-style:normal;font-variant:normal;font-weight:normal;font-stretch:normal;font-size:1.6px;font-family:'Yu Gothic UI';-inkscape-font-specification:'Yu Gothic UI';fill:#ece8e5;fill-opacity:1;stroke-width:0.101;stroke-miterlimit:4;stroke-dasharray:none"
         id="path852" />
      <path
         d="m 47.133986,133.6049 h -0.15625 l -0.1875,-0.31406 q -0.02578,-0.0438 -0.05,-0.0742 -0.02422,-0.0312 -0.05,-0.0508 -0.025,-0.0195 -0.05469,-0.0281 -0.02891,-0.009 -0.06562,-0.009 h -0.107813 v 0.47656 h -0.13125 v -1.12031 h 0.334375 q 0.07344,0 0.135156,0.0188 0.0625,0.018 0.107813,0.0555 0.04609,0.0375 0.07187,0.0937 0.02578,0.0555 0.02578,0.13047 0,0.0586 -0.01797,0.10781 -0.01719,0.0484 -0.05,0.0867 -0.03203,0.0383 -0.07813,0.0656 -0.04531,0.0266 -0.102343,0.0414 v 0.003 q 0.02813,0.0125 0.04844,0.0289 0.02109,0.0156 0.03984,0.0375 0.01875,0.0219 0.03672,0.05 0.01875,0.0274 0.04141,0.0641 z m -0.671875,-1.00156 v 0.40625 h 0.178125 q 0.04922,0 0.09062,-0.0148 0.04219,-0.0149 0.07266,-0.0422 0.03047,-0.0281 0.04766,-0.068 0.01719,-0.0406 0.01719,-0.0906 0,-0.0899 -0.05859,-0.13985 -0.05781,-0.0508 -0.167968,-0.0508 z"
         style="font-style:normal;font-variant:normal;font-weight:normal;font-stretch:normal;font-size:1.6px;font-family:'Yu Gothic UI';-inkscape-font-specification:'Yu Gothic UI';fill:#ece8e5;fill-opacity:1;stroke-width:0.101;stroke-miterlimit:4;stroke-dasharray:none"
         id="path854" />
      <path
         d="m 48.107424,133.15178 q 0,0.47187 -0.425782,0.47187 -0.407812,0 -0.407812,-0.4539 v -0.68516 h 0.13125 v 0.67656 q 0,0.34454 0.290625,0.34454 0.280469,0 0.280469,-0.33282 v -0.68828 h 0.13125 z"
         style="font-style:normal;font-variant:normal;font-weight:normal;font-stretch:normal;font-size:1.6px;font-family:'Yu Gothic UI';-inkscape-font-specification:'Yu Gothic UI';fill:#ece8e5;fill-opacity:1;stroke-width:0.101;stroke-miterlimit:4;stroke-dasharray:none"
         id="path856" />
      <path
         d="m 48.334768,133.55959 v -0.15469 q 0.02656,0.0234 0.06328,0.0422 0.0375,0.0187 0.07813,0.032 0.04141,0.0125 0.08281,0.0195 0.04141,0.007 0.07656,0.007 0.121094,0 0.180469,-0.0445 0.06016,-0.0453 0.06016,-0.12968 0,-0.0453 -0.02031,-0.0789 -0.01953,-0.0336 -0.05469,-0.0609 -0.03516,-0.0281 -0.08359,-0.0531 -0.04766,-0.0258 -0.103125,-0.0539 -0.05859,-0.0297 -0.109375,-0.0601 -0.05078,-0.0305 -0.08828,-0.0672 -0.0375,-0.0367 -0.05937,-0.0828 -0.02109,-0.0469 -0.02109,-0.10938 0,-0.0766 0.03359,-0.13281 0.03359,-0.057 0.08828,-0.0937 0.05469,-0.0367 0.124219,-0.0547 0.07031,-0.018 0.142969,-0.018 0.165625,0 0.241406,0.0399 v 0.14765 q -0.09922,-0.0687 -0.254688,-0.0687 -0.04297,0 -0.08594,0.009 -0.04297,0.009 -0.07656,0.0289 -0.03359,0.0203 -0.05469,0.0523 -0.02109,0.032 -0.02109,0.0781 0,0.043 0.01563,0.0742 0.01641,0.0312 0.04766,0.057 0.03125,0.0258 0.07578,0.05 0.04531,0.0242 0.103906,0.0531 0.06016,0.0297 0.114062,0.0625 0.05391,0.0328 0.09453,0.0727 0.04062,0.0399 0.06406,0.0883 0.02422,0.0484 0.02422,0.11094 0,0.0828 -0.03281,0.14063 -0.03203,0.057 -0.0875,0.093 -0.05469,0.0359 -0.126562,0.0516 -0.07187,0.0164 -0.151563,0.0164 -0.02656,0 -0.06563,-0.005 -0.03906,-0.004 -0.07969,-0.0125 -0.04062,-0.008 -0.07734,-0.0195 -0.03594,-0.0125 -0.05781,-0.0274 z"
         style="font-style:normal;font-variant:normal;font-weight:normal;font-stretch:normal;font-size:1.6px;font-family:'Yu Gothic UI';-inkscape-font-specification:'Yu Gothic UI';fill:#ece8e5;fill-opacity:1;stroke-width:0.101;stroke-miterlimit:4;stroke-dasharray:none"
         id="path858" />
    </g>
    <g
       aria-label="I"
       id="text41910-9"
       style="font-style:normal;font-variant:normal;font-weight:bold;font-stretch:normal;font-size:1px;line-height:1;font-family:'Yu Gothic UI';-inkscape-font-specification:'Yu Gothic UI Bold';letter-spacing:0px;word-spacing:0px;fill:#ece8e5;fill-opacity:1;stroke-width:0.0733241">
      <path
         d="m 45.384121,135.97435 h -0.119629 v -0.7002 h 0.119629 z"
         style="font-style:normal;font-variant:normal;font-weight:bold;font-stretch:normal;font-size:1px;font-family:'Yu Gothic UI';-inkscape-font-specification:'Yu Gothic UI Bold';fill:#ece8e5;fill-opacity:1;stroke-width:0.0733241"
         id="path845" />
    </g>
    <g
       aria-label="II"
       id="text41910-9-0"
       style="font-style:normal;font-variant:normal;font-weight:bold;font-stretch:normal;font-size:1px;line-height:1;font-family:'Yu Gothic UI';-inkscape-font-specification:'Yu Gothic UI Bold';letter-spacing:0px;word-spacing:0px;fill:#ece8e5;fill-opacity:1;stroke-width:0.0733241">
      <path
         d="m 51.953239,135.90298 h -0.119628 v -0.70019 h 0.119628 z"
         style="font-style:normal;font-variant:normal;font-weight:bold;font-stretch:normal;font-size:1px;font-family:'Yu Gothic UI';-inkscape-font-specification:'Yu Gothic UI Bold';fill:#ece8e5;fill-opacity:1;stroke-width:0.0733241"
         id="path840" />
      <path
         d="m 52.244743,135.90298 h -0.119629 v -0.70019 h 0.119629 z"
         style="font-style:normal;font-variant:normal;font-weight:bold;font-stretch:normal;font-size:1px;font-family:'Yu Gothic UI';-inkscape-font-specification:'Yu Gothic UI Bold';fill:#ece8e5;fill-opacity:1;stroke-width:0.0733241"
         id="path842" />
    </g>
  </g>
</svg>
