<?xml version="1.0" encoding="UTF-8" standalone="no"?>
<svg
   xmlns:dc="http://purl.org/dc/elements/1.1/"
   xmlns:cc="http://creativecommons.org/ns#"
   xmlns:rdf="http://www.w3.org/1999/02/22-rdf-syntax-ns#"
   xmlns:svg="http://www.w3.org/2000/svg"
   xmlns="http://www.w3.org/2000/svg"
   width="45.054131mm"
   height="28.054129mm"
   viewBox="0 0 45.054131 28.054129"
   version="1.1"
   id="svg20436">
  <defs
     id="defs20430" />
  <metadata
     id="metadata20433">
    <rdf:RDF>
      <cc:Work
         rdf:about="">
        <dc:format>image/svg+xml</dc:format>
        <dc:type
           rdf:resource="http://purl.org/dc/dcmitype/StillImage" />
        <dc:title />
      </cc:Work>
    </rdf:RDF>
  </metadata>
  <g
     id="layer1"
     transform="translate(-12.24674,-117.50865)">
    <path
       id="rect41388-0-0-7-8"
       style="fill:none;fill-opacity:1;stroke:none;stroke-width:0.05;stroke-miterlimit:10;stroke-dasharray:none;stroke-opacity:1;paint-order:markers fill stroke"
       d="m 12.273804,117.53571 h 45.000004 v 28.00001 H 12.273804 Z" />
    <g
       transform="matrix(0.24534544,0,0,0.24536075,-133.38873,107.87304)"
       id="g2779"
       style="fill:#ece8e5;fill-opacity:1">
      <g
         transform="translate(611.3051,127.1471)"
         id="g2777"
         style="fill:#ece8e5;fill-opacity:1">
        <path
           d="M 0,0 C 0.295,-0.017 0.566,-0.053 0.58,-0.384 H 0.778 V 1.959 H 0.5 V 0.199 H 0 Z"
           style="fill:#ece8e5;fill-opacity:1;fill-rule:nonzero;stroke:none"
           id="path2775" />
      </g>
    </g>
    <g
       transform="matrix(0.24534544,0,0,0.24536075,-133.38873,107.87304)"
       id="g2785"
       style="fill:#ece8e5;fill-opacity:1">
      <g
         transform="translate(612.5336,119.7291)"
         id="g2783"
         style="fill:#ece8e5;fill-opacity:1">
        <path
           d="m 0,0 h -1.312 c 0,-0.437 0.246,-0.735 0.507,-0.96 l 0.192,-0.162 c 0.189,-0.163 0.312,-0.305 0.312,-0.563 0,-0.202 -0.09,-0.42 -0.342,-0.42 -0.36,0 -0.37,0.374 -0.37,0.506 h -0.292 c 0,-0.443 0.186,-0.745 0.666,-0.745 0.542,0 0.629,0.421 0.629,0.626 0,0.357 -0.149,0.546 -0.411,0.771 l -0.331,0.288 c -0.129,0.109 -0.222,0.245 -0.255,0.401 H 0 Z"
           style="fill:#ece8e5;fill-opacity:1;fill-rule:nonzero;stroke:none"
           id="path2781" />
      </g>
    </g>
    <g
       transform="matrix(0.24534544,0,0,0.24536075,-133.38873,107.87304)"
       id="g2791"
       style="fill:#ece8e5;fill-opacity:1">
      <g
         transform="translate(611.4028,137.3033)"
         id="g2789"
         style="fill:#ece8e5;fill-opacity:1">
        <path
           d="M 0,0 C 0,0.546 0.054,0.99 0.457,0.99 0.861,0.99 0.914,0.546 0.914,0 0.914,-0.546 0.861,-0.99 0.457,-0.99 0.054,-0.99 0,-0.546 0,0 m 1.218,0 c 0,0.596 -0.109,1.228 -0.761,1.228 -0.652,0 -0.762,-0.632 -0.762,-1.228 0,-0.596 0.11,-1.228 0.762,-1.228 0.652,0 0.761,0.632 0.761,1.228"
           style="fill:#ece8e5;fill-opacity:1;fill-rule:nonzero;stroke:none"
           id="path2787" />
      </g>
    </g>
    <g
       transform="matrix(0.24534544,0,0,0.24536075,-133.38873,107.87304)"
       id="g2797"
       style="fill:#ece8e5;fill-opacity:1">
      <g
         transform="translate(613.0541,136.1212)"
         id="g2795"
         style="fill:#ece8e5;fill-opacity:1">
        <path
           d="M 0,0 H 1.221 V 0.259 H 0.291 V 1 H 1.168 V 1.258 H 0.291 V 2.364 H 0 Z"
           style="fill:#ece8e5;fill-opacity:1;fill-rule:nonzero;stroke:none"
           id="path2793" />
      </g>
    </g>
    <g
       transform="matrix(0.24534544,0,0,0.24536075,-133.38873,107.87304)"
       id="g2803"
       style="fill:#ece8e5;fill-opacity:1">
      <g
         transform="translate(614.6049,136.1212)"
         id="g2801"
         style="fill:#ece8e5;fill-opacity:1">
        <path
           d="M 0,0 H 1.222 V 0.259 H 0.292 V 1 H 1.169 V 1.258 H 0.292 V 2.364 H 0 Z"
           style="fill:#ece8e5;fill-opacity:1;fill-rule:nonzero;stroke:none"
           id="path2799" />
      </g>
    </g>
    <path
       id="rect41866-4-9-8-1-3-3-1"
       style="fill:#000000;fill-opacity:1;stroke:#000000;stroke-width:0.0421658;stroke-miterlimit:10;stroke-dasharray:none;stroke-opacity:1;paint-order:markers fill stroke"
       d="m 14.882762,125.02799 c 0.59772,0 1.078917,0.50555 1.078917,1.13352 v 3.15541 c 0,0.62797 -0.481197,1.13352 -1.078917,1.13352 -0.597721,0 -1.078918,-0.50555 -1.078918,-1.13352 v -3.15541 c 0,-0.62797 0.481197,-1.13352 1.078918,-1.13352 z" />
    <path
       id="rect41866-4-9-8-1-3-3-1-0"
       style="fill:#000000;fill-opacity:1;stroke:#000000;stroke-width:0.0421658;stroke-miterlimit:10;stroke-dasharray:none;stroke-opacity:1;paint-order:markers fill stroke"
       d="m 15.01919,136.62396 c 0.597721,0 1.078918,0.50555 1.078918,1.13352 v 3.15541 c 0,0.62797 -0.481197,1.13352 -1.078918,1.13352 -0.59772,0 -1.078917,-0.50555 -1.078917,-1.13352 v -3.15541 c 0,-0.62797 0.481197,-1.13352 1.078917,-1.13352 z" />
    <path
       id="rect41866-4-9-8-1-3-3-1-5"
       style="fill:#000000;fill-opacity:1;stroke:#000000;stroke-width:0.0421658;stroke-miterlimit:10;stroke-dasharray:none;stroke-opacity:1;paint-order:markers fill stroke"
       d="m 34.297694,125.04797 c 0.59772,0 1.078917,0.50555 1.078917,1.13352 v 3.15541 c 0,0.62797 -0.481197,1.13352 -1.078917,1.13352 -0.59772,0 -1.078917,-0.50555 -1.078917,-1.13352 v -3.15541 c 0,-0.62797 0.481197,-1.13352 1.078917,-1.13352 z" />
    <path
       id="rect41866-4-9-8-1-3-3-1-5-1"
       style="fill:#000000;fill-opacity:1;stroke:#000000;stroke-width:0.0421658;stroke-miterlimit:10;stroke-dasharray:none;stroke-opacity:1;paint-order:markers fill stroke"
       d="m 34.268855,136.5538 c 0.59772,0 1.078917,0.50555 1.078917,1.13352 v 3.15541 c 0,0.62797 -0.481197,1.13352 -1.078917,1.13352 -0.59772,0 -1.078917,-0.50555 -1.078917,-1.13352 v -3.15541 c 0,-0.62797 0.481197,-1.13352 1.078917,-1.13352 z" />
    <g
       aria-label="VCF"
       id="text41512"
       style="font-style:normal;font-variant:normal;font-weight:bold;font-stretch:normal;font-size:1.6px;line-height:1.25;font-family:'Yu Gothic UI';-inkscape-font-specification:'Yu Gothic UI Bold';letter-spacing:0px;word-spacing:0px;fill:#ece8e5;fill-opacity:1;stroke-width:0.101;stroke-miterlimit:4;stroke-dasharray:none">
      <path
         d="m 15.408957,118.90811 -0.414843,1.12031 h -0.144532 l -0.40625,-1.12031 h 0.146094 l 0.310156,0.88828 q 0.01484,0.043 0.02266,0.0992 h 0.0031 q 0.0062,-0.0469 0.02578,-0.10078 l 0.316406,-0.88672 z"
         style="font-style:normal;font-variant:normal;font-weight:normal;font-stretch:normal;font-size:1.6px;font-family:'Yu Gothic UI';-inkscape-font-specification:'Yu Gothic UI';fill:#ece8e5;fill-opacity:1;stroke-width:0.101;stroke-miterlimit:4;stroke-dasharray:none"
         id="path1052" />
      <path
         d="m 16.308176,119.98154 q -0.124219,0.0656 -0.309375,0.0656 -0.239062,0 -0.382812,-0.15391 -0.14375,-0.1539 -0.14375,-0.4039 0,-0.26875 0.161718,-0.43438 0.161719,-0.16562 0.410157,-0.16562 0.159375,0 0.264062,0.0461 v 0.13984 q -0.120312,-0.0672 -0.265625,-0.0672 -0.192969,0 -0.313281,0.1289 -0.119531,0.12891 -0.119531,0.34453 0,0.20469 0.111718,0.32657 0.1125,0.12109 0.294532,0.12109 0.16875,0 0.292187,-0.075 z"
         style="font-style:normal;font-variant:normal;font-weight:normal;font-stretch:normal;font-size:1.6px;font-family:'Yu Gothic UI';-inkscape-font-specification:'Yu Gothic UI';fill:#ece8e5;fill-opacity:1;stroke-width:0.101;stroke-miterlimit:4;stroke-dasharray:none"
         id="path1054" />
      <path
         d="m 17.105051,119.02686 h -0.4375 v 0.3875 h 0.404688 v 0.11797 h -0.404688 v 0.49609 h -0.13125 v -1.12031 h 0.56875 z"
         style="font-style:normal;font-variant:normal;font-weight:normal;font-stretch:normal;font-size:1.6px;font-family:'Yu Gothic UI';-inkscape-font-specification:'Yu Gothic UI';fill:#ece8e5;fill-opacity:1;stroke-width:0.101;stroke-miterlimit:4;stroke-dasharray:none"
         id="path1056" />
    </g>
    <path
       style="fill:none;stroke:#ece8e5;stroke-width:0.1;stroke-linecap:butt;stroke-linejoin:miter;stroke-opacity:1;stroke-miterlimit:4;stroke-dasharray:none"
       d="m 13.24674,118.50865 v 26"
       id="path6975" />
    <path
       style="fill:none;stroke:#fe5045;stroke-width:0.264583px;stroke-linecap:butt;stroke-linejoin:miter;stroke-opacity:1"
       d="M 14.24674,120.50865 H 56.246739"
       id="path6977" />
    <g
       aria-label="DRIVE"
       id="text41910-4"
       style="font-style:normal;font-variant:normal;font-weight:bold;font-stretch:normal;font-size:1px;line-height:1;font-family:'Yu Gothic UI';-inkscape-font-specification:'Yu Gothic UI Bold';letter-spacing:0px;word-spacing:0px;fill:#ece8e5;fill-opacity:1;stroke-width:0.0733241">
      <path
         d="m 13.873549,144.35062 v -0.7002 h 0.202148 q 0.387207,0 0.387207,0.34131 0,0.16211 -0.107422,0.26074 -0.107422,0.0982 -0.288086,0.0982 z m 0.115722,-0.60157 v 0.50342 h 0.09277 q 0.122558,0 0.190429,-0.0674 0.06836,-0.0674 0.06836,-0.19043 0,-0.24561 -0.254395,-0.24561 z"
         style="font-style:normal;font-variant:normal;font-weight:bold;font-stretch:normal;font-size:1px;font-family:'Yu Gothic UI';-inkscape-font-specification:'Yu Gothic UI Bold';fill:#ece8e5;fill-opacity:1;stroke-width:0.0733241"
         id="path1041" />
      <path
         d="m 15.131849,144.35062 h -0.135742 l -0.111816,-0.1875 q -0.01514,-0.0259 -0.02978,-0.0439 -0.01416,-0.0186 -0.0293,-0.0303 -0.01465,-0.0117 -0.03223,-0.0171 -0.01758,-0.005 -0.03955,-0.005 h -0.04687 v 0.28418 h -0.115722 v -0.7002 h 0.230468 q 0.04932,0 0.09082,0.0117 0.0415,0.0117 0.07226,0.0356 0.03076,0.0234 0.04785,0.0591 0.01758,0.0352 0.01758,0.0825 0,0.0371 -0.01123,0.0684 -0.01074,0.0308 -0.03125,0.0552 -0.02002,0.0239 -0.04883,0.041 -0.02832,0.0171 -0.06396,0.0264 v 0.002 q 0.01904,0.0107 0.0332,0.0239 0.01416,0.0127 0.02686,0.0264 0.0127,0.0137 0.0249,0.0312 0.01269,0.0171 0.02783,0.04 z m -0.425293,-0.60596 v 0.22754 h 0.09668 q 0.02685,0 0.04932,-0.008 0.02295,-0.008 0.03955,-0.0239 0.0166,-0.0156 0.02588,-0.0381 0.0093,-0.0225 0.0093,-0.0503 0,-0.0503 -0.03174,-0.0786 -0.03174,-0.0283 -0.09131,-0.0283 z"
         style="font-style:normal;font-variant:normal;font-weight:bold;font-stretch:normal;font-size:1px;font-family:'Yu Gothic UI';-inkscape-font-specification:'Yu Gothic UI Bold';fill:#ece8e5;fill-opacity:1;stroke-width:0.0733241"
         id="path1043" />
      <path
         d="m 15.332533,144.35062 h -0.119629 v -0.7002 h 0.119629 z"
         style="font-style:normal;font-variant:normal;font-weight:bold;font-stretch:normal;font-size:1px;font-family:'Yu Gothic UI';-inkscape-font-specification:'Yu Gothic UI Bold';fill:#ece8e5;fill-opacity:1;stroke-width:0.0733241"
         id="path1045" />
      <path
         d="m 16.053724,143.65042 -0.251465,0.7002 h -0.129882 l -0.247071,-0.7002 h 0.126953 l 0.172852,0.53125 q 0.0083,0.0254 0.0127,0.0591 h 0.002 q 0.0034,-0.0278 0.01416,-0.0601 l 0.176757,-0.53027 z"
         style="font-style:normal;font-variant:normal;font-weight:bold;font-stretch:normal;font-size:1px;font-family:'Yu Gothic UI';-inkscape-font-specification:'Yu Gothic UI Bold';fill:#ece8e5;fill-opacity:1;stroke-width:0.0733241"
         id="path1047" />
      <path
         d="m 16.539564,144.35062 h -0.393066 v -0.7002 h 0.377441 v 0.0986 h -0.26123 v 0.19825 h 0.240722 v 0.0981 h -0.240722 v 0.20703 h 0.276855 z"
         style="font-style:normal;font-variant:normal;font-weight:bold;font-stretch:normal;font-size:1px;font-family:'Yu Gothic UI';-inkscape-font-specification:'Yu Gothic UI Bold';fill:#ece8e5;fill-opacity:1;stroke-width:0.0733241"
         id="path1049" />
    </g>
    <g
       aria-label="FREQ"
       id="text41910-4-2"
       style="font-style:normal;font-variant:normal;font-weight:bold;font-stretch:normal;font-size:1px;line-height:1;font-family:'Yu Gothic UI';-inkscape-font-specification:'Yu Gothic UI Bold';letter-spacing:0px;word-spacing:0px;fill:#ece8e5;fill-opacity:1;stroke-width:0.0733241">
      <path
         d="m 21.483076,143.74677 h -0.261719 v 0.21044 h 0.241211 v 0.0982 h -0.241211 v 0.29297 h -0.116211 v -0.7002 h 0.37793 z"
         style="font-style:normal;font-variant:normal;font-weight:bold;font-stretch:normal;font-size:1px;font-family:'Yu Gothic UI';-inkscape-font-specification:'Yu Gothic UI Bold';fill:#ece8e5;fill-opacity:1;stroke-width:0.0733241"
         id="path1032" />
      <path
         d="m 22.148603,144.34833 h -0.135742 l -0.111816,-0.1875 q -0.01514,-0.0259 -0.02979,-0.0439 -0.01416,-0.0186 -0.0293,-0.0303 -0.01465,-0.0117 -0.03223,-0.0171 -0.01758,-0.005 -0.03955,-0.005 h -0.04687 v 0.28418 h -0.115722 v -0.7002 h 0.230469 q 0.04932,0 0.09082,0.0117 0.0415,0.0117 0.07227,0.0357 0.03076,0.0234 0.04785,0.0591 0.01758,0.0351 0.01758,0.0825 0,0.0371 -0.01123,0.0684 -0.01074,0.0308 -0.03125,0.0552 -0.02002,0.0239 -0.04883,0.041 -0.02832,0.0171 -0.06396,0.0264 v 0.002 q 0.01904,0.0107 0.0332,0.0239 0.01416,0.0127 0.02686,0.0264 0.0127,0.0137 0.0249,0.0312 0.0127,0.0171 0.02783,0.04 z m -0.425293,-0.60596 v 0.22754 h 0.09668 q 0.02686,0 0.04932,-0.008 0.02295,-0.008 0.03955,-0.0239 0.0166,-0.0156 0.02588,-0.0381 0.0093,-0.0225 0.0093,-0.0503 0,-0.0503 -0.03174,-0.0786 -0.03174,-0.0283 -0.09131,-0.0283 z"
         style="font-style:normal;font-variant:normal;font-weight:bold;font-stretch:normal;font-size:1px;font-family:'Yu Gothic UI';-inkscape-font-specification:'Yu Gothic UI Bold';fill:#ece8e5;fill-opacity:1;stroke-width:0.0733241"
         id="path1034" />
      <path
         d="m 22.623213,144.34833 h -0.393067 v -0.7002 h 0.377442 v 0.0986 h -0.261231 v 0.19824 h 0.240723 v 0.0981 h -0.240723 v 0.20703 h 0.276856 z"
         style="font-style:normal;font-variant:normal;font-weight:bold;font-stretch:normal;font-size:1px;font-family:'Yu Gothic UI';-inkscape-font-specification:'Yu Gothic UI Bold';fill:#ece8e5;fill-opacity:1;stroke-width:0.0733241"
         id="path1036" />
      <path
         d="m 23.036299,144.36005 q -0.07568,0 -0.137207,-0.0259 -0.06152,-0.0259 -0.104981,-0.0723 -0.04346,-0.0469 -0.06738,-0.11181 -0.02393,-0.065 -0.02393,-0.14356 0,-0.084 0.02393,-0.15234 0.02441,-0.0684 0.06885,-0.1167 0.04492,-0.0483 0.108887,-0.0747 0.06396,-0.0264 0.143066,-0.0264 0.07324,0 0.133789,0.0259 0.06055,0.0259 0.103516,0.0728 0.04297,0.0464 0.06641,0.11132 0.02393,0.0649 0.02393,0.14307 0,0.10352 -0.03467,0.18164 -0.03467,0.0776 -0.09766,0.125 l 0.203125,0.14649 h -0.176758 l -0.125,-0.0972 q -0.0249,0.007 -0.05176,0.0107 -0.02686,0.004 -0.05615,0.004 z m 0.0054,-0.62159 q -0.04785,0 -0.08789,0.019 -0.03955,0.0186 -0.06836,0.0532 -0.02881,0.0342 -0.04492,0.082 -0.01563,0.0478 -0.01563,0.10645 0,0.0581 0.01514,0.10595 0.01563,0.0479 0.04346,0.082 0.02783,0.0337 0.06689,0.0527 0.03906,0.0186 0.08643,0.0186 0.05029,0 0.09033,-0.0176 0.04004,-0.0176 0.06787,-0.0503 0.02832,-0.0332 0.04346,-0.0811 0.01514,-0.0478 0.01514,-0.10889 0,-0.0625 -0.01465,-0.11133 -0.01465,-0.0488 -0.04199,-0.082 -0.02734,-0.0337 -0.06689,-0.0513 -0.03906,-0.0176 -0.08838,-0.0176 z"
         style="font-style:normal;font-variant:normal;font-weight:bold;font-stretch:normal;font-size:1px;font-family:'Yu Gothic UI';-inkscape-font-specification:'Yu Gothic UI Bold';fill:#ece8e5;fill-opacity:1;stroke-width:0.0733241"
         id="path1038" />
    </g>
    <g
       aria-label="RES"
       id="text41910-4-2-8"
       style="font-style:normal;font-variant:normal;font-weight:bold;font-stretch:normal;font-size:1px;line-height:1;font-family:'Yu Gothic UI';-inkscape-font-specification:'Yu Gothic UI Bold';letter-spacing:0px;word-spacing:0px;fill:#ece8e5;fill-opacity:1;stroke-width:0.0733241">
      <path
         d="m 26.946844,144.41309 h -0.135742 l -0.111816,-0.1875 q -0.01514,-0.0259 -0.02979,-0.044 -0.01416,-0.0185 -0.0293,-0.0303 -0.01465,-0.0117 -0.03223,-0.0171 -0.01758,-0.005 -0.03955,-0.005 h -0.04687 v 0.28418 h -0.115723 v -0.7002 h 0.230469 q 0.04932,0 0.09082,0.0117 0.0415,0.0117 0.07226,0.0356 0.03076,0.0234 0.04785,0.0591 0.01758,0.0351 0.01758,0.0825 0,0.0371 -0.01123,0.0684 -0.01074,0.0308 -0.03125,0.0552 -0.02002,0.0239 -0.04883,0.041 -0.02832,0.0171 -0.06396,0.0264 v 0.002 q 0.01904,0.0107 0.0332,0.0239 0.01416,0.0127 0.02685,0.0264 0.0127,0.0137 0.0249,0.0312 0.0127,0.0171 0.02783,0.04 z m -0.425293,-0.60596 v 0.22754 h 0.09668 q 0.02685,0 0.04932,-0.008 0.02295,-0.008 0.03955,-0.0239 0.0166,-0.0156 0.02588,-0.0381 0.0093,-0.0225 0.0093,-0.0503 0,-0.0503 -0.03174,-0.0786 -0.03174,-0.0283 -0.09131,-0.0283 z"
         style="font-style:normal;font-variant:normal;font-weight:bold;font-stretch:normal;font-size:1px;font-family:'Yu Gothic UI';-inkscape-font-specification:'Yu Gothic UI Bold';fill:#ece8e5;fill-opacity:1;stroke-width:0.0733241"
         id="path1025" />
      <path
         d="m 27.421453,144.41309 h -0.393066 v -0.7002 h 0.377441 v 0.0986 h -0.26123 v 0.19825 h 0.240723 v 0.0981 h -0.240723 v 0.20703 h 0.276855 z"
         style="font-style:normal;font-variant:normal;font-weight:bold;font-stretch:normal;font-size:1px;font-family:'Yu Gothic UI';-inkscape-font-specification:'Yu Gothic UI Bold';fill:#ece8e5;fill-opacity:1;stroke-width:0.0733241"
         id="path1027" />
      <path
         d="m 27.513739,144.38525 v -0.11963 q 0.01611,0.0146 0.03809,0.0264 0.02246,0.0117 0.04736,0.02 0.0249,0.008 0.0498,0.0122 0.0249,0.004 0.0459,0.004 0.07324,0 0.108887,-0.0244 0.03613,-0.0244 0.03613,-0.0708 0,-0.0249 -0.01221,-0.043 -0.01172,-0.0186 -0.0332,-0.0337 -0.02148,-0.0151 -0.05078,-0.0288 -0.02881,-0.0142 -0.06201,-0.0293 -0.03564,-0.019 -0.06641,-0.0386 -0.03076,-0.0195 -0.05371,-0.043 -0.02246,-0.0239 -0.03564,-0.0537 -0.0127,-0.0298 -0.0127,-0.0698 0,-0.0493 0.02197,-0.0854 0.02246,-0.0366 0.05859,-0.0601 0.03662,-0.0239 0.08301,-0.0352 0.04639,-0.0117 0.09473,-0.0117 0.109863,0 0.160156,0.0249 v 0.11475 q -0.05957,-0.043 -0.15332,-0.043 -0.02588,0 -0.05176,0.005 -0.02539,0.005 -0.0459,0.0161 -0.02002,0.0112 -0.03272,0.0288 -0.01269,0.0176 -0.01269,0.0425 0,0.0234 0.0098,0.0405 0.0098,0.0171 0.02832,0.0312 0.01904,0.0142 0.0459,0.0278 0.02734,0.0132 0.06299,0.0288 0.03662,0.019 0.06885,0.04 0.03272,0.021 0.05713,0.0464 0.0249,0.0254 0.03906,0.0566 0.01465,0.0308 0.01465,0.0703 0,0.0532 -0.02149,0.0898 -0.02148,0.0366 -0.05811,0.0596 -0.03613,0.023 -0.0835,0.0332 -0.04736,0.0103 -0.100098,0.0103 -0.01758,0 -0.04346,-0.003 -0.02539,-0.002 -0.05225,-0.008 -0.02685,-0.005 -0.05078,-0.0122 -0.02393,-0.007 -0.03857,-0.0166 z"
         style="font-style:normal;font-variant:normal;font-weight:bold;font-stretch:normal;font-size:1px;font-family:'Yu Gothic UI';-inkscape-font-specification:'Yu Gothic UI Bold';fill:#ece8e5;fill-opacity:1;stroke-width:0.0733241"
         id="path1029" />
    </g>
    <g
       aria-label="KEYTRACK"
       id="text41910-4-2-8-0"
       style="font-style:normal;font-variant:normal;font-weight:bold;font-stretch:normal;font-size:1px;line-height:1;font-family:'Yu Gothic UI';-inkscape-font-specification:'Yu Gothic UI Bold';letter-spacing:0px;word-spacing:0px;fill:#ece8e5;fill-opacity:1;stroke-width:0.0733241">
      <path
         d="m 32.472404,144.41075 h -0.151367 l -0.243652,-0.32031 q -0.01367,-0.0181 -0.0166,-0.0244 h -0.002 v 0.34473 h -0.116211 v -0.70019 h 0.116211 v 0.3291 h 0.002 q 0.0059,-0.0107 0.0166,-0.0239 l 0.234863,-0.30517 h 0.13916 l -0.274902,0.33593 z"
         style="font-style:normal;font-variant:normal;font-weight:bold;font-stretch:normal;font-size:1px;font-family:'Yu Gothic UI';-inkscape-font-specification:'Yu Gothic UI Bold';fill:#ece8e5;fill-opacity:1;stroke-width:0.0733241"
         id="path1008" />
      <path
         d="m 32.946526,144.41075 h -0.393067 v -0.70019 h 0.377442 v 0.0986 H 32.66967 v 0.19824 h 0.240723 v 0.0982 H 32.66967 v 0.20703 h 0.276856 z"
         style="font-style:normal;font-variant:normal;font-weight:bold;font-stretch:normal;font-size:1px;font-family:'Yu Gothic UI';-inkscape-font-specification:'Yu Gothic UI Bold';fill:#ece8e5;fill-opacity:1;stroke-width:0.0733241"
         id="path1010" />
      <path
         d="m 33.55883,143.71056 -0.229492,0.4458 v 0.25439 h -0.116211 v -0.25195 l -0.223633,-0.44824 h 0.132325 l 0.137695,0.30029 q 0.0024,0.005 0.01465,0.0405 h 0.0015 q 0.0044,-0.0156 0.01611,-0.0405 l 0.144043,-0.30029 z"
         style="font-style:normal;font-variant:normal;font-weight:bold;font-stretch:normal;font-size:1px;font-family:'Yu Gothic UI';-inkscape-font-specification:'Yu Gothic UI Bold';fill:#ece8e5;fill-opacity:1;stroke-width:0.0733241"
         id="path1012" />
      <path
         d="m 34.097404,143.80919 h -0.201171 v 0.60156 h -0.116211 v -0.60156 h -0.200684 v -0.0986 h 0.518066 z"
         style="font-style:normal;font-variant:normal;font-weight:bold;font-stretch:normal;font-size:1px;font-family:'Yu Gothic UI';-inkscape-font-specification:'Yu Gothic UI Bold';fill:#ece8e5;fill-opacity:1;stroke-width:0.0733241"
         id="path1014" />
      <path
         d="m 34.740959,144.41075 h -0.135742 l -0.111816,-0.1875 q -0.01514,-0.0259 -0.02979,-0.0439 -0.01416,-0.0186 -0.0293,-0.0303 -0.01465,-0.0117 -0.03223,-0.0171 -0.01758,-0.005 -0.03955,-0.005 h -0.04687 v 0.28418 h -0.115722 v -0.70019 h 0.230468 q 0.04932,0 0.09082,0.0117 0.0415,0.0117 0.07226,0.0357 0.03076,0.0234 0.04785,0.0591 0.01758,0.0352 0.01758,0.0825 0,0.0371 -0.01123,0.0684 -0.01074,0.0308 -0.03125,0.0552 -0.02002,0.0239 -0.04883,0.041 -0.02832,0.0171 -0.06397,0.0264 v 0.002 q 0.01904,0.0107 0.0332,0.0239 0.01416,0.0127 0.02685,0.0264 0.0127,0.0137 0.0249,0.0312 0.0127,0.0171 0.02783,0.04 z m -0.425293,-0.60596 v 0.22754 h 0.09668 q 0.02685,0 0.04932,-0.008 0.02295,-0.008 0.03955,-0.0239 0.0166,-0.0156 0.02588,-0.0381 0.0093,-0.0225 0.0093,-0.0503 0,-0.0503 -0.03174,-0.0786 -0.03174,-0.0283 -0.09131,-0.0283 z"
         style="font-style:normal;font-variant:normal;font-weight:bold;font-stretch:normal;font-size:1px;font-family:'Yu Gothic UI';-inkscape-font-specification:'Yu Gothic UI Bold';fill:#ece8e5;fill-opacity:1;stroke-width:0.0733241"
         id="path1016" />
      <path
         d="m 35.397697,144.41075 h -0.127441 l -0.06299,-0.17822 h -0.275391 l -0.06055,0.17822 h -0.126953 l 0.262207,-0.70019 h 0.13086 z m -0.221191,-0.27295 -0.09717,-0.27929 q -0.0044,-0.0137 -0.0093,-0.0439 h -0.002 q -0.0044,0.0278 -0.0098,0.0439 l -0.09619,0.27929 z"
         style="font-style:normal;font-variant:normal;font-weight:bold;font-stretch:normal;font-size:1px;font-family:'Yu Gothic UI';-inkscape-font-specification:'Yu Gothic UI Bold';fill:#ece8e5;fill-opacity:1;stroke-width:0.0733241"
         id="path1018" />
      <path
         d="m 35.967033,144.38145 q -0.0791,0.041 -0.196777,0.041 -0.152344,0 -0.244141,-0.0962 -0.0918,-0.0962 -0.0918,-0.25244 0,-0.16797 0.103027,-0.27149 0.103516,-0.10351 0.26123,-0.10351 0.101563,0 0.168457,0.0288 v 0.11523 q -0.0708,-0.042 -0.15625,-0.042 -0.113769,0 -0.18457,0.0727 -0.07031,0.0728 -0.07031,0.19434 0,0.11572 0.06592,0.18457 0.06592,0.0684 0.173339,0.0684 0.09912,0 0.171875,-0.0469 z"
         style="font-style:normal;font-variant:normal;font-weight:bold;font-stretch:normal;font-size:1px;font-family:'Yu Gothic UI';-inkscape-font-specification:'Yu Gothic UI Bold';fill:#ece8e5;fill-opacity:1;stroke-width:0.0733241"
         id="path1020" />
      <path
         d="m 36.629631,144.41075 h -0.151367 l -0.243652,-0.32031 q -0.01367,-0.0181 -0.0166,-0.0244 h -0.002 v 0.34473 h -0.116211 v -0.70019 h 0.116211 v 0.3291 h 0.002 q 0.0059,-0.0107 0.0166,-0.0239 l 0.234863,-0.30517 h 0.13916 l -0.274902,0.33593 z"
         style="font-style:normal;font-variant:normal;font-weight:bold;font-stretch:normal;font-size:1px;font-family:'Yu Gothic UI';-inkscape-font-specification:'Yu Gothic UI Bold';fill:#ece8e5;fill-opacity:1;stroke-width:0.0733241"
         id="path1022" />
    </g>
    <g
       aria-label="ENV"
       id="text41910-4-2-8-0-5"
       style="font-style:normal;font-variant:normal;font-weight:bold;font-stretch:normal;font-size:1px;line-height:1;font-family:'Yu Gothic UI';-inkscape-font-specification:'Yu Gothic UI Bold';letter-spacing:0px;word-spacing:0px;fill:#ece8e5;fill-opacity:1;stroke-width:0.0733241">
      <path
         d="m 42.010643,144.37511 h -0.393066 v -0.7002 h 0.377441 v 0.0986 h -0.26123 v 0.19825 h 0.240722 v 0.0981 h -0.240722 v 0.20703 h 0.276855 z"
         style="font-style:normal;font-variant:normal;font-weight:bold;font-stretch:normal;font-size:1px;font-family:'Yu Gothic UI';-inkscape-font-specification:'Yu Gothic UI Bold';fill:#ece8e5;fill-opacity:1;stroke-width:0.0733241"
         id="path1001" />
      <path
         d="m 42.728905,144.37511 h -0.126953 l -0.334473,-0.51465 q -0.0127,-0.0195 -0.021,-0.0405 h -0.0029 q 0.0039,0.0225 0.0039,0.0962 v 0.45899 h -0.112304 v -0.7002 h 0.135254 l 0.323242,0.50244 q 0.02051,0.0312 0.02637,0.043 h 0.002 q -0.0049,-0.0278 -0.0049,-0.0942 v -0.45117 h 0.111817 z"
         style="font-style:normal;font-variant:normal;font-weight:bold;font-stretch:normal;font-size:1px;font-family:'Yu Gothic UI';-inkscape-font-specification:'Yu Gothic UI Bold';fill:#ece8e5;fill-opacity:1;stroke-width:0.0733241"
         id="path1003" />
      <path
         d="m 43.451073,143.67491 -0.251465,0.7002 h -0.129883 l -0.24707,-0.7002 h 0.126953 l 0.172851,0.53125 q 0.0083,0.0254 0.0127,0.0591 h 0.002 q 0.0034,-0.0278 0.01416,-0.0601 l 0.176758,-0.53027 z"
         style="font-style:normal;font-variant:normal;font-weight:bold;font-stretch:normal;font-size:1px;font-family:'Yu Gothic UI';-inkscape-font-specification:'Yu Gothic UI Bold';fill:#ece8e5;fill-opacity:1;stroke-width:0.0733241"
         id="path1005" />
    </g>
    <g
       aria-label="LFO 1"
       id="text41910-4-2-8-0-5-1"
       style="font-style:normal;font-variant:normal;font-weight:bold;font-stretch:normal;font-size:1px;line-height:1;font-family:'Yu Gothic UI';-inkscape-font-specification:'Yu Gothic UI Bold';letter-spacing:0px;word-spacing:0px;fill:#ece8e5;fill-opacity:1;stroke-width:0.0733241">
      <path
         d="M 46.811615,144.40396 H 46.42392 v -0.70019 h 0.116211 v 0.60205 h 0.271484 z"
         style="font-style:normal;font-variant:normal;font-weight:bold;font-stretch:normal;font-size:1px;font-family:'Yu Gothic UI';-inkscape-font-specification:'Yu Gothic UI Bold';fill:#ece8e5;fill-opacity:1;stroke-width:0.0733241"
         id="path992" />
      <path
         d="M 47.290619,143.8024 H 47.0289 v 0.21045 h 0.241211 v 0.0981 H 47.0289 v 0.29297 h -0.116211 v -0.70019 h 0.37793 z"
         style="font-style:normal;font-variant:normal;font-weight:bold;font-stretch:normal;font-size:1px;font-family:'Yu Gothic UI';-inkscape-font-specification:'Yu Gothic UI Bold';fill:#ece8e5;fill-opacity:1;stroke-width:0.0733241"
         id="path994" />
      <path
         d="m 47.693939,144.41568 q -0.151367,0 -0.242676,-0.0981 -0.09082,-0.0982 -0.09082,-0.25538 0,-0.16894 0.09277,-0.26953 0.09277,-0.10058 0.251953,-0.10058 0.147461,0 0.237304,0.0977 0.09033,0.0977 0.09033,0.25537 0,0.17139 -0.09229,0.271 -0.09228,0.0996 -0.246582,0.0996 z m 0.0054,-0.62158 q -0.09619,0 -0.156738,0.0718 -0.06006,0.0718 -0.06006,0.18896 0,0.1167 0.05859,0.18799 0.05859,0.0713 0.15332,0.0713 0.100586,0 0.158692,-0.0679 0.0581,-0.0679 0.0581,-0.18995 0,-0.12548 -0.05664,-0.19384 -0.05615,-0.0684 -0.155274,-0.0684 z"
         style="font-style:normal;font-variant:normal;font-weight:bold;font-stretch:normal;font-size:1px;font-family:'Yu Gothic UI';-inkscape-font-specification:'Yu Gothic UI Bold';fill:#ece8e5;fill-opacity:1;stroke-width:0.0733241"
         id="path996" />
      <path
         d="m 48.649994,143.68814 v 0.71582 h -0.113281 v -0.57715 q -0.03076,0.022 -0.06641,0.0376 -0.03516,0.0151 -0.08057,0.0269 v -0.0967 q 0.02832,-0.009 0.05469,-0.0195 0.02637,-0.0102 0.05176,-0.0229 0.02588,-0.0127 0.05176,-0.0283 0.02637,-0.0156 0.0542,-0.0357 z"
         style="font-style:normal;font-variant:normal;font-weight:bold;font-stretch:normal;font-size:1px;font-family:'Yu Gothic UI';-inkscape-font-specification:'Yu Gothic UI Bold';fill:#ece8e5;fill-opacity:1;stroke-width:0.0733241"
         id="path998" />
    </g>
    <g
       aria-label="DDS 2"
       id="text41910-4-2-8-0-5-1-4"
       style="font-style:normal;font-variant:normal;font-weight:bold;font-stretch:normal;font-size:1px;line-height:1;font-family:'Yu Gothic UI';-inkscape-font-specification:'Yu Gothic UI Bold';letter-spacing:0px;word-spacing:0px;fill:#ece8e5;fill-opacity:1;stroke-width:0.0733241">
      <path
         d="m 51.096615,144.37056 v -0.7002 h 0.202148 q 0.387207,0 0.387207,0.34131 0,0.16211 -0.107422,0.26075 -0.107421,0.0981 -0.288086,0.0981 z m 0.115722,-0.60156 v 0.50342 h 0.09277 q 0.122559,0 0.19043,-0.0674 0.06836,-0.0674 0.06836,-0.19043 0,-0.2456 -0.254395,-0.2456 z"
         style="font-style:normal;font-variant:normal;font-weight:bold;font-stretch:normal;font-size:1px;font-family:'Yu Gothic UI';-inkscape-font-specification:'Yu Gothic UI Bold';fill:#ece8e5;fill-opacity:1;stroke-width:0.0733241"
         id="path983" />
      <path
         d="m 51.8139,144.37056 v -0.7002 h 0.202148 q 0.387207,0 0.387207,0.34131 0,0.16211 -0.107421,0.26075 -0.107422,0.0981 -0.288086,0.0981 z m 0.115723,-0.60156 v 0.50342 h 0.09277 q 0.122559,0 0.19043,-0.0674 0.06836,-0.0674 0.06836,-0.19043 0,-0.2456 -0.254394,-0.2456 z"
         style="font-style:normal;font-variant:normal;font-weight:bold;font-stretch:normal;font-size:1px;font-family:'Yu Gothic UI';-inkscape-font-specification:'Yu Gothic UI Bold';fill:#ece8e5;fill-opacity:1;stroke-width:0.0733241"
         id="path985" />
      <path
         d="m 52.498959,144.34273 v -0.11963 q 0.01611,0.0147 0.03809,0.0264 0.02246,0.0117 0.04736,0.02 0.0249,0.008 0.0498,0.0122 0.0249,0.004 0.0459,0.004 0.07324,0 0.108887,-0.0244 0.03613,-0.0244 0.03613,-0.0708 0,-0.0249 -0.01221,-0.043 -0.01172,-0.0186 -0.0332,-0.0337 -0.02148,-0.0151 -0.05078,-0.0288 -0.02881,-0.0142 -0.06201,-0.0293 -0.03564,-0.019 -0.06641,-0.0386 -0.03076,-0.0195 -0.05371,-0.043 -0.02246,-0.0239 -0.03564,-0.0537 -0.0127,-0.0298 -0.0127,-0.0698 0,-0.0493 0.02197,-0.0855 0.02246,-0.0366 0.05859,-0.0601 0.03662,-0.0239 0.08301,-0.0352 0.04639,-0.0117 0.09473,-0.0117 0.109863,0 0.160156,0.0249 v 0.11474 q -0.05957,-0.043 -0.15332,-0.043 -0.02588,0 -0.05176,0.005 -0.02539,0.005 -0.0459,0.0161 -0.02002,0.0112 -0.03272,0.0288 -0.01269,0.0176 -0.01269,0.0425 0,0.0234 0.0098,0.0405 0.0098,0.0171 0.02832,0.0312 0.01904,0.0142 0.0459,0.0278 0.02734,0.0132 0.06299,0.0288 0.03662,0.019 0.06885,0.04 0.03272,0.021 0.05713,0.0464 0.0249,0.0254 0.03906,0.0566 0.01465,0.0308 0.01465,0.0703 0,0.0532 -0.02148,0.0898 -0.02148,0.0366 -0.05811,0.0596 -0.03613,0.023 -0.0835,0.0332 -0.04736,0.0103 -0.100098,0.0103 -0.01758,0 -0.04346,-0.003 -0.02539,-0.002 -0.05225,-0.008 -0.02685,-0.005 -0.05078,-0.0122 -0.02393,-0.007 -0.03857,-0.0166 z"
         style="font-style:normal;font-variant:normal;font-weight:bold;font-stretch:normal;font-size:1px;font-family:'Yu Gothic UI';-inkscape-font-specification:'Yu Gothic UI Bold';fill:#ece8e5;fill-opacity:1;stroke-width:0.0733241"
         id="path987" />
      <path
         d="m 53.7514,144.37056 h -0.439453 v -0.0542 q 0,-0.0332 0.0093,-0.062 0.0093,-0.0293 0.0249,-0.0547 0.01563,-0.0259 0.03662,-0.0483 0.021,-0.023 0.04492,-0.0439 0.02392,-0.0215 0.04883,-0.041 0.0249,-0.02 0.04883,-0.04 0.02246,-0.019 0.04102,-0.0371 0.01855,-0.0186 0.03174,-0.0381 0.01318,-0.0195 0.02051,-0.041 0.0073,-0.022 0.0073,-0.0474 0,-0.0278 -0.0088,-0.0483 -0.0083,-0.021 -0.02393,-0.0347 -0.01514,-0.0142 -0.03613,-0.021 -0.021,-0.007 -0.0459,-0.007 -0.04297,0 -0.0874,0.02 -0.04443,0.02 -0.08545,0.0601 v -0.10889 q 0.02148,-0.0161 0.04346,-0.0278 0.02197,-0.0122 0.04541,-0.02 0.02344,-0.008 0.04932,-0.0122 0.02588,-0.004 0.05517,-0.004 0.04736,0 0.08594,0.0127 0.03857,0.0122 0.06592,0.0366 0.02734,0.0239 0.04199,0.0601 0.01514,0.0361 0.01514,0.083 0,0.0425 -0.01074,0.0767 -0.01025,0.0337 -0.02979,0.063 -0.01904,0.0293 -0.04639,0.0557 -0.02734,0.0264 -0.06104,0.0542 -0.02832,0.023 -0.05664,0.0449 -0.02783,0.0215 -0.05029,0.0425 -0.02246,0.0205 -0.03662,0.0415 -0.01367,0.0205 -0.01367,0.0415 v 0.002 H 53.7514 Z"
         style="font-style:normal;font-variant:normal;font-weight:bold;font-stretch:normal;font-size:1px;font-family:'Yu Gothic UI';-inkscape-font-specification:'Yu Gothic UI Bold';fill:#ece8e5;fill-opacity:1;stroke-width:0.0733241"
         id="path989" />
    </g>
    <g
       aria-label="HPF"
       id="text41910-4-3"
       style="font-style:normal;font-variant:normal;font-weight:bold;font-stretch:normal;font-size:1px;line-height:1;font-family:'Yu Gothic UI';-inkscape-font-specification:'Yu Gothic UI Bold';letter-spacing:0px;word-spacing:0px;fill:#ece8e5;fill-opacity:1;stroke-width:0.0733241">
      <path
         d="M 14.689759,132.35692 H 14.57306 v -0.30371 h -0.32959 v 0.30371 h -0.116211 v -0.7002 h 0.116211 v 0.29444 h 0.32959 v -0.29444 h 0.116699 z"
         style="font-style:normal;font-variant:normal;font-weight:bold;font-stretch:normal;font-size:1px;font-family:'Yu Gothic UI';-inkscape-font-specification:'Yu Gothic UI Bold';fill:#ece8e5;fill-opacity:1;stroke-width:0.0733241"
         id="path976" />
      <path
         d="m 14.978333,132.10301 v 0.25391 h -0.115722 v -0.7002 h 0.212402 q 0.120606,0 0.187012,0.0562 0.06641,0.0561 0.06641,0.1582 0,0.10205 -0.06934,0.16699 -0.06934,0.0649 -0.1875,0.0649 z m 0,-0.35058 v 0.25586 h 0.0752 q 0.07471,0 0.113769,-0.0347 0.03906,-0.0347 0.03906,-0.0977 0,-0.12353 -0.143555,-0.12353 z"
         style="font-style:normal;font-variant:normal;font-weight:bold;font-stretch:normal;font-size:1px;font-family:'Yu Gothic UI';-inkscape-font-specification:'Yu Gothic UI Bold';fill:#ece8e5;fill-opacity:1;stroke-width:0.0733241"
         id="path978" />
      <path
         d="m 15.825013,131.75536 h -0.261719 v 0.21045 h 0.241211 v 0.0981 h -0.241211 v 0.29297 h -0.116211 v -0.7002 h 0.37793 z"
         style="font-style:normal;font-variant:normal;font-weight:bold;font-stretch:normal;font-size:1px;font-family:'Yu Gothic UI';-inkscape-font-specification:'Yu Gothic UI Bold';fill:#ece8e5;fill-opacity:1;stroke-width:0.0733241"
         id="path980" />
    </g>
    <g
       aria-label="TRK"
       id="text41910-2-4-3-7-6-9-6-4-5-1-1-7"
       style="font-style:normal;font-variant:normal;font-weight:300;font-stretch:normal;font-size:0.75px;line-height:1.25;font-family:'Yu Gothic UI';-inkscape-font-specification:'Yu Gothic UI Light';letter-spacing:0px;word-spacing:0px;fill:#ece8e5;fill-opacity:1;stroke-width:0.070762">
      <path
         d="m 16.917488,125.15874 h -0.150879 v 0.45118 h -0.08716 v -0.45118 h -0.150513 v -0.074 h 0.38855 z"
         style="font-style:normal;font-variant:normal;font-weight:bold;font-stretch:normal;font-size:0.75px;font-family:'Yu Gothic UI';-inkscape-font-specification:'Yu Gothic UI Bold';fill:#ece8e5;fill-opacity:1;stroke-width:0.070762"
         id="path969" />
      <path
         d="m 17.400154,125.60992 h -0.101807 l -0.08386,-0.14063 q -0.01135,-0.0194 -0.02234,-0.033 -0.01062,-0.0139 -0.02197,-0.0227 -0.01099,-0.009 -0.02417,-0.0128 -0.01318,-0.004 -0.02966,-0.004 h -0.03516 v 0.21314 h -0.08679 v -0.52515 h 0.172852 q 0.03699,0 0.06811,0.009 0.03113,0.009 0.0542,0.0267 0.02307,0.0176 0.03589,0.0443 0.01318,0.0264 0.01318,0.0619 0,0.0278 -0.0084,0.0513 -0.0081,0.0231 -0.02344,0.0414 -0.01501,0.0179 -0.03662,0.0308 -0.02124,0.0128 -0.04797,0.0198 v 0.001 q 0.01428,0.008 0.0249,0.0179 0.01062,0.01 0.02014,0.0198 0.0095,0.0103 0.01868,0.0234 0.0095,0.0128 0.02087,0.03 z m -0.31897,-0.45447 v 0.17065 h 0.07251 q 0.02014,0 0.03699,-0.006 0.01721,-0.006 0.02966,-0.0179 0.01245,-0.0117 0.01941,-0.0286 0.007,-0.0169 0.007,-0.0377 0,-0.0377 -0.0238,-0.059 -0.0238,-0.0212 -0.06848,-0.0212 z"
         style="font-style:normal;font-variant:normal;font-weight:bold;font-stretch:normal;font-size:0.75px;font-family:'Yu Gothic UI';-inkscape-font-specification:'Yu Gothic UI Bold';fill:#ece8e5;fill-opacity:1;stroke-width:0.070762"
         id="path971" />
      <path
         d="m 17.85865,125.60992 h -0.113525 l -0.182739,-0.24024 q -0.01025,-0.0136 -0.01245,-0.0183 h -0.0015 v 0.25855 h -0.08716 v -0.52515 h 0.08716 v 0.24683 h 0.0015 q 0.0044,-0.008 0.01245,-0.0179 l 0.176147,-0.22888 h 0.10437 l -0.206177,0.25195 z"
         style="font-style:normal;font-variant:normal;font-weight:bold;font-stretch:normal;font-size:0.75px;font-family:'Yu Gothic UI';-inkscape-font-specification:'Yu Gothic UI Bold';fill:#ece8e5;fill-opacity:1;stroke-width:0.070762"
         id="path973" />
    </g>
    <g
       aria-label="FIX"
       id="text41910-2-4-3-7-6-9-6-4-5-1-1-7-5"
       style="font-style:normal;font-variant:normal;font-weight:300;font-stretch:normal;font-size:0.75px;line-height:1.25;font-family:'Yu Gothic UI';-inkscape-font-specification:'Yu Gothic UI Light';letter-spacing:0px;word-spacing:0px;fill:#ece8e5;fill-opacity:1;stroke-width:0.070762">
      <path
         d="m 16.856022,127.44221 h -0.196289 v 0.15783 h 0.180908 v 0.0736 h -0.180908 v 0.21973 h -0.08716 v -0.52515 h 0.283447 z"
         style="font-style:normal;font-variant:normal;font-weight:bold;font-stretch:normal;font-size:0.75px;font-family:'Yu Gothic UI';-inkscape-font-specification:'Yu Gothic UI Bold';fill:#ece8e5;fill-opacity:1;stroke-width:0.070762"
         id="path962" />
      <path
         d="m 17.038761,127.89338 h -0.08972 v -0.52515 h 0.08972 z"
         style="font-style:normal;font-variant:normal;font-weight:bold;font-stretch:normal;font-size:0.75px;font-family:'Yu Gothic UI';-inkscape-font-specification:'Yu Gothic UI Bold';fill:#ece8e5;fill-opacity:1;stroke-width:0.070762"
         id="path964" />
      <path
         d="m 17.560612,127.89338 h -0.10437 l -0.107666,-0.19263 q -0.0048,-0.009 -0.01062,-0.0249 h -0.0015 q -0.0033,0.008 -0.01099,0.0249 l -0.110962,0.19263 H 17.10944 l 0.172119,-0.26404 -0.158203,-0.26111 h 0.106567 l 0.09485,0.17725 q 0.0092,0.0176 0.01648,0.0352 h 0.0011 q 0.01062,-0.0231 0.01831,-0.0366 l 0.09851,-0.17578 h 0.09814 l -0.161865,0.26038 z"
         style="font-style:normal;font-variant:normal;font-weight:bold;font-stretch:normal;font-size:0.75px;font-family:'Yu Gothic UI';-inkscape-font-specification:'Yu Gothic UI Bold';fill:#ece8e5;fill-opacity:1;stroke-width:0.070762"
         id="path966" />
    </g>
    <g
       aria-label="OFF"
       id="text41910-2-4-3-7-6-9-6-4-5-1-1-7-5-6"
       style="font-style:normal;font-variant:normal;font-weight:300;font-stretch:normal;font-size:0.75px;line-height:1.25;font-family:'Yu Gothic UI';-inkscape-font-specification:'Yu Gothic UI Light';letter-spacing:0px;word-spacing:0px;fill:#ece8e5;fill-opacity:1;stroke-width:0.070762">
      <path
         d="m 16.796818,130.20926 q -0.113526,0 -0.182007,-0.0736 -0.06811,-0.0736 -0.06811,-0.19153 0,-0.12671 0.06958,-0.20215 0.06958,-0.0754 0.188965,-0.0754 0.110595,0 0.177978,0.0733 0.06775,0.0732 0.06775,0.19152 0,0.12854 -0.06921,0.20325 -0.06921,0.0747 -0.184936,0.0747 z m 0.004,-0.46619 q -0.07214,0 -0.117554,0.0538 -0.04504,0.0538 -0.04504,0.14172 0,0.0875 0.04395,0.14099 0.04395,0.0535 0.11499,0.0535 0.07544,0 0.119019,-0.0509 0.04358,-0.0509 0.04358,-0.14245 0,-0.0941 -0.04248,-0.14539 -0.04211,-0.0513 -0.116455,-0.0513 z"
         style="font-style:normal;font-variant:normal;font-weight:bold;font-stretch:normal;font-size:0.75px;font-family:'Yu Gothic UI';-inkscape-font-specification:'Yu Gothic UI Bold';fill:#ece8e5;fill-opacity:1;stroke-width:0.070762"
         id="path955" />
      <path
         d="M 17.430729,129.7493 H 17.23444 v 0.15784 h 0.180908 v 0.0736 H 17.23444 v 0.21973 h -0.08716 v -0.52515 h 0.283447 z"
         style="font-style:normal;font-variant:normal;font-weight:bold;font-stretch:normal;font-size:0.75px;font-family:'Yu Gothic UI';-inkscape-font-specification:'Yu Gothic UI Bold';fill:#ece8e5;fill-opacity:1;stroke-width:0.070762"
         id="path957" />
      <path
         d="m 17.80756,129.7493 h -0.196289 v 0.15784 h 0.180908 v 0.0736 h -0.180908 v 0.21973 h -0.08716 v -0.52515 h 0.283447 z"
         style="font-style:normal;font-variant:normal;font-weight:bold;font-stretch:normal;font-size:0.75px;font-family:'Yu Gothic UI';-inkscape-font-specification:'Yu Gothic UI Bold';fill:#ece8e5;fill-opacity:1;stroke-width:0.070762"
         id="path959" />
    </g>
    <g
       aria-label="ENV 2"
       id="text41910-2-4-3-7-6-9-6-4-5-1-1-7-3"
       style="font-style:normal;font-variant:normal;font-weight:300;font-stretch:normal;font-size:0.75px;line-height:1.25;font-family:'Yu Gothic UI';-inkscape-font-specification:'Yu Gothic UI Light';letter-spacing:0px;word-spacing:0px;fill:#ece8e5;fill-opacity:1;stroke-width:0.070762">
      <path
         d="m 36.261719,125.57029 h -0.2948 v -0.52515 H 36.25 v 0.074 h -0.195923 v 0.14868 h 0.180542 v 0.0736 h -0.180542 v 0.15527 h 0.207642 z"
         style="font-style:normal;font-variant:normal;font-weight:bold;font-stretch:normal;font-size:0.75px;font-family:'Yu Gothic UI';-inkscape-font-specification:'Yu Gothic UI Bold';fill:#ece8e5;fill-opacity:1;stroke-width:0.070762"
         id="path946" />
      <path
         d="M 36.800415,125.57029 H 36.7052 l -0.250854,-0.38599 q -0.0095,-0.0146 -0.01575,-0.0304 h -0.0022 q 0.0029,0.0168 0.0029,0.0721 v 0.34424 h -0.08423 v -0.52515 h 0.10144 l 0.242432,0.37683 q 0.01538,0.0234 0.01978,0.0322 h 0.0015 q -0.0037,-0.0209 -0.0037,-0.0707 v -0.33838 h 0.08386 z"
         style="font-style:normal;font-variant:normal;font-weight:bold;font-stretch:normal;font-size:0.75px;font-family:'Yu Gothic UI';-inkscape-font-specification:'Yu Gothic UI Bold';fill:#ece8e5;fill-opacity:1;stroke-width:0.070762"
         id="path948" />
      <path
         d="m 37.342041,125.04514 -0.188599,0.52515 h -0.09741 l -0.185302,-0.52515 h 0.09521 l 0.129639,0.39844 q 0.0062,0.019 0.0095,0.0443 h 0.0015 q 0.0026,-0.0209 0.01062,-0.045 l 0.132569,-0.39771 z"
         style="font-style:normal;font-variant:normal;font-weight:bold;font-stretch:normal;font-size:0.75px;font-family:'Yu Gothic UI';-inkscape-font-specification:'Yu Gothic UI Bold';fill:#ece8e5;fill-opacity:1;stroke-width:0.070762"
         id="path950" />
      <path
         d="m 37.918457,125.57029 h -0.32959 v -0.0406 q 0,-0.0249 0.007,-0.0465 0.007,-0.022 0.01868,-0.041 0.01172,-0.0194 0.02747,-0.0363 0.01575,-0.0172 0.03369,-0.033 0.01794,-0.0161 0.03662,-0.0308 0.01868,-0.015 0.03662,-0.03 0.01685,-0.0143 0.03076,-0.0278 0.01392,-0.0139 0.0238,-0.0286 0.0099,-0.0146 0.01538,-0.0308 0.0055,-0.0165 0.0055,-0.0355 0,-0.0209 -0.0066,-0.0362 -0.0062,-0.0158 -0.01794,-0.026 -0.01135,-0.0106 -0.0271,-0.0157 -0.01575,-0.005 -0.03442,-0.005 -0.03223,0 -0.06555,0.015 -0.03332,0.015 -0.06409,0.045 v -0.0817 q 0.01611,-0.0121 0.03259,-0.0209 0.01648,-0.009 0.03406,-0.015 0.01758,-0.006 0.03699,-0.009 0.01941,-0.003 0.04138,-0.003 0.03552,0 0.06445,0.01 0.02893,0.009 0.04944,0.0275 0.02051,0.0179 0.03149,0.0451 0.01135,0.0271 0.01135,0.0622 0,0.0319 -0.0081,0.0575 -0.0077,0.0253 -0.02234,0.0472 -0.01428,0.022 -0.03479,0.0417 -0.02051,0.0198 -0.04578,0.0406 -0.02124,0.0172 -0.04248,0.0337 -0.02087,0.0161 -0.03772,0.0319 -0.01684,0.0154 -0.02747,0.0311 -0.01025,0.0154 -0.01025,0.0311 v 0.002 h 0.236938 z"
         style="font-style:normal;font-variant:normal;font-weight:bold;font-stretch:normal;font-size:0.75px;font-family:'Yu Gothic UI';-inkscape-font-specification:'Yu Gothic UI Bold';fill:#ece8e5;fill-opacity:1;stroke-width:0.070762"
         id="path952" />
    </g>
    <g
       aria-label="1 + 2"
       id="text41910-2-4-3-7-6-9-6-4-5-1-1-7-3-7"
       style="font-style:normal;font-variant:normal;font-weight:300;font-stretch:normal;font-size:0.75px;line-height:1.25;font-family:'Yu Gothic UI';-inkscape-font-specification:'Yu Gothic UI Light';letter-spacing:0px;word-spacing:0px;fill:#ece8e5;fill-opacity:1;stroke-width:0.070762">
      <path
         d="m 36.166573,127.37196 v 0.53686 h -0.08496 v -0.43286 q -0.02307,0.0165 -0.0498,0.0282 -0.02637,0.0114 -0.06043,0.0201 v -0.0725 q 0.02124,-0.007 0.04102,-0.0147 0.01978,-0.008 0.03882,-0.0172 0.01941,-0.01 0.03882,-0.0212 0.01978,-0.0117 0.04065,-0.0267 z"
         style="font-style:normal;font-variant:normal;font-weight:bold;font-stretch:normal;font-size:0.75px;font-family:'Yu Gothic UI';-inkscape-font-specification:'Yu Gothic UI Bold';fill:#ece8e5;fill-opacity:1;stroke-width:0.070762"
         id="path939" />
      <path
         d="m 36.885078,127.72205 h -0.144653 v 0.14466 H 36.68 v -0.14466 h -0.144653 v -0.0604 H 36.68 v -0.14502 h 0.06043 v 0.14502 h 0.144653 z"
         style="font-style:normal;font-variant:normal;font-weight:bold;font-stretch:normal;font-size:0.75px;font-family:'Yu Gothic UI';-inkscape-font-specification:'Yu Gothic UI Bold';fill:#ece8e5;fill-opacity:1;stroke-width:0.070762"
         id="path941" />
      <path
         d="m 37.541695,127.90882 h -0.32959 v -0.0406 q 0,-0.0249 0.007,-0.0465 0.007,-0.022 0.01868,-0.041 0.01172,-0.0194 0.02746,-0.0363 0.01575,-0.0172 0.03369,-0.033 0.01794,-0.0161 0.03662,-0.0308 0.01868,-0.015 0.03662,-0.03 0.01685,-0.0143 0.03076,-0.0278 0.01392,-0.0139 0.0238,-0.0286 0.0099,-0.0147 0.01538,-0.0308 0.0055,-0.0165 0.0055,-0.0355 0,-0.0209 -0.0066,-0.0362 -0.0062,-0.0157 -0.01794,-0.026 -0.01135,-0.0106 -0.0271,-0.0157 -0.01575,-0.005 -0.03442,-0.005 -0.03223,0 -0.06555,0.015 -0.03332,0.015 -0.06409,0.045 v -0.0817 q 0.01611,-0.0121 0.03259,-0.0209 0.01648,-0.009 0.03406,-0.015 0.01758,-0.006 0.03699,-0.009 0.01941,-0.003 0.04138,-0.003 0.03552,0 0.06445,0.01 0.02893,0.009 0.04944,0.0275 0.02051,0.018 0.03149,0.0451 0.01135,0.0271 0.01135,0.0623 0,0.0319 -0.0081,0.0575 -0.0077,0.0253 -0.02234,0.0472 -0.01428,0.022 -0.03479,0.0418 -0.02051,0.0198 -0.04578,0.0406 -0.02124,0.0172 -0.04248,0.0337 -0.02087,0.0161 -0.03772,0.0319 -0.01685,0.0154 -0.02747,0.0311 -0.01025,0.0154 -0.01025,0.0311 v 0.002 h 0.236939 z"
         style="font-style:normal;font-variant:normal;font-weight:bold;font-stretch:normal;font-size:0.75px;font-family:'Yu Gothic UI';-inkscape-font-specification:'Yu Gothic UI Bold';fill:#ece8e5;fill-opacity:1;stroke-width:0.070762"
         id="path943" />
    </g>
    <g
       aria-label="ENV 1"
       id="text41910-2-4-3-7-6-9-6-4-5-1-1-7-3-7-6"
       style="font-style:normal;font-variant:normal;font-weight:300;font-stretch:normal;font-size:0.75px;line-height:1.25;font-family:'Yu Gothic UI';-inkscape-font-specification:'Yu Gothic UI Light';letter-spacing:0px;word-spacing:0px;fill:#ece8e5;fill-opacity:1;stroke-width:0.070762">
      <path
         d="m 36.261532,130.21593 h -0.2948 v -0.52515 h 0.283081 v 0.074 H 36.05389 v 0.14868 h 0.180542 v 0.0736 H 36.05389 v 0.15527 h 0.207642 z"
         style="font-style:normal;font-variant:normal;font-weight:bold;font-stretch:normal;font-size:0.75px;font-family:'Yu Gothic UI';-inkscape-font-specification:'Yu Gothic UI Bold';fill:#ece8e5;fill-opacity:1;stroke-width:0.070762"
         id="path930" />
      <path
         d="m 36.800228,130.21593 h -0.09521 l -0.250854,-0.38599 q -0.0095,-0.0146 -0.01575,-0.0304 h -0.0022 q 0.0029,0.0168 0.0029,0.0721 v 0.34424 h -0.08423 v -0.52515 h 0.10144 l 0.242432,0.37683 q 0.01538,0.0234 0.01978,0.0322 h 0.0015 q -0.0037,-0.0209 -0.0037,-0.0707 v -0.33838 h 0.08386 z"
         style="font-style:normal;font-variant:normal;font-weight:bold;font-stretch:normal;font-size:0.75px;font-family:'Yu Gothic UI';-inkscape-font-specification:'Yu Gothic UI Bold';fill:#ece8e5;fill-opacity:1;stroke-width:0.070762"
         id="path932" />
      <path
         d="m 37.341854,129.69078 -0.188599,0.52515 h -0.09741 l -0.185302,-0.52515 h 0.09521 l 0.129639,0.39844 q 0.0062,0.019 0.0095,0.0443 h 0.0015 q 0.0026,-0.0209 0.01062,-0.045 l 0.132568,-0.39771 z"
         style="font-style:normal;font-variant:normal;font-weight:bold;font-stretch:normal;font-size:0.75px;font-family:'Yu Gothic UI';-inkscape-font-specification:'Yu Gothic UI Bold';fill:#ece8e5;fill-opacity:1;stroke-width:0.070762"
         id="path934" />
      <path
         d="m 37.778011,129.67906 v 0.53687 h -0.08496 v -0.43286 q -0.02307,0.0165 -0.0498,0.0282 -0.02637,0.0114 -0.06042,0.0202 v -0.0725 q 0.02124,-0.007 0.04102,-0.0147 0.01977,-0.008 0.03882,-0.0172 0.01941,-0.01 0.03882,-0.0212 0.01978,-0.0117 0.04065,-0.0267 z"
         style="font-style:normal;font-variant:normal;font-weight:bold;font-stretch:normal;font-size:0.75px;font-family:'Yu Gothic UI';-inkscape-font-specification:'Yu Gothic UI Bold';fill:#ece8e5;fill-opacity:1;stroke-width:0.070762"
         id="path936" />
    </g>
    <g
       aria-label="ON"
       id="text41910-2-4-3-7-6-9-6-4-5-1-1-7-3-7-6-4"
       style="font-style:normal;font-variant:normal;font-weight:300;font-stretch:normal;font-size:0.75px;line-height:1.25;font-family:'Yu Gothic UI';-inkscape-font-specification:'Yu Gothic UI Light';letter-spacing:0px;word-spacing:0px;fill:#ece8e5;fill-opacity:1;stroke-width:0.070762">
      <path
         d="m 36.159351,137.24852 q -0.113525,0 -0.182006,-0.0736 -0.06812,-0.0736 -0.06812,-0.19153 0,-0.12671 0.06958,-0.20215 0.06958,-0.0754 0.188965,-0.0754 0.110596,0 0.177979,0.0732 0.06775,0.0732 0.06775,0.19153 0,0.12854 -0.06921,0.20324 -0.06921,0.0747 -0.184937,0.0747 z m 0.004,-0.46619 q -0.07214,0 -0.117554,0.0538 -0.04504,0.0538 -0.04504,0.14172 0,0.0875 0.04395,0.14099 0.04395,0.0535 0.114991,0.0535 0.07544,0 0.119018,-0.0509 0.04358,-0.0509 0.04358,-0.14245 0,-0.0941 -0.04248,-0.14539 -0.04211,-0.0513 -0.116455,-0.0513 z"
         style="font-style:normal;font-variant:normal;font-weight:bold;font-stretch:normal;font-size:0.75px;font-family:'Yu Gothic UI';-inkscape-font-specification:'Yu Gothic UI Bold';fill:#ece8e5;fill-opacity:1;stroke-width:0.070762"
         id="path925" />
      <path
         d="m 36.955128,137.23973 h -0.09522 l -0.250855,-0.38599 q -0.0095,-0.0146 -0.01575,-0.0304 h -0.0022 q 0.0029,0.0168 0.0029,0.0721 v 0.34424 h -0.08423 v -0.52515 h 0.101441 l 0.242431,0.37684 q 0.01538,0.0234 0.01978,0.0322 h 0.0015 q -0.0037,-0.0209 -0.0037,-0.0707 v -0.33838 h 0.08386 z"
         style="font-style:normal;font-variant:normal;font-weight:bold;font-stretch:normal;font-size:0.75px;font-family:'Yu Gothic UI';-inkscape-font-specification:'Yu Gothic UI Bold';fill:#ece8e5;fill-opacity:1;stroke-width:0.070762"
         id="path927" />
    </g>
    <g
       aria-label="1/2"
       id="text41910-2-4-3-7-6-9-6-4-5-1-1-7-3-7-6-4-2"
       style="font-style:normal;font-variant:normal;font-weight:300;font-stretch:normal;font-size:0.75px;line-height:1.25;font-family:'Yu Gothic UI';-inkscape-font-specification:'Yu Gothic UI Light';letter-spacing:0px;word-spacing:0px;fill:#ece8e5;fill-opacity:1;stroke-width:0.070762">
      <path
         d="m 36.166195,139.02579 v 0.53686 h -0.08496 v -0.43286 q -0.02307,0.0165 -0.0498,0.0282 -0.02637,0.0113 -0.06043,0.0201 v -0.0725 q 0.02124,-0.007 0.04102,-0.0146 0.01978,-0.008 0.03882,-0.0172 0.01941,-0.01 0.03882,-0.0212 0.01977,-0.0117 0.04065,-0.0267 z"
         style="font-style:normal;font-variant:normal;font-weight:bold;font-stretch:normal;font-size:0.75px;font-family:'Yu Gothic UI';-inkscape-font-specification:'Yu Gothic UI Bold';fill:#ece8e5;fill-opacity:1;stroke-width:0.070762"
         id="path918" />
      <path
         d="m 36.560238,139.03751 -0.253784,0.6123 h -0.07727 l 0.252686,-0.6123 z"
         style="font-style:normal;font-variant:normal;font-weight:bold;font-stretch:normal;font-size:0.75px;font-family:'Yu Gothic UI';-inkscape-font-specification:'Yu Gothic UI Bold';fill:#ece8e5;fill-opacity:1;stroke-width:0.070762"
         id="path920" />
      <path
         d="m 36.918392,139.56265 h -0.32959 v -0.0406 q 0,-0.0249 0.007,-0.0465 0.007,-0.022 0.01868,-0.041 0.01172,-0.0194 0.02747,-0.0363 0.01575,-0.0172 0.03369,-0.033 0.01795,-0.0161 0.03662,-0.0308 0.01868,-0.015 0.03662,-0.03 0.01684,-0.0143 0.03076,-0.0278 0.01392,-0.0139 0.0238,-0.0286 0.0099,-0.0146 0.01538,-0.0308 0.0055,-0.0165 0.0055,-0.0355 0,-0.0209 -0.0066,-0.0362 -0.0062,-0.0157 -0.01794,-0.026 -0.01135,-0.0106 -0.0271,-0.0157 -0.01575,-0.005 -0.03442,-0.005 -0.03223,0 -0.06555,0.015 -0.03333,0.015 -0.06409,0.045 v -0.0817 q 0.01611,-0.0121 0.03259,-0.0209 0.01648,-0.009 0.03406,-0.015 0.01758,-0.006 0.03699,-0.009 0.01941,-0.003 0.04138,-0.003 0.03552,0 0.06445,0.01 0.02893,0.009 0.04944,0.0275 0.02051,0.018 0.03149,0.0451 0.01135,0.0271 0.01135,0.0623 0,0.0319 -0.0081,0.0575 -0.0077,0.0253 -0.02234,0.0472 -0.01428,0.022 -0.03479,0.0418 -0.02051,0.0198 -0.04578,0.0406 -0.02124,0.0172 -0.04248,0.0337 -0.02087,0.0161 -0.03772,0.0319 -0.01684,0.0154 -0.02746,0.0311 -0.01025,0.0154 -0.01025,0.0311 v 0.002 h 0.236938 z"
         style="font-style:normal;font-variant:normal;font-weight:bold;font-stretch:normal;font-size:0.75px;font-family:'Yu Gothic UI';-inkscape-font-specification:'Yu Gothic UI Bold';fill:#ece8e5;fill-opacity:1;stroke-width:0.070762"
         id="path922" />
    </g>
    <g
       aria-label="OFF"
       id="text41910-2-4-3-7-6-9-6-4-5-1-1-7-3-7-6-4-2-4"
       style="font-style:normal;font-variant:normal;font-weight:300;font-stretch:normal;font-size:0.75px;line-height:1.25;font-family:'Yu Gothic UI';-inkscape-font-specification:'Yu Gothic UI Light';letter-spacing:0px;word-spacing:0px;fill:#ece8e5;fill-opacity:1;stroke-width:0.070762">
      <path
         d="m 36.135544,141.8313 q -0.113526,0 -0.182007,-0.0736 -0.06811,-0.0736 -0.06811,-0.19153 0,-0.12671 0.06958,-0.20215 0.06958,-0.0754 0.188965,-0.0754 0.110595,0 0.177978,0.0733 0.06775,0.0732 0.06775,0.19152 0,0.12854 -0.06921,0.20325 -0.06921,0.0747 -0.184936,0.0747 z m 0.004,-0.46619 q -0.07214,0 -0.117554,0.0538 -0.04504,0.0538 -0.04504,0.14172 0,0.0875 0.04395,0.14099 0.04395,0.0535 0.11499,0.0535 0.07544,0 0.119019,-0.0509 0.04358,-0.0509 0.04358,-0.14245 0,-0.0941 -0.04248,-0.14539 -0.04211,-0.0513 -0.116455,-0.0513 z"
         style="font-style:normal;font-variant:normal;font-weight:bold;font-stretch:normal;font-size:0.75px;font-family:'Yu Gothic UI';-inkscape-font-specification:'Yu Gothic UI Bold';fill:#ece8e5;fill-opacity:1;stroke-width:0.070762"
         id="path911" />
      <path
         d="m 36.769455,141.37134 h -0.196289 v 0.15783 h 0.180908 v 0.0736 h -0.180908 v 0.21973 h -0.08716 v -0.52515 h 0.283447 z"
         style="font-style:normal;font-variant:normal;font-weight:bold;font-stretch:normal;font-size:0.75px;font-family:'Yu Gothic UI';-inkscape-font-specification:'Yu Gothic UI Bold';fill:#ece8e5;fill-opacity:1;stroke-width:0.070762"
         id="path913" />
      <path
         d="m 37.146286,141.37134 h -0.196289 v 0.15783 h 0.180908 v 0.0736 h -0.180908 v 0.21973 h -0.08716 v -0.52515 h 0.283447 z"
         style="font-style:normal;font-variant:normal;font-weight:bold;font-stretch:normal;font-size:0.75px;font-family:'Yu Gothic UI';-inkscape-font-specification:'Yu Gothic UI Bold';fill:#ece8e5;fill-opacity:1;stroke-width:0.070762"
         id="path915" />
    </g>
    <path
       style="fill:none;stroke:#ece8e5;stroke-width:0.25;stroke-linecap:butt;stroke-linejoin:miter;stroke-miterlimit:4;stroke-dasharray:none;stroke-opacity:1"
       d="m 20.24674,140.50865 h 9"
       id="path5032" />
    <path
       style="fill:none;stroke:#ece8e5;stroke-width:0.25;stroke-linecap:butt;stroke-linejoin:miter;stroke-miterlimit:4;stroke-dasharray:none;stroke-opacity:1"
       d="m 20.24674,126.50865 h 9"
       id="path5032-2" />
    <path
       style="fill:none;stroke:#ece8e5;stroke-width:0.25;stroke-linecap:butt;stroke-linejoin:miter;stroke-miterlimit:4;stroke-dasharray:none;stroke-opacity:1"
       d="m 20.24674,133.50865 h 9"
       id="path5032-2-8" />
    <path
       style="fill:none;stroke:#ece8e5;stroke-width:0.1;stroke-linecap:butt;stroke-linejoin:miter;stroke-miterlimit:4;stroke-dasharray:none;stroke-opacity:1"
       d="m 20.24674,131.27485 h 9"
       id="path5032-2-9-9" />
    <path
       style="fill:none;stroke:#ece8e5;stroke-width:0.1;stroke-linecap:butt;stroke-linejoin:miter;stroke-miterlimit:4;stroke-dasharray:none;stroke-opacity:1"
       d="m 20.24674,128.74245 h 9"
       id="path5032-2-9" />
    <path
       style="fill:none;stroke:#ece8e5;stroke-width:0.1;stroke-linecap:butt;stroke-linejoin:miter;stroke-miterlimit:4;stroke-dasharray:none;stroke-opacity:1"
       d="m 20.24674,138.27485 h 9"
       id="path5032-2-9-9-3-0" />
    <path
       style="fill:none;stroke:#ece8e5;stroke-width:0.1;stroke-linecap:butt;stroke-linejoin:miter;stroke-miterlimit:4;stroke-dasharray:none;stroke-opacity:1"
       d="m 20.24674,135.74245 h 9"
       id="path5032-2-9-9-3" />
    <path
       style="fill:none;stroke:#ece8e5;stroke-width:0.25;stroke-linecap:butt;stroke-linejoin:miter;stroke-miterlimit:4;stroke-dasharray:none;stroke-opacity:1"
       d="m 40.24674,140.50865 h 14"
       id="path5032-74" />
    <path
       style="fill:none;stroke:#ece8e5;stroke-width:0.25;stroke-linecap:butt;stroke-linejoin:miter;stroke-miterlimit:4;stroke-dasharray:none;stroke-opacity:1"
       d="m 40.24674,126.50865 h 14"
       id="path5032-2-4" />
    <path
       style="fill:none;stroke:#ece8e5;stroke-width:0.25;stroke-linecap:butt;stroke-linejoin:miter;stroke-miterlimit:4;stroke-dasharray:none;stroke-opacity:1"
       d="m 40.24674,133.50865 h 14"
       id="path5032-2-8-0" />
    <path
       style="fill:none;stroke:#ece8e5;stroke-width:0.1;stroke-linecap:butt;stroke-linejoin:miter;stroke-miterlimit:4;stroke-dasharray:none;stroke-opacity:1"
       d="m 40.24674,131.27485 h 14"
       id="path5032-2-9-9-0" />
    <path
       style="fill:none;stroke:#ece8e5;stroke-width:0.1;stroke-linecap:butt;stroke-linejoin:miter;stroke-miterlimit:4;stroke-dasharray:none;stroke-opacity:1"
       d="m 40.24674,128.74245 h 14"
       id="path5032-2-9-8" />
    <path
       style="fill:none;stroke:#ece8e5;stroke-width:0.1;stroke-linecap:butt;stroke-linejoin:miter;stroke-miterlimit:4;stroke-dasharray:none;stroke-opacity:1"
       d="m 40.24674,138.27485 h 14"
       id="path5032-2-9-9-3-0-5" />
    <path
       style="fill:none;stroke:#ece8e5;stroke-width:0.1;stroke-linecap:butt;stroke-linejoin:miter;stroke-miterlimit:4;stroke-dasharray:none;stroke-opacity:1"
       d="m 40.24674,135.74245 h 14"
       id="path5032-2-9-9-3-47" />
    <path
       id="rect41866-4-9-6-8-7-2-8-5"
       style="fill:#000000;fill-opacity:1;stroke:#000000;stroke-width:0.0526698;stroke-miterlimit:10;stroke-dasharray:none;stroke-opacity:1;paint-order:markers fill stroke"
       d="m 22.247907,125.22281 c 0.304039,0 0.548806,0.24477 0.548806,0.54881 v 15.5352 c 0,0.30404 -0.244767,0.5488 -0.548806,0.5488 -0.304039,0 -0.548807,-0.24476 -0.548807,-0.5488 v -15.5352 c 0,-0.30404 0.244768,-0.54881 0.548807,-0.54881 z" />
    <path
       id="rect41866-4-9-6-8-7-2-8-5-9"
       style="fill:#000000;fill-opacity:1;stroke:#000000;stroke-width:0.0526698;stroke-miterlimit:10;stroke-dasharray:none;stroke-opacity:1;paint-order:markers fill stroke"
       d="m 27.246835,125.28858 c 0.304039,0 0.548806,0.24477 0.548806,0.54881 v 15.5352 c 0,0.30404 -0.244767,0.54881 -0.548806,0.54881 -0.304039,0 -0.548806,-0.24477 -0.548806,-0.54881 v -15.5352 c 0,-0.30404 0.244767,-0.54881 0.548806,-0.54881 z" />
    <path
       id="rect41866-4-9-6-8-7-2-8-5-5"
       style="fill:#000000;fill-opacity:1;stroke:#000000;stroke-width:0.0526698;stroke-miterlimit:10;stroke-dasharray:none;stroke-opacity:1;paint-order:markers fill stroke"
       d="m 42.226503,125.18936 c 0.304038,0 0.548806,0.24477 0.548806,0.54881 v 15.5352 c 0,0.30404 -0.244768,0.54881 -0.548806,0.54881 -0.304039,0 -0.548807,-0.24477 -0.548807,-0.54881 v -15.5352 c 0,-0.30404 0.244768,-0.54881 0.548807,-0.54881 z" />
    <path
       id="rect41866-4-9-6-8-7-2-8-5-5-1-6"
       style="fill:#000000;fill-opacity:1;stroke:#000000;stroke-width:0.0526698;stroke-miterlimit:10;stroke-dasharray:none;stroke-opacity:1;paint-order:markers fill stroke"
       d="m 52.265981,125.18936 c 0.304039,0 0.548806,0.24477 0.548806,0.54881 v 15.5352 c 0,0.30404 -0.244767,0.54881 -0.548806,0.54881 -0.304039,0 -0.548806,-0.24477 -0.548806,-0.54881 v -15.5352 c 0,-0.30404 0.244767,-0.54881 0.548806,-0.54881 z" />
  </g>
</svg>
