<?xml version="1.0" encoding="UTF-8" standalone="no"?>
<svg
   xmlns:dc="http://purl.org/dc/elements/1.1/"
   xmlns:cc="http://creativecommons.org/ns#"
   xmlns:rdf="http://www.w3.org/1999/02/22-rdf-syntax-ns#"
   xmlns:svg="http://www.w3.org/2000/svg"
   xmlns="http://www.w3.org/2000/svg"
   width="106.07632mm"
   height="16.076319mm"
   viewBox="0 0 106.07632 16.076319"
   version="1.1"
   id="svg7001">
  <defs
     id="defs6995">
    <clipPath
       clipPathUnits="userSpaceOnUse"
       id="clipPath961">
      <path
         d="M 165.118,473.544 H 561.259 V 642.063 H 165.118 Z"
         id="path959" />
    </clipPath>
  </defs>
  <metadata
     id="metadata6998">
    <rdf:RDF>
      <cc:Work
         rdf:about="">
        <dc:format>image/svg+xml</dc:format>
        <dc:type
           rdf:resource="http://purl.org/dc/dcmitype/StillImage" />
        <dc:title />
      </cc:Work>
    </rdf:RDF>
  </metadata>
  <g
     id="layer1"
     transform="translate(30.359595,-91.747554)">
    <path
       id="rect41388-0-0-7-8-5-1-4-0-2"
       style="fill:none;fill-opacity:1;stroke:none;stroke-width:0.076319;stroke-miterlimit:10;stroke-dasharray:none;stroke-opacity:1;paint-order:markers fill stroke"
       d="M -30.321436,91.785713 H 75.678572 V 107.78571 H -30.321436 Z" />
    <path
       style="fill:none;stroke:#ece8e5;stroke-width:0.1;stroke-linecap:butt;stroke-linejoin:miter;stroke-opacity:1;stroke-miterlimit:4;stroke-dasharray:none"
       d="m -29.32016,92.834236 -0.04725,13.843374"
       id="path14021" />
    <path
       style="fill:none;stroke:#fe5045;stroke-width:0.264583px;stroke-linecap:butt;stroke-linejoin:miter;stroke-opacity:1"
       d="M -28.351597,94.724116 H 74.623289"
       id="path14023" />
    <g
       aria-label="PATCH / WAVE  / MOD MATRIX"
       id="text41512"
       style="font-style:normal;font-variant:normal;font-weight:bold;font-stretch:normal;font-size:1.6px;line-height:1.25;font-family:'Yu Gothic UI';-inkscape-font-specification:'Yu Gothic UI Bold';letter-spacing:0px;word-spacing:0px;fill:#ece8e5;fill-opacity:1;stroke-width:0.101;stroke-miterlimit:4;stroke-dasharray:none">
      <path
         d="m -27.970017,93.785051 v 0.423437 h -0.13125 v -1.120312 h 0.307812 q 0.179688,0 0.278125,0.0875 0.09922,0.0875 0.09922,0.246875 0,0.159375 -0.110156,0.260937 -0.109375,0.101563 -0.296094,0.101563 z m 0,-0.578125 v 0.459375 h 0.1375 q 0.135937,0 0.207031,-0.06172 0.07187,-0.0625 0.07187,-0.175781 0,-0.221875 -0.2625,-0.221875 z"
         style="font-style:normal;font-variant:normal;font-weight:normal;font-stretch:normal;font-size:1.6px;font-family:'Yu Gothic UI';-inkscape-font-specification:'Yu Gothic UI';fill:#ece8e5;fill-opacity:1;stroke-width:0.101;stroke-miterlimit:4;stroke-dasharray:none"
         id="path1011" />
      <path
         d="m -26.385642,94.208488 h -0.145313 l -0.11875,-0.314062 h -0.475 l -0.111719,0.314062 h -0.146093 l 0.429687,-1.120312 h 0.135938 z m -0.307031,-0.432031 -0.175782,-0.477344 q -0.0086,-0.02344 -0.01719,-0.075 h -0.0031 q -0.0078,0.04766 -0.01797,0.075 l -0.174219,0.477344 z"
         style="font-style:normal;font-variant:normal;font-weight:normal;font-stretch:normal;font-size:1.6px;font-family:'Yu Gothic UI';-inkscape-font-specification:'Yu Gothic UI';fill:#ece8e5;fill-opacity:1;stroke-width:0.101;stroke-miterlimit:4;stroke-dasharray:none"
         id="path1013" />
      <path
         d="m -25.614548,93.206926 h -0.323438 v 1.001562 h -0.13125 v -1.001562 h -0.322656 v -0.11875 h 0.777344 z"
         style="font-style:normal;font-variant:normal;font-weight:normal;font-stretch:normal;font-size:1.6px;font-family:'Yu Gothic UI';-inkscape-font-specification:'Yu Gothic UI';fill:#ece8e5;fill-opacity:1;stroke-width:0.101;stroke-miterlimit:4;stroke-dasharray:none"
         id="path1015" />
      <path
         d="m -24.691892,94.161613 q -0.124219,0.06562 -0.309375,0.06562 -0.239063,0 -0.382813,-0.153906 -0.14375,-0.153906 -0.14375,-0.403906 0,-0.26875 0.161719,-0.434375 0.161719,-0.165625 0.410156,-0.165625 0.159375,0 0.264063,0.04609 v 0.139843 q -0.120313,-0.06719 -0.265625,-0.06719 -0.192969,0 -0.313282,0.128906 -0.119531,0.128906 -0.119531,0.344531 0,0.204688 0.111719,0.326563 0.1125,0.121094 0.294531,0.121094 0.16875,0 0.292188,-0.075 z"
         style="font-style:normal;font-variant:normal;font-weight:normal;font-stretch:normal;font-size:1.6px;font-family:'Yu Gothic UI';-inkscape-font-specification:'Yu Gothic UI';fill:#ece8e5;fill-opacity:1;stroke-width:0.101;stroke-miterlimit:4;stroke-dasharray:none"
         id="path1017" />
      <path
         d="m -23.62158,94.208488 h -0.13125 v -0.510937 h -0.579687 v 0.510937 h -0.13125 v -1.120312 h 0.13125 v 0.491406 h 0.579687 v -0.491406 h 0.13125 z"
         style="font-style:normal;font-variant:normal;font-weight:normal;font-stretch:normal;font-size:1.6px;font-family:'Yu Gothic UI';-inkscape-font-specification:'Yu Gothic UI';fill:#ece8e5;fill-opacity:1;stroke-width:0.101;stroke-miterlimit:4;stroke-dasharray:none"
         id="path1019" />
      <path
         d="m -22.401267,93.088176 -0.5375,1.30625 h -0.119531 l 0.535937,-1.30625 z"
         style="font-style:normal;font-variant:normal;font-weight:normal;font-stretch:normal;font-size:1.6px;font-family:'Yu Gothic UI';-inkscape-font-specification:'Yu Gothic UI';fill:#ece8e5;fill-opacity:1;stroke-width:0.101;stroke-miterlimit:4;stroke-dasharray:none"
         id="path1021" />
      <path
         d="m -20.499705,93.088176 -0.316406,1.120312 h -0.153906 l -0.230469,-0.81875 q -0.01484,-0.05234 -0.01797,-0.114062 h -0.0031 q -0.0047,0.05781 -0.02031,0.1125 l -0.232031,0.820312 h -0.152344 l -0.328125,-1.120312 h 0.144531 l 0.238281,0.859375 q 0.01484,0.05391 0.01875,0.1125 h 0.0039 q 0.0039,-0.04141 0.02422,-0.1125 l 0.247657,-0.859375 h 0.125781 l 0.2375,0.865625 q 0.0125,0.04453 0.01875,0.104687 h 0.0031 q 0.0031,-0.04062 0.02109,-0.107812 l 0.228906,-0.8625 z"
         style="font-style:normal;font-variant:normal;font-weight:normal;font-stretch:normal;font-size:1.6px;font-family:'Yu Gothic UI';-inkscape-font-specification:'Yu Gothic UI';fill:#ece8e5;fill-opacity:1;stroke-width:0.101;stroke-miterlimit:4;stroke-dasharray:none"
         id="path1023" />
      <path
         d="m -19.530173,94.208488 h -0.145313 l -0.11875,-0.314062 h -0.475 l -0.111718,0.314062 h -0.146094 l 0.429687,-1.120312 h 0.135938 z m -0.307031,-0.432031 -0.175782,-0.477344 q -0.0086,-0.02344 -0.01719,-0.075 h -0.0031 q -0.0078,0.04766 -0.01797,0.075 l -0.174219,0.477344 z"
         style="font-style:normal;font-variant:normal;font-weight:normal;font-stretch:normal;font-size:1.6px;font-family:'Yu Gothic UI';-inkscape-font-specification:'Yu Gothic UI';fill:#ece8e5;fill-opacity:1;stroke-width:0.101;stroke-miterlimit:4;stroke-dasharray:none"
         id="path1025" />
      <path
         d="m -18.59658,93.088176 -0.414843,1.120312 h -0.144532 l -0.40625,-1.120312 h 0.146094 l 0.310156,0.888281 q 0.01484,0.04297 0.02266,0.09922 h 0.0031 q 0.0062,-0.04687 0.02578,-0.100781 l 0.316406,-0.886719 z"
         style="font-style:normal;font-variant:normal;font-weight:normal;font-stretch:normal;font-size:1.6px;font-family:'Yu Gothic UI';-inkscape-font-specification:'Yu Gothic UI';fill:#ece8e5;fill-opacity:1;stroke-width:0.101;stroke-miterlimit:4;stroke-dasharray:none"
         id="path1027" />
      <path
         d="m -17.841892,94.208488 h -0.59375 v -1.120312 h 0.56875 v 0.11875 h -0.4375 v 0.372656 h 0.404688 v 0.117969 h -0.404688 v 0.392187 h 0.4625 z"
         style="font-style:normal;font-variant:normal;font-weight:normal;font-stretch:normal;font-size:1.6px;font-family:'Yu Gothic UI';-inkscape-font-specification:'Yu Gothic UI';fill:#ece8e5;fill-opacity:1;stroke-width:0.101;stroke-miterlimit:4;stroke-dasharray:none"
         id="path1029" />
      <path
         d="m -16.261423,93.088176 -0.5375,1.30625 h -0.119532 l 0.535938,-1.30625 z"
         style="font-style:normal;font-variant:normal;font-weight:normal;font-stretch:normal;font-size:1.6px;font-family:'Yu Gothic UI';-inkscape-font-specification:'Yu Gothic UI';fill:#ece8e5;fill-opacity:1;stroke-width:0.101;stroke-miterlimit:4;stroke-dasharray:none"
         id="path1031" />
      <path
         d="m -14.545798,94.208488 h -0.130469 v -0.751562 q 0,-0.08906 0.01094,-0.217969 h -0.0031 q -0.01875,0.07578 -0.03359,0.108594 l -0.382813,0.860937 h -0.06406 l -0.382032,-0.854687 q -0.01641,-0.0375 -0.03359,-0.114844 h -0.0031 q 0.0062,0.06719 0.0062,0.219531 v 0.75 h -0.126563 v -1.120312 h 0.173438 l 0.34375,0.78125 q 0.03984,0.08984 0.05156,0.134375 h 0.0047 q 0.03359,-0.09219 0.05391,-0.1375 l 0.350781,-0.778125 h 0.164063 z"
         style="font-style:normal;font-variant:normal;font-weight:normal;font-stretch:normal;font-size:1.6px;font-family:'Yu Gothic UI';-inkscape-font-specification:'Yu Gothic UI';fill:#ece8e5;fill-opacity:1;stroke-width:0.101;stroke-miterlimit:4;stroke-dasharray:none"
         id="path1033" />
      <path
         d="m -13.799704,94.227238 q -0.238282,0 -0.382032,-0.157031 -0.142968,-0.157031 -0.142968,-0.408594 0,-0.270312 0.146093,-0.43125 0.146094,-0.160937 0.397657,-0.160937 0.232031,0 0.373437,0.15625 0.142188,0.15625 0.142188,0.408594 0,0.274218 -0.145313,0.433593 -0.145312,0.159375 -0.389062,0.159375 z m 0.0094,-1.039062 q -0.176563,0 -0.286719,0.127344 -0.110156,0.127343 -0.110156,0.334375 0,0.207031 0.107031,0.333593 0.107812,0.125782 0.280469,0.125782 0.184375,0 0.290625,-0.120313 0.10625,-0.120312 0.10625,-0.336719 0,-0.221875 -0.103125,-0.342968 -0.103125,-0.121094 -0.284375,-0.121094 z"
         style="font-style:normal;font-variant:normal;font-weight:normal;font-stretch:normal;font-size:1.6px;font-family:'Yu Gothic UI';-inkscape-font-specification:'Yu Gothic UI';fill:#ece8e5;fill-opacity:1;stroke-width:0.101;stroke-miterlimit:4;stroke-dasharray:none"
         id="path1035" />
      <path
         d="m -13.045017,94.208488 v -1.120312 h 0.309375 q 0.592188,0 0.592188,0.546094 0,0.259375 -0.164844,0.417187 -0.164062,0.157031 -0.439844,0.157031 z m 0.13125,-1.001562 v 0.882812 h 0.167188 q 0.220312,0 0.342969,-0.117968 0.122656,-0.117969 0.122656,-0.334375 0,-0.430469 -0.457813,-0.430469 z"
         style="font-style:normal;font-variant:normal;font-weight:normal;font-stretch:normal;font-size:1.6px;font-family:'Yu Gothic UI';-inkscape-font-specification:'Yu Gothic UI';fill:#ece8e5;fill-opacity:1;stroke-width:0.101;stroke-miterlimit:4;stroke-dasharray:none"
         id="path1037" />
      <path
         d="m -10.342672,94.208488 h -0.130469 v -0.751562 q 0,-0.08906 0.01094,-0.217969 h -0.0031 q -0.01875,0.07578 -0.03359,0.108594 l -0.382813,0.860937 h -0.06406 l -0.382032,-0.854687 q -0.01641,-0.0375 -0.03359,-0.114844 h -0.0031 q 0.0062,0.06719 0.0062,0.219531 v 0.75 h -0.126563 v -1.120312 h 0.173438 l 0.34375,0.78125 q 0.03984,0.08984 0.05156,0.134375 h 0.0047 q 0.03359,-0.09219 0.05391,-0.1375 l 0.350781,-0.778125 h 0.164063 z"
         style="font-style:normal;font-variant:normal;font-weight:normal;font-stretch:normal;font-size:1.6px;font-family:'Yu Gothic UI';-inkscape-font-specification:'Yu Gothic UI';fill:#ece8e5;fill-opacity:1;stroke-width:0.101;stroke-miterlimit:4;stroke-dasharray:none"
         id="path1039" />
      <path
         d="m -9.1809543,94.208488 h -0.1453125 l -0.11875,-0.314062 h -0.4750001 l -0.1117191,0.314062 h -0.146093 l 0.4296871,-1.120312 h 0.1359375 z m -0.3070313,-0.432031 -0.1757813,-0.477344 q -0.00859,-0.02344 -0.017187,-0.075 h -0.00313 q -0.00781,0.04766 -0.017969,0.075 l -0.1742188,0.477344 z"
         style="font-style:normal;font-variant:normal;font-weight:normal;font-stretch:normal;font-size:1.6px;font-family:'Yu Gothic UI';-inkscape-font-specification:'Yu Gothic UI';fill:#ece8e5;fill-opacity:1;stroke-width:0.101;stroke-miterlimit:4;stroke-dasharray:none"
         id="path1041" />
      <path
         d="M -8.4098595,93.206926 H -8.733297 v 1.001562 h -0.13125 v -1.001562 h -0.3226562 v -0.11875 h 0.7773437 z"
         style="font-style:normal;font-variant:normal;font-weight:normal;font-stretch:normal;font-size:1.6px;font-family:'Yu Gothic UI';-inkscape-font-specification:'Yu Gothic UI';fill:#ece8e5;fill-opacity:1;stroke-width:0.101;stroke-miterlimit:4;stroke-dasharray:none"
         id="path1043" />
      <path
         d="m -7.4309547,94.208488 h -0.15625 l -0.1875,-0.314062 q -0.025781,-0.04375 -0.05,-0.07422 -0.024219,-0.03125 -0.05,-0.05078 -0.025,-0.01953 -0.054687,-0.02812 -0.028906,-0.0094 -0.065625,-0.0094 h -0.1078125 v 0.476562 h -0.13125 v -1.120312 h 0.334375 q 0.073437,0 0.1351562,0.01875 0.0625,0.01797 0.1078125,0.05547 0.046094,0.0375 0.071875,0.09375 0.025781,0.05547 0.025781,0.130468 0,0.05859 -0.017969,0.107813 -0.017188,0.04844 -0.05,0.08672 -0.032031,0.03828 -0.078125,0.06562 -0.045313,0.02656 -0.1023437,0.04141 v 0.0031 q 0.028125,0.0125 0.048438,0.02891 0.021094,0.01563 0.039844,0.0375 0.01875,0.02188 0.036719,0.05 0.01875,0.02734 0.041406,0.06406 z m -0.671875,-1.001562 v 0.40625 h 0.178125 q 0.049219,0 0.090625,-0.01484 0.042187,-0.01484 0.072656,-0.04219 0.030469,-0.02813 0.047656,-0.06797 0.017188,-0.04062 0.017188,-0.09062 0,-0.08984 -0.058594,-0.139844 -0.057813,-0.05078 -0.1679687,-0.05078 z"
         style="font-style:normal;font-variant:normal;font-weight:normal;font-stretch:normal;font-size:1.6px;font-family:'Yu Gothic UI';-inkscape-font-specification:'Yu Gothic UI';fill:#ece8e5;fill-opacity:1;stroke-width:0.101;stroke-miterlimit:4;stroke-dasharray:none"
         id="path1045" />
      <path
         d="m -7.1457985,94.208488 h -0.13125 v -1.120312 h 0.13125 z"
         style="font-style:normal;font-variant:normal;font-weight:normal;font-stretch:normal;font-size:1.6px;font-family:'Yu Gothic UI';-inkscape-font-specification:'Yu Gothic UI';fill:#ece8e5;fill-opacity:1;stroke-width:0.101;stroke-miterlimit:4;stroke-dasharray:none"
         id="path1047" />
      <path
         d="M -6.0778297,94.208488 H -6.237986 l -0.2578125,-0.428906 q -0.011719,-0.01953 -0.025781,-0.05547 h -0.00312 q -0.00781,0.01797 -0.026562,0.05547 l -0.265625,0.428906 h -0.1609375 l 0.375,-0.563281 -0.3453125,-0.557031 h 0.1609375 l 0.2289062,0.39375 q 0.022656,0.03906 0.039844,0.07813 h 0.00313 q 0.025,-0.05156 0.04375,-0.08125 l 0.2382812,-0.390625 h 0.1507813 l -0.3523438,0.555469 z"
         style="font-style:normal;font-variant:normal;font-weight:normal;font-stretch:normal;font-size:1.6px;font-family:'Yu Gothic UI';-inkscape-font-specification:'Yu Gothic UI';fill:#ece8e5;fill-opacity:1;stroke-width:0.101;stroke-miterlimit:4;stroke-dasharray:none"
         id="path1049" />
    </g>
    <g
       aria-label="MOD AMOUNT"
       id="text41910"
       style="font-style:normal;font-variant:normal;font-weight:bold;font-stretch:normal;font-size:1px;line-height:1;font-family:'Yu Gothic UI';-inkscape-font-specification:'Yu Gothic UI Bold';letter-spacing:0px;word-spacing:0px;fill:#ece8e5;fill-opacity:1;stroke-width:0.0733241">
      <path
         d="m -27.390081,106.63044 h -0.115235 v -0.45313 q 0,-0.0557 0.0068,-0.13623 h -0.002 q -0.01074,0.0459 -0.01904,0.0659 l -0.208984,0.52344 h -0.08008 l -0.209473,-0.51953 q -0.0088,-0.023 -0.01855,-0.0698 h -0.002 q 0.0039,0.042 0.0039,0.13721 v 0.45215 h -0.107422 v -0.7002 h 0.163575 l 0.184082,0.46631 q 0.021,0.0537 0.02734,0.0801 h 0.0024 q 0.01807,-0.0552 0.0293,-0.082 l 0.1875,-0.46436 h 0.157715 z"
         style="font-style:normal;font-variant:normal;font-weight:bold;font-stretch:normal;font-size:1px;font-family:'Yu Gothic UI';-inkscape-font-specification:'Yu Gothic UI Bold';fill:#ece8e5;fill-opacity:1;stroke-width:0.0733241"
         id="path992" />
      <path
         d="m -26.929144,106.64216 q -0.151367,0 -0.242676,-0.0982 -0.09082,-0.0981 -0.09082,-0.25537 0,-0.16894 0.09277,-0.26953 0.09277,-0.10058 0.251954,-0.10058 0.147461,0 0.237304,0.0977 0.09033,0.0977 0.09033,0.25537 0,0.17139 -0.09229,0.271 -0.09229,0.0996 -0.246582,0.0996 z m 0.0054,-0.62158 q -0.09619,0 -0.156738,0.0718 -0.06006,0.0718 -0.06006,0.18897 0,0.1167 0.05859,0.18799 0.05859,0.0713 0.15332,0.0713 0.100586,0 0.158692,-0.0679 0.05811,-0.0679 0.05811,-0.18994 0,-0.12548 -0.05664,-0.19384 -0.05615,-0.0684 -0.155274,-0.0684 z"
         style="font-style:normal;font-variant:normal;font-weight:bold;font-stretch:normal;font-size:1px;font-family:'Yu Gothic UI';-inkscape-font-specification:'Yu Gothic UI Bold';fill:#ece8e5;fill-opacity:1;stroke-width:0.0733241"
         id="path994" />
      <path
         d="m -26.461859,106.63044 v -0.7002 h 0.202149 q 0.387207,0 0.387207,0.34131 0,0.16211 -0.107422,0.26075 -0.107422,0.0981 -0.288086,0.0981 z m 0.115723,-0.60156 v 0.50342 h 0.09277 q 0.122559,0 0.19043,-0.0674 0.06836,-0.0674 0.06836,-0.19043 0,-0.2456 -0.254394,-0.2456 z"
         style="font-style:normal;font-variant:normal;font-weight:bold;font-stretch:normal;font-size:1px;font-family:'Yu Gothic UI';-inkscape-font-specification:'Yu Gothic UI Bold';fill:#ece8e5;fill-opacity:1;stroke-width:0.0733241"
         id="path996" />
      <path
         d="m -24.894476,106.63044 h -0.127441 l -0.06299,-0.17822 h -0.27539 l -0.06055,0.17822 h -0.126953 l 0.262207,-0.7002 h 0.130859 z m -0.221191,-0.27295 -0.09717,-0.2793 q -0.0044,-0.0137 -0.0093,-0.0439 h -0.002 q -0.0044,0.0278 -0.0098,0.0439 l -0.09619,0.2793 z"
         style="font-style:normal;font-variant:normal;font-weight:bold;font-stretch:normal;font-size:1px;font-family:'Yu Gothic UI';-inkscape-font-specification:'Yu Gothic UI Bold';fill:#ece8e5;fill-opacity:1;stroke-width:0.0733241"
         id="path998" />
      <path
         d="m -24.046331,106.63044 h -0.115235 v -0.45313 q 0,-0.0557 0.0068,-0.13623 h -0.002 q -0.01074,0.0459 -0.01904,0.0659 l -0.208984,0.52344 h -0.08008 l -0.209473,-0.51953 q -0.0088,-0.023 -0.01855,-0.0698 h -0.002 q 0.0039,0.042 0.0039,0.13721 v 0.45215 h -0.107422 v -0.7002 h 0.163575 l 0.184082,0.46631 q 0.021,0.0537 0.02734,0.0801 h 0.0024 q 0.01807,-0.0552 0.0293,-0.082 l 0.1875,-0.46436 h 0.157715 z"
         style="font-style:normal;font-variant:normal;font-weight:bold;font-stretch:normal;font-size:1px;font-family:'Yu Gothic UI';-inkscape-font-specification:'Yu Gothic UI Bold';fill:#ece8e5;fill-opacity:1;stroke-width:0.0733241"
         id="path1000" />
      <path
         d="m -23.585394,106.64216 q -0.151367,0 -0.242676,-0.0982 -0.09082,-0.0981 -0.09082,-0.25537 0,-0.16894 0.09277,-0.26953 0.09277,-0.10058 0.251954,-0.10058 0.147461,0 0.237304,0.0977 0.09033,0.0977 0.09033,0.25537 0,0.17139 -0.09229,0.271 -0.09229,0.0996 -0.246582,0.0996 z m 0.0054,-0.62158 q -0.09619,0 -0.156738,0.0718 -0.06006,0.0718 -0.06006,0.18897 0,0.1167 0.05859,0.18799 0.05859,0.0713 0.15332,0.0713 0.100586,0 0.158692,-0.0679 0.05811,-0.0679 0.05811,-0.18994 0,-0.12548 -0.05664,-0.19384 -0.05615,-0.0684 -0.155274,-0.0684 z"
         style="font-style:normal;font-variant:normal;font-weight:bold;font-stretch:normal;font-size:1px;font-family:'Yu Gothic UI';-inkscape-font-specification:'Yu Gothic UI Bold';fill:#ece8e5;fill-opacity:1;stroke-width:0.0733241"
         id="path1002" />
      <path
         d="m -22.579535,106.34724 q 0,0.29492 -0.279296,0.29492 -0.267579,0 -0.267579,-0.28369 v -0.42823 h 0.116211 v 0.4043 q 0,0.20606 0.160157,0.20606 0.154297,0 0.154297,-0.19873 v -0.41163 h 0.11621 z"
         style="font-style:normal;font-variant:normal;font-weight:bold;font-stretch:normal;font-size:1px;font-family:'Yu Gothic UI';-inkscape-font-specification:'Yu Gothic UI Bold';fill:#ece8e5;fill-opacity:1;stroke-width:0.0733241"
         id="path1004" />
      <path
         d="m -21.821234,106.63044 h -0.126953 l -0.334473,-0.51465 q -0.0127,-0.0195 -0.021,-0.0405 h -0.0029 q 0.0039,0.0225 0.0039,0.0962 v 0.45898 h -0.112305 v -0.7002 h 0.135254 l 0.323242,0.50245 q 0.02051,0.0312 0.02637,0.043 h 0.002 q -0.0049,-0.0278 -0.0049,-0.0942 v -0.45118 h 0.111816 z"
         style="font-style:normal;font-variant:normal;font-weight:bold;font-stretch:normal;font-size:1px;font-family:'Yu Gothic UI';-inkscape-font-specification:'Yu Gothic UI Bold';fill:#ece8e5;fill-opacity:1;stroke-width:0.0733241"
         id="path1006" />
      <path
         d="m -21.198675,106.02888 h -0.201172 v 0.60156 h -0.116211 v -0.60156 h -0.200684 v -0.0986 h 0.518067 z"
         style="font-style:normal;font-variant:normal;font-weight:bold;font-stretch:normal;font-size:1px;font-family:'Yu Gothic UI';-inkscape-font-specification:'Yu Gothic UI Bold';fill:#ece8e5;fill-opacity:1;stroke-width:0.0733241"
         id="path1008" />
    </g>
    <g
       aria-label="MOD ASSIGN"
       id="text41910-8"
       style="font-style:normal;font-variant:normal;font-weight:bold;font-stretch:normal;font-size:1px;line-height:1;font-family:'Yu Gothic UI';-inkscape-font-specification:'Yu Gothic UI Bold';letter-spacing:0px;word-spacing:0px;fill:#ece8e5;fill-opacity:1;stroke-width:0.0733241">
      <path
         d="m -19.114487,105.08788 h -0.115234 v -0.45312 q 0,-0.0557 0.0068,-0.13623 h -0.002 q -0.01074,0.0459 -0.01904,0.0659 l -0.208985,0.52343 h -0.08008 l -0.209472,-0.51953 q -0.0088,-0.0229 -0.01856,-0.0698 h -0.002 q 0.0039,0.042 0.0039,0.1372 v 0.45215 h -0.107422 v -0.70019 h 0.163574 l 0.184082,0.46631 q 0.021,0.0537 0.02734,0.0801 h 0.0024 q 0.01807,-0.0552 0.0293,-0.082 l 0.1875,-0.46435 h 0.157715 z"
         style="font-style:normal;font-variant:normal;font-weight:bold;font-stretch:normal;font-size:1px;font-family:'Yu Gothic UI';-inkscape-font-specification:'Yu Gothic UI Bold';fill:#ece8e5;fill-opacity:1;stroke-width:0.0733241"
         id="path973" />
      <path
         d="m -18.653549,105.0996 q -0.151367,0 -0.242676,-0.0981 -0.09082,-0.0981 -0.09082,-0.25537 0,-0.16895 0.09277,-0.26954 0.09277,-0.10058 0.251953,-0.10058 0.147461,0 0.237305,0.0977 0.09033,0.0977 0.09033,0.25537 0,0.17138 -0.09229,0.27099 -0.09228,0.0996 -0.246582,0.0996 z m 0.0054,-0.62158 q -0.09619,0 -0.156738,0.0718 -0.06006,0.0718 -0.06006,0.18896 0,0.1167 0.05859,0.18799 0.05859,0.0713 0.15332,0.0713 0.100586,0 0.158691,-0.0679 0.05811,-0.0679 0.05811,-0.18994 0,-0.12549 -0.05664,-0.19385 -0.05615,-0.0684 -0.155273,-0.0684 z"
         style="font-style:normal;font-variant:normal;font-weight:bold;font-stretch:normal;font-size:1px;font-family:'Yu Gothic UI';-inkscape-font-specification:'Yu Gothic UI Bold';fill:#ece8e5;fill-opacity:1;stroke-width:0.0733241"
         id="path975" />
      <path
         d="m -18.186264,105.08788 v -0.70019 h 0.202148 q 0.387207,0 0.387207,0.34131 0,0.16211 -0.107421,0.26074 -0.107422,0.0981 -0.288086,0.0981 z m 0.115723,-0.60156 v 0.50342 h 0.09277 q 0.122559,0 0.19043,-0.0674 0.06836,-0.0674 0.06836,-0.19043 0,-0.24561 -0.254394,-0.24561 z"
         style="font-style:normal;font-variant:normal;font-weight:bold;font-stretch:normal;font-size:1px;font-family:'Yu Gothic UI';-inkscape-font-specification:'Yu Gothic UI Bold';fill:#ece8e5;fill-opacity:1;stroke-width:0.0733241"
         id="path977" />
      <path
         d="m -16.618881,105.08788 h -0.127442 l -0.06299,-0.17822 h -0.275391 l -0.06055,0.17822 h -0.126954 l 0.262207,-0.70019 h 0.13086 z m -0.221192,-0.27295 -0.09717,-0.27929 q -0.0044,-0.0137 -0.0093,-0.0439 h -0.002 q -0.0044,0.0278 -0.0098,0.0439 l -0.09619,0.27929 z"
         style="font-style:normal;font-variant:normal;font-weight:bold;font-stretch:normal;font-size:1px;font-family:'Yu Gothic UI';-inkscape-font-specification:'Yu Gothic UI Bold';fill:#ece8e5;fill-opacity:1;stroke-width:0.0733241"
         id="path979" />
      <path
         d="m -16.554916,105.06005 v -0.11963 q 0.01611,0.0147 0.03809,0.0264 0.02246,0.0117 0.04736,0.02 0.0249,0.008 0.04981,0.0122 0.0249,0.004 0.0459,0.004 0.07324,0 0.108887,-0.0244 0.03613,-0.0244 0.03613,-0.0708 0,-0.0249 -0.01221,-0.043 -0.01172,-0.0186 -0.0332,-0.0337 -0.02148,-0.0151 -0.05078,-0.0288 -0.02881,-0.0142 -0.06201,-0.0293 -0.03564,-0.019 -0.06641,-0.0386 -0.03076,-0.0195 -0.05371,-0.043 -0.02246,-0.0239 -0.03564,-0.0537 -0.0127,-0.0298 -0.0127,-0.0698 0,-0.0493 0.02197,-0.0854 0.02246,-0.0366 0.05859,-0.0601 0.03662,-0.0239 0.08301,-0.0351 0.04639,-0.0117 0.09473,-0.0117 0.109863,0 0.160156,0.0249 v 0.11475 q -0.05957,-0.043 -0.15332,-0.043 -0.02588,0 -0.05176,0.005 -0.02539,0.005 -0.0459,0.0161 -0.02002,0.0112 -0.03271,0.0288 -0.01269,0.0176 -0.01269,0.0425 0,0.0234 0.0098,0.0405 0.0098,0.0171 0.02832,0.0312 0.01904,0.0142 0.0459,0.0278 0.02734,0.0132 0.06299,0.0288 0.03662,0.019 0.06885,0.04 0.03271,0.021 0.05713,0.0464 0.0249,0.0254 0.03906,0.0566 0.01465,0.0308 0.01465,0.0703 0,0.0532 -0.02148,0.0898 -0.02148,0.0366 -0.05811,0.0596 -0.03613,0.0229 -0.0835,0.0332 -0.04736,0.0102 -0.100098,0.0102 -0.01758,0 -0.04346,-0.003 -0.02539,-0.002 -0.05225,-0.008 -0.02685,-0.005 -0.05078,-0.0122 -0.02393,-0.007 -0.03857,-0.0166 z"
         style="font-style:normal;font-variant:normal;font-weight:bold;font-stretch:normal;font-size:1px;font-family:'Yu Gothic UI';-inkscape-font-specification:'Yu Gothic UI Bold';fill:#ece8e5;fill-opacity:1;stroke-width:0.0733241"
         id="path981" />
      <path
         d="m -16.010483,105.06005 v -0.11963 q 0.01611,0.0147 0.03809,0.0264 0.02246,0.0117 0.04736,0.02 0.0249,0.008 0.04981,0.0122 0.0249,0.004 0.0459,0.004 0.07324,0 0.108886,-0.0244 0.03613,-0.0244 0.03613,-0.0708 0,-0.0249 -0.01221,-0.043 -0.01172,-0.0186 -0.0332,-0.0337 -0.02148,-0.0151 -0.05078,-0.0288 -0.02881,-0.0142 -0.06201,-0.0293 -0.03565,-0.019 -0.06641,-0.0386 -0.03076,-0.0195 -0.05371,-0.043 -0.02246,-0.0239 -0.03565,-0.0537 -0.0127,-0.0298 -0.0127,-0.0698 0,-0.0493 0.02197,-0.0854 0.02246,-0.0366 0.05859,-0.0601 0.03662,-0.0239 0.08301,-0.0351 0.04639,-0.0117 0.09473,-0.0117 0.109863,0 0.160156,0.0249 v 0.11475 q -0.05957,-0.043 -0.15332,-0.043 -0.02588,0 -0.05176,0.005 -0.02539,0.005 -0.0459,0.0161 -0.02002,0.0112 -0.03271,0.0288 -0.0127,0.0176 -0.0127,0.0425 0,0.0234 0.0098,0.0405 0.0098,0.0171 0.02832,0.0312 0.01904,0.0142 0.0459,0.0278 0.02734,0.0132 0.06299,0.0288 0.03662,0.019 0.06885,0.04 0.03271,0.021 0.05713,0.0464 0.0249,0.0254 0.03906,0.0566 0.01465,0.0308 0.01465,0.0703 0,0.0532 -0.02148,0.0898 -0.02148,0.0366 -0.05811,0.0596 -0.03613,0.0229 -0.0835,0.0332 -0.04736,0.0102 -0.100097,0.0102 -0.01758,0 -0.04346,-0.003 -0.02539,-0.002 -0.05225,-0.008 -0.02686,-0.005 -0.05078,-0.0122 -0.02393,-0.007 -0.03857,-0.0166 z"
         style="font-style:normal;font-variant:normal;font-weight:bold;font-stretch:normal;font-size:1px;font-family:'Yu Gothic UI';-inkscape-font-specification:'Yu Gothic UI Bold';fill:#ece8e5;fill-opacity:1;stroke-width:0.0733241"
         id="path983" />
      <path
         d="m -15.314682,105.08788 h -0.119629 v -0.70019 h 0.119629 z"
         style="font-style:normal;font-variant:normal;font-weight:bold;font-stretch:normal;font-size:1px;font-family:'Yu Gothic UI';-inkscape-font-specification:'Yu Gothic UI Bold';fill:#ece8e5;fill-opacity:1;stroke-width:0.0733241"
         id="path985" />
      <path
         d="m -14.595932,105.04003 q -0.109375,0.0596 -0.243652,0.0596 -0.155274,0 -0.251465,-0.0967 -0.09619,-0.0967 -0.09619,-0.25586 0,-0.16259 0.104981,-0.2666 0.105469,-0.10449 0.267578,-0.10449 0.116699,0 0.196289,0.0342 v 0.11963 q -0.08057,-0.0537 -0.191894,-0.0537 -0.111817,0 -0.183594,0.0737 -0.07129,0.0737 -0.07129,0.19092 0,0.1206 0.06152,0.18994 0.06152,0.0688 0.166992,0.0688 0.07227,0 0.125,-0.0278 v -0.1665 h -0.147461 v -0.0977 h 0.263184 z"
         style="font-style:normal;font-variant:normal;font-weight:bold;font-stretch:normal;font-size:1px;font-family:'Yu Gothic UI';-inkscape-font-specification:'Yu Gothic UI Bold';fill:#ece8e5;fill-opacity:1;stroke-width:0.0733241"
         id="path987" />
      <path
         d="m -13.851303,105.08788 h -0.126953 l -0.334473,-0.51465 q -0.0127,-0.0195 -0.021,-0.0405 h -0.0029 q 0.0039,0.0225 0.0039,0.0962 v 0.45898 h -0.112305 v -0.70019 h 0.135254 l 0.323242,0.50244 q 0.02051,0.0312 0.02637,0.043 h 0.002 q -0.0049,-0.0278 -0.0049,-0.0942 v -0.45117 h 0.111817 z"
         style="font-style:normal;font-variant:normal;font-weight:bold;font-stretch:normal;font-size:1px;font-family:'Yu Gothic UI';-inkscape-font-specification:'Yu Gothic UI Bold';fill:#ece8e5;fill-opacity:1;stroke-width:0.0733241"
         id="path989" />
    </g>
    <path
       style="fill:none;stroke:#ece8e5;stroke-width:0.1;stroke-linecap:round;stroke-linejoin:miter;stroke-miterlimit:4;stroke-dasharray:none;stroke-opacity:1"
       d="m -25.719339,102.3852 -0.663956,1.15045"
       id="path5187" />
    <path
       style="fill:none;stroke:#ece8e5;stroke-width:0.1;stroke-linecap:round;stroke-linejoin:miter;stroke-miterlimit:4;stroke-dasharray:none;stroke-opacity:1"
       d="m -26.339456,101.73201 -1.091406,0.75241"
       id="path5189" />
    <path
       style="fill:none;stroke:#ece8e5;stroke-width:0.1;stroke-linecap:round;stroke-linejoin:miter;stroke-miterlimit:4;stroke-dasharray:none;stroke-opacity:1"
       d="m -26.752867,100.91345 -1.165821,0.21498"
       id="path5191" />
    <path
       style="fill:none;stroke:#ece8e5;stroke-width:0.1;stroke-linecap:round;stroke-linejoin:miter;stroke-miterlimit:4;stroke-dasharray:none;stroke-opacity:1"
       d="m -26.728063,100.004 -1.149284,-0.314195"
       id="path5193" />
    <path
       style="fill:none;stroke:#ece8e5;stroke-width:0.1;stroke-linecap:round;stroke-linejoin:miter;stroke-miterlimit:4;stroke-dasharray:none;stroke-opacity:1"
       d="m -26.298115,99.193705 -0.917773,-0.76894"
       id="path5195" />
    <path
       style="fill:none;stroke:#ece8e5;stroke-width:0.1;stroke-linecap:round;stroke-linejoin:miter;stroke-miterlimit:4;stroke-dasharray:none;stroke-opacity:1"
       d="m -25.545706,98.623195 -0.520898,-1.0666"
       id="path5197" />
    <path
       style="fill:none;stroke:#ece8e5;stroke-width:0.0965304;stroke-linecap:round;stroke-linejoin:miter;stroke-miterlimit:4;stroke-dasharray:none;stroke-opacity:1"
       d="m -24.671009,98.451295 0.0059,-1.19058"
       id="path5199" />
    <path
       style="fill:none;stroke:#ece8e5;stroke-width:0.1;stroke-linecap:round;stroke-linejoin:miter;stroke-miterlimit:4;stroke-dasharray:none;stroke-opacity:1"
       d="m -23.759769,98.631465 0.504362,-1.08314"
       id="path5201" />
    <path
       style="fill:none;stroke:#ece8e5;stroke-width:0.1;stroke-linecap:round;stroke-linejoin:miter;stroke-miterlimit:4;stroke-dasharray:none;stroke-opacity:1"
       d="m -23.023896,99.177175 0.926041,-0.76068"
       id="path5203" />
    <path
       style="fill:none;stroke:#ece8e5;stroke-width:0.1;stroke-linecap:round;stroke-linejoin:miter;stroke-miterlimit:4;stroke-dasharray:none;stroke-opacity:1"
       d="m -22.593948,100.004 1.149284,-0.297665"
       id="path5205" />
    <path
       style="fill:none;stroke:#ece8e5;stroke-width:0.1;stroke-linecap:round;stroke-linejoin:miter;stroke-miterlimit:4;stroke-dasharray:none;stroke-opacity:1"
       d="m -22.544339,100.92172 1.149284,0.21498"
       id="path5207" />
    <path
       style="fill:none;stroke:#ece8e5;stroke-width:0.1;stroke-linecap:round;stroke-linejoin:miter;stroke-miterlimit:4;stroke-dasharray:none;stroke-opacity:1"
       d="m -22.966019,101.74028 1.066602,0.75241"
       id="path5209" />
    <path
       style="fill:none;stroke:#ece8e5;stroke-width:0.1;stroke-linecap:round;stroke-linejoin:miter;stroke-miterlimit:4;stroke-dasharray:none;stroke-opacity:1"
       d="m -23.619209,102.3852 0.67214,1.14208"
       id="path5211" />
    <path
       style="fill:none;stroke:#ece8e5;stroke-width:0.0965304;stroke-linecap:round;stroke-linejoin:miter;stroke-miterlimit:4;stroke-dasharray:none;stroke-opacity:1"
       d="m -24.672232,103.74121 0.0059,-1.19059"
       id="path5199-2" />
    <g
       aria-label="1"
       id="text41910-8-1"
       style="font-style:normal;font-variant:normal;font-weight:bold;font-stretch:normal;font-size:1px;line-height:1;font-family:'Yu Gothic UI';-inkscape-font-specification:'Yu Gothic UI Bold';letter-spacing:0px;word-spacing:0px;fill:#ece8e5;fill-opacity:1;stroke-width:0.0733241">
      <path
         d="m -11.088936,104.39309 v 0.71582 h -0.113281 v -0.57715 q -0.03076,0.022 -0.06641,0.0376 -0.03516,0.0151 -0.08057,0.0268 v -0.0967 q 0.02832,-0.009 0.05469,-0.0195 0.02637,-0.0102 0.05176,-0.023 0.02588,-0.0127 0.05176,-0.0283 0.02637,-0.0156 0.0542,-0.0356 z"
         style="font-style:normal;font-variant:normal;font-weight:bold;font-stretch:normal;font-size:1px;font-family:'Yu Gothic UI';-inkscape-font-specification:'Yu Gothic UI Bold';fill:#ece8e5;fill-opacity:1;stroke-width:0.0733241"
         id="path970" />
    </g>
    <g
       aria-label="2"
       id="text41910-8-1-3"
       style="font-style:normal;font-variant:normal;font-weight:bold;font-stretch:normal;font-size:1px;line-height:1;font-family:'Yu Gothic UI';-inkscape-font-specification:'Yu Gothic UI Bold';letter-spacing:0px;word-spacing:0px;fill:#ece8e5;fill-opacity:1;stroke-width:0.0733241">
      <path
         d="m -6.4898148,105.11673 h -0.4394531 v -0.0542 q 0,-0.0332 0.00928,-0.062 0.00928,-0.0293 0.024902,-0.0547 0.015625,-0.0259 0.036621,-0.0483 0.020996,-0.023 0.044922,-0.0439 0.023926,-0.0215 0.048828,-0.041 0.024902,-0.02 0.048828,-0.04 0.022461,-0.019 0.041016,-0.0371 0.018555,-0.0186 0.031738,-0.0381 0.013184,-0.0195 0.020508,-0.041 0.00732,-0.022 0.00732,-0.0474 0,-0.0278 -0.00879,-0.0483 -0.0083,-0.021 -0.023926,-0.0347 -0.015137,-0.0142 -0.036133,-0.021 -0.020996,-0.007 -0.045898,-0.007 -0.042969,0 -0.087402,0.02 -0.044434,0.02 -0.085449,0.0601 v -0.10889 q 0.021484,-0.0161 0.043457,-0.0278 0.021973,-0.0122 0.04541,-0.02 0.023437,-0.008 0.049316,-0.0122 0.025879,-0.004 0.055176,-0.004 0.047363,0 0.085937,0.0127 0.038574,0.0122 0.065918,0.0366 0.027344,0.0239 0.041992,0.0601 0.015137,0.0361 0.015137,0.083 0,0.0425 -0.010742,0.0767 -0.010254,0.0337 -0.029785,0.063 -0.019043,0.0293 -0.046387,0.0557 -0.027344,0.0264 -0.061035,0.0542 -0.02832,0.0229 -0.056641,0.0449 -0.027832,0.0215 -0.050293,0.0425 -0.022461,0.0205 -0.036621,0.0415 -0.013672,0.0205 -0.013672,0.0415 v 0.002 h 0.3159179 z"
         style="font-style:normal;font-variant:normal;font-weight:bold;font-stretch:normal;font-size:1px;font-family:'Yu Gothic UI';-inkscape-font-specification:'Yu Gothic UI Bold';fill:#ece8e5;fill-opacity:1;stroke-width:0.0733241"
         id="path967" />
    </g>
    <g
       aria-label="3"
       id="text41910-8-1-3-2"
       style="font-style:normal;font-variant:normal;font-weight:bold;font-stretch:normal;font-size:1px;line-height:1;font-family:'Yu Gothic UI';-inkscape-font-specification:'Yu Gothic UI Bold';letter-spacing:0px;word-spacing:0px;fill:#ece8e5;fill-opacity:1;stroke-width:0.0733241">
      <path
         d="m -2.2897706,105.11251 v -0.10644 q 0.068359,0.0542 0.1542969,0.0542 0.069824,0 0.1113281,-0.0317 0.041992,-0.0317 0.041992,-0.0859 0,-0.11914 -0.1821289,-0.11914 h -0.054199 v -0.0908 h 0.051758 q 0.1616211,0 0.1616211,-0.11231 0,-0.10351 -0.1259766,-0.10351 -0.070312,0 -0.1323242,0.0503 v -0.10059 q 0.071289,-0.04 0.168457,-0.04 0.093262,0 0.1494141,0.0469 0.056152,0.0469 0.056152,0.12012 0,0.13818 -0.140625,0.17773 v 0.002 q 0.075684,0.007 0.1196289,0.0532 0.043945,0.0454 0.043945,0.11377 0,0.0942 -0.070801,0.15234 -0.070801,0.0576 -0.1865235,0.0576 -0.1040039,0 -0.1660156,-0.0376 z"
         style="font-style:normal;font-variant:normal;font-weight:bold;font-stretch:normal;font-size:1px;font-family:'Yu Gothic UI';-inkscape-font-specification:'Yu Gothic UI Bold';fill:#ece8e5;fill-opacity:1;stroke-width:0.0733241"
         id="path964" />
    </g>
    <g
       aria-label="4"
       id="text41910-8-1-3-2-9"
       style="font-style:normal;font-variant:normal;font-weight:bold;font-stretch:normal;font-size:1px;line-height:1;font-family:'Yu Gothic UI';-inkscape-font-specification:'Yu Gothic UI Bold';letter-spacing:0px;word-spacing:0px;fill:#ece8e5;fill-opacity:1;stroke-width:0.0733241">
      <path
         d="m 2.2795306,104.42867 v 0.45215 h 0.104004 v 0.0942 h -0.104004 v 0.15381 H 2.1696674 v -0.15381 H 1.8527728 v -0.0952 q 0.042969,-0.0483 0.087891,-0.10449 0.04541,-0.0566 0.086914,-0.11523 0.041992,-0.0591 0.077637,-0.11817 0.035645,-0.0591 0.060059,-0.11328 z m -0.1098632,0.45215 v -0.29394 q -0.053223,0.0957 -0.1054688,0.16699 -0.051758,0.0713 -0.097168,0.12695 z"
         style="font-style:normal;font-variant:normal;font-weight:bold;font-stretch:normal;font-size:1px;font-family:'Yu Gothic UI';-inkscape-font-specification:'Yu Gothic UI Bold';fill:#ece8e5;fill-opacity:1;stroke-width:0.0733241"
         id="path961" />
    </g>
    <g
       aria-label="5"
       id="text41910-8-1-3-2-9-6"
       style="font-style:normal;font-variant:normal;font-weight:bold;font-stretch:normal;font-size:1px;line-height:1;font-family:'Yu Gothic UI';-inkscape-font-specification:'Yu Gothic UI Bold';letter-spacing:0px;word-spacing:0px;fill:#ece8e5;fill-opacity:1;stroke-width:0.0733241">
      <path
         d="m 6.1953135,105.15266 v -0.10888 q 0.068848,0.0464 0.1396484,0.0464 0.071289,0 0.1147461,-0.0361 0.043457,-0.0366 0.043457,-0.0972 0,-0.0596 -0.044434,-0.0928 -0.043945,-0.0332 -0.1264648,-0.0332 -0.02832,0 -0.1147461,0.006 l 0.024902,-0.36817 h 0.3447266 v 0.0967 H 6.3266611 l -0.011719,0.17529 q 0.033691,-0.002 0.061035,-0.002 0.1113281,0 0.171875,0.0571 0.061035,0.0571 0.061035,0.15625 0,0.104 -0.069824,0.16699 -0.069336,0.0625 -0.190918,0.0625 -0.1025391,0 -0.152832,-0.0288 z"
         style="font-style:normal;font-variant:normal;font-weight:bold;font-stretch:normal;font-size:1px;font-family:'Yu Gothic UI';-inkscape-font-specification:'Yu Gothic UI Bold';fill:#ece8e5;fill-opacity:1;stroke-width:0.0733241"
         id="path958" />
    </g>
    <g
       aria-label="6"
       id="text41910-8-1-3-2-9-6-7"
       style="font-style:normal;font-variant:normal;font-weight:bold;font-stretch:normal;font-size:1px;line-height:1;font-family:'Yu Gothic UI';-inkscape-font-specification:'Yu Gothic UI Bold';letter-spacing:0px;word-spacing:0px;fill:#ece8e5;fill-opacity:1;stroke-width:0.0733241">
      <path
         d="m 10.628513,104.92391 q 0,0.0527 -0.01758,0.0962 -0.01709,0.0435 -0.04785,0.0752 -0.03076,0.0312 -0.07324,0.0488 -0.04199,0.0171 -0.09131,0.0171 -0.05274,0 -0.09717,-0.0205 -0.04395,-0.0205 -0.07617,-0.061 -0.03174,-0.0405 -0.04932,-0.10058 -0.01758,-0.0606 -0.01758,-0.14014 0,-0.0972 0.02295,-0.17236 0.02344,-0.0752 0.06396,-0.12598 0.04053,-0.0508 0.09521,-0.0772 0.05469,-0.0264 0.118164,-0.0264 0.03955,0 0.07178,0.005 0.03271,0.005 0.05225,0.0147 v 0.10205 q -0.0249,-0.0127 -0.05322,-0.0215 -0.02832,-0.009 -0.06494,-0.009 -0.04102,0 -0.07568,0.0166 -0.03467,0.0166 -0.06006,0.0488 -0.0249,0.0317 -0.03955,0.0791 -0.01416,0.0469 -0.01465,0.1084 h 0.0029 q 0.02246,-0.0347 0.06055,-0.0547 0.03857,-0.02 0.09033,-0.02 0.0459,0 0.08252,0.0151 0.03711,0.0147 0.06299,0.043 0.02637,0.0278 0.04053,0.0684 0.01416,0.04 0.01416,0.0903 z m -0.114257,0.009 q 0,-0.0303 -0.0073,-0.0552 -0.0068,-0.0249 -0.02148,-0.0425 -0.01416,-0.0181 -0.03613,-0.0278 -0.02148,-0.01 -0.05078,-0.01 -0.0293,0 -0.05176,0.0107 -0.02197,0.0102 -0.03711,0.0273 -0.01514,0.0171 -0.02295,0.0391 -0.0073,0.022 -0.0073,0.0449 0,0.0249 0.0068,0.0513 0.0073,0.0259 0.02197,0.0474 0.01465,0.0215 0.03711,0.0356 0.02295,0.0137 0.0542,0.0137 0.02783,0 0.04932,-0.0103 0.02148,-0.0102 0.03564,-0.0283 0.01465,-0.0181 0.02197,-0.0425 0.0078,-0.0249 0.0078,-0.0537 z"
         style="font-style:normal;font-variant:normal;font-weight:bold;font-stretch:normal;font-size:1px;font-family:'Yu Gothic UI';-inkscape-font-specification:'Yu Gothic UI Bold';fill:#ece8e5;fill-opacity:1;stroke-width:0.0733241"
         id="path955" />
    </g>
    <g
       aria-label="7"
       id="text41910-8-1-3-2-9-6-7-3"
       style="font-style:normal;font-variant:normal;font-weight:bold;font-stretch:normal;font-size:1px;line-height:1;font-family:'Yu Gothic UI';-inkscape-font-specification:'Yu Gothic UI Bold';letter-spacing:0px;word-spacing:0px;fill:#ece8e5;fill-opacity:1;stroke-width:0.0733241">
      <path
         d="m 15.108285,104.50748 q -0.04395,0.0806 -0.08301,0.15966 -0.03906,0.0786 -0.0708,0.15821 -0.03174,0.0796 -0.05518,0.16064 -0.02344,0.0806 -0.03613,0.16504 h -0.118653 q 0.01172,-0.0752 0.0332,-0.1499 0.02197,-0.0752 0.05127,-0.1499 0.0293,-0.0752 0.06543,-0.15088 0.03662,-0.0757 0.07764,-0.15283 h -0.331542 v -0.0967 h 0.467773 z"
         style="font-style:normal;font-variant:normal;font-weight:bold;font-stretch:normal;font-size:1px;font-family:'Yu Gothic UI';-inkscape-font-specification:'Yu Gothic UI Bold';fill:#ece8e5;fill-opacity:1;stroke-width:0.0733241"
         id="path952" />
    </g>
    <g
       aria-label="8"
       id="text41910-8-1-3-2-9-6-7-3-3"
       style="font-style:normal;font-variant:normal;font-weight:bold;font-stretch:normal;font-size:1px;line-height:1;font-family:'Yu Gothic UI';-inkscape-font-specification:'Yu Gothic UI Bold';letter-spacing:0px;word-spacing:0px;fill:#ece8e5;fill-opacity:1;stroke-width:0.0733241">
      <path
         d="m 18.659983,104.91565 q 0,-0.0303 0.0073,-0.0586 0.0078,-0.0283 0.02295,-0.0523 0.01514,-0.0239 0.03809,-0.043 0.02295,-0.019 0.05371,-0.0308 -0.04541,-0.0254 -0.07227,-0.0649 -0.02685,-0.04 -0.02685,-0.0884 0,-0.0386 0.01563,-0.0713 0.01611,-0.0327 0.04395,-0.0566 0.02832,-0.0239 0.06641,-0.0371 0.03809,-0.0137 0.08301,-0.0137 0.04541,0 0.0835,0.0137 0.03858,0.0137 0.06641,0.0376 0.02832,0.0239 0.04395,0.0566 0.01563,0.0327 0.01563,0.0708 0,0.0483 -0.02686,0.0884 -0.02685,0.0396 -0.07129,0.0649 0.03027,0.0117 0.05322,0.0308 0.02344,0.0186 0.03906,0.0425 0.01563,0.0239 0.02344,0.0523 0.0078,0.0283 0.0078,0.0591 0,0.0459 -0.01709,0.084 -0.01709,0.0381 -0.04785,0.0654 -0.03076,0.0269 -0.07373,0.042 -0.04297,0.0151 -0.09473,0.0151 -0.05127,0 -0.09424,-0.0151 -0.04248,-0.0151 -0.07373,-0.042 -0.03076,-0.0273 -0.04834,-0.0654 -0.01709,-0.0381 -0.01709,-0.084 z m 0.110351,-0.01 q 0,0.0298 0.0088,0.0537 0.0088,0.0239 0.0249,0.0405 0.01611,0.0166 0.03857,0.0254 0.02295,0.009 0.05078,0.009 0.02686,0 0.04932,-0.009 0.02246,-0.009 0.03857,-0.0259 0.0166,-0.0171 0.02588,-0.0405 0.0093,-0.0239 0.0093,-0.0532 0,-0.0268 -0.0088,-0.0503 -0.0088,-0.0239 -0.0249,-0.0415 -0.01611,-0.0176 -0.03906,-0.0278 -0.02246,-0.0102 -0.05029,-0.0102 -0.02637,0 -0.04932,0.01 -0.02246,0.009 -0.03906,0.0268 -0.01611,0.0171 -0.02539,0.041 -0.0093,0.0239 -0.0093,0.0522 z m 0.02393,-0.3164 q 0,0.022 0.0078,0.041 0.0078,0.0186 0.021,0.0327 0.01318,0.0137 0.03076,0.0215 0.01807,0.008 0.03858,0.008 0.02051,0 0.03808,-0.008 0.01807,-0.008 0.03125,-0.022 0.01367,-0.0142 0.02149,-0.0327 0.0078,-0.019 0.0078,-0.0405 0,-0.022 -0.0078,-0.041 -0.0073,-0.019 -0.02051,-0.0327 -0.01318,-0.0137 -0.03125,-0.0215 -0.01807,-0.008 -0.03906,-0.008 -0.02197,0 -0.04004,0.008 -0.01807,0.008 -0.03125,0.022 -0.01269,0.0142 -0.02002,0.0332 -0.0068,0.0185 -0.0068,0.0395 z"
         style="font-style:normal;font-variant:normal;font-weight:bold;font-stretch:normal;font-size:1px;font-family:'Yu Gothic UI';-inkscape-font-specification:'Yu Gothic UI Bold';fill:#ece8e5;fill-opacity:1;stroke-width:0.0733241"
         id="path949" />
    </g>
    <g
       aria-label="A"
       id="text41910-8-1-3-2-9-6-7-3-3-1"
       style="font-style:normal;font-variant:normal;font-weight:bold;font-stretch:normal;font-size:1px;line-height:1;font-family:'Yu Gothic UI';-inkscape-font-specification:'Yu Gothic UI Bold';letter-spacing:0px;word-spacing:0px;fill:#ece8e5;fill-opacity:1;stroke-width:0.0733241">
      <path
         d="m 25.084866,105.08839 h -0.127442 l -0.06299,-0.17823 h -0.275391 l -0.06055,0.17823 h -0.126953 l 0.262207,-0.7002 h 0.13086 z m -0.221192,-0.27295 -0.09717,-0.2793 q -0.0044,-0.0137 -0.0093,-0.0439 h -0.002 q -0.0044,0.0278 -0.0098,0.0439 l -0.09619,0.2793 z"
         style="font-style:normal;font-variant:normal;font-weight:bold;font-stretch:normal;font-size:1px;font-family:'Yu Gothic UI';-inkscape-font-specification:'Yu Gothic UI Bold';fill:#ece8e5;fill-opacity:1;stroke-width:0.0733241"
         id="path946" />
    </g>
    <g
       aria-label="B"
       id="text41910-8-1-3-2-9-6-7-3-3-1-5"
       style="font-style:normal;font-variant:normal;font-weight:bold;font-stretch:normal;font-size:1px;line-height:1;font-family:'Yu Gothic UI';-inkscape-font-specification:'Yu Gothic UI Bold';letter-spacing:0px;word-spacing:0px;fill:#ece8e5;fill-opacity:1;stroke-width:0.0733241">
      <path
         d="m 29.112108,105.09913 v -0.7002 h 0.222168 q 0.101563,0 0.160645,0.0444 0.05957,0.0444 0.05957,0.11572 0,0.0596 -0.03369,0.10352 -0.03369,0.0439 -0.09326,0.0625 v 0.002 q 0.07227,0.008 0.115234,0.0537 0.04346,0.0449 0.04346,0.11719 0,0.0898 -0.0708,0.1455 -0.0708,0.0557 -0.178711,0.0557 z m 0.115723,-0.60693 v 0.19921 h 0.0752 q 0.06055,0 0.09473,-0.0283 0.03467,-0.0288 0.03467,-0.081 0,-0.0898 -0.120117,-0.0898 z m 0,0.29248 v 0.22168 h 0.09912 q 0.06494,0 0.100098,-0.0298 0.03564,-0.0303 0.03564,-0.083 0,-0.10888 -0.150879,-0.10888 z"
         style="font-style:normal;font-variant:normal;font-weight:bold;font-stretch:normal;font-size:1px;font-family:'Yu Gothic UI';-inkscape-font-specification:'Yu Gothic UI Bold';fill:#ece8e5;fill-opacity:1;stroke-width:0.0733241"
         id="path943" />
    </g>
    <g
       aria-label="C"
       id="text41910-8-1-3-2-9-6-7-3-3-1-5-5"
       style="font-style:normal;font-variant:normal;font-weight:bold;font-stretch:normal;font-size:1px;line-height:1;font-family:'Yu Gothic UI';-inkscape-font-specification:'Yu Gothic UI Bold';letter-spacing:0px;word-spacing:0px;fill:#ece8e5;fill-opacity:1;stroke-width:0.0733241">
      <path
         d="m 33.824959,105.07066 q -0.0791,0.041 -0.196778,0.041 -0.152343,0 -0.24414,-0.0962 -0.0918,-0.0962 -0.0918,-0.25244 0,-0.16797 0.103027,-0.27149 0.103516,-0.10351 0.261231,-0.10351 0.101562,0 0.168457,0.0288 v 0.11523 q -0.0708,-0.042 -0.15625,-0.042 -0.11377,0 -0.184571,0.0727 -0.07031,0.0728 -0.07031,0.19434 0,0.11572 0.06592,0.18457 0.06592,0.0684 0.17334,0.0684 0.09912,0 0.171875,-0.0469 z"
         style="font-style:normal;font-variant:normal;font-weight:bold;font-stretch:normal;font-size:1px;font-family:'Yu Gothic UI';-inkscape-font-specification:'Yu Gothic UI Bold';fill:#ece8e5;fill-opacity:1;stroke-width:0.0733241"
         id="path940" />
    </g>
    <g
       aria-label="D"
       id="text41910-8-1-3-2-9-6-7-3-3-1-5-5-1"
       style="font-style:normal;font-variant:normal;font-weight:bold;font-stretch:normal;font-size:1px;line-height:1;font-family:'Yu Gothic UI';-inkscape-font-specification:'Yu Gothic UI Bold';letter-spacing:0px;word-spacing:0px;fill:#ece8e5;fill-opacity:1;stroke-width:0.0733241">
      <path
         d="m 37.44965,105.11788 v -0.70019 h 0.202148 q 0.387207,0 0.387207,0.34131 0,0.1621 -0.107422,0.26074 -0.107421,0.0981 -0.288086,0.0981 z m 0.115722,-0.60156 v 0.50342 h 0.09277 q 0.122558,0 0.19043,-0.0674 0.06836,-0.0674 0.06836,-0.19043 0,-0.2456 -0.254395,-0.2456 z"
         style="font-style:normal;font-variant:normal;font-weight:bold;font-stretch:normal;font-size:1px;font-family:'Yu Gothic UI';-inkscape-font-specification:'Yu Gothic UI Bold';fill:#ece8e5;fill-opacity:1;stroke-width:0.0733241"
         id="path937" />
    </g>
    <g
       aria-label="E"
       id="text41910-8-1-3-2-9-6-7-3-3-1-5-5-1-0"
       style="font-style:normal;font-variant:normal;font-weight:bold;font-stretch:normal;font-size:1px;line-height:1;font-family:'Yu Gothic UI';-inkscape-font-specification:'Yu Gothic UI Bold';letter-spacing:0px;word-spacing:0px;fill:#ece8e5;fill-opacity:1;stroke-width:0.0733241">
      <path
         d="m 41.960766,105.09711 h -0.393067 v -0.7002 h 0.377442 v 0.0986 H 41.68391 v 0.19825 h 0.240723 v 0.0981 H 41.68391 v 0.20703 h 0.276856 z"
         style="font-style:normal;font-variant:normal;font-weight:bold;font-stretch:normal;font-size:1px;font-family:'Yu Gothic UI';-inkscape-font-specification:'Yu Gothic UI Bold';fill:#ece8e5;fill-opacity:1;stroke-width:0.0733241"
         id="path934" />
    </g>
    <g
       aria-label="F"
       id="text41910-8-1-3-2-9-6-7-3-3-1-5-5-1-0-2"
       style="font-style:normal;font-variant:normal;font-weight:bold;font-stretch:normal;font-size:1px;line-height:1;font-family:'Yu Gothic UI';-inkscape-font-specification:'Yu Gothic UI Bold';letter-spacing:0px;word-spacing:0px;fill:#ece8e5;fill-opacity:1;stroke-width:0.0733241">
      <path
         d="m 46.635674,104.50858 h -0.261719 v 0.21044 h 0.241211 v 0.0982 h -0.241211 v 0.29297 h -0.116211 v -0.7002 h 0.37793 z"
         style="font-style:normal;font-variant:normal;font-weight:bold;font-stretch:normal;font-size:1px;font-family:'Yu Gothic UI';-inkscape-font-specification:'Yu Gothic UI Bold';fill:#ece8e5;fill-opacity:1;stroke-width:0.0733241"
         id="path931" />
    </g>
    <g
       aria-label="G"
       id="text41910-8-1-3-2-9-6-7-3-3-1-5-5-1-0-2-9"
       style="font-style:normal;font-variant:normal;font-weight:bold;font-stretch:normal;font-size:1px;line-height:1;font-family:'Yu Gothic UI';-inkscape-font-specification:'Yu Gothic UI Bold';letter-spacing:0px;word-spacing:0px;fill:#ece8e5;fill-opacity:1;stroke-width:0.0733241">
      <path
         d="m 50.743004,105.06719 q -0.109375,0.0596 -0.243652,0.0596 -0.155274,0 -0.251465,-0.0967 -0.09619,-0.0967 -0.09619,-0.25586 0,-0.16259 0.104981,-0.2666 0.105468,-0.10449 0.267578,-0.10449 0.116699,0 0.196289,0.0342 v 0.11963 q -0.08057,-0.0537 -0.191895,-0.0537 -0.111816,0 -0.183593,0.0737 -0.07129,0.0737 -0.07129,0.19092 0,0.1206 0.06152,0.18994 0.06152,0.0688 0.166992,0.0688 0.07227,0 0.125,-0.0278 v -0.1665 H 50.47982 v -0.0977 h 0.263184 z"
         style="font-style:normal;font-variant:normal;font-weight:bold;font-stretch:normal;font-size:1px;font-family:'Yu Gothic UI';-inkscape-font-specification:'Yu Gothic UI Bold';fill:#ece8e5;fill-opacity:1;stroke-width:0.0733241"
         id="path928" />
    </g>
    <g
       aria-label="H"
       id="text41910-8-1-3-2-9-6-7-3-3-1-5-5-1-0-2-9-6"
       style="font-style:normal;font-variant:normal;font-weight:bold;font-stretch:normal;font-size:1px;line-height:1;font-family:'Yu Gothic UI';-inkscape-font-specification:'Yu Gothic UI Bold';letter-spacing:0px;word-spacing:0px;fill:#ece8e5;fill-opacity:1;stroke-width:0.0733241">
      <path
         d="m 54.900295,105.11217 h -0.116699 v -0.30371 h -0.32959 v 0.30371 h -0.116211 v -0.7002 h 0.116211 v 0.29444 h 0.32959 v -0.29444 h 0.116699 z"
         style="font-style:normal;font-variant:normal;font-weight:bold;font-stretch:normal;font-size:1px;font-family:'Yu Gothic UI';-inkscape-font-specification:'Yu Gothic UI Bold';fill:#ece8e5;fill-opacity:1;stroke-width:0.0733241"
         id="path925" />
    </g>
    <g
       aria-label="PATCH"
       id="text41910-8-1-3-2-9-6-7-3-3-1-5-5-1-0-2-9-6-6"
       style="font-style:normal;font-variant:normal;font-weight:bold;font-stretch:normal;font-size:1px;line-height:1;font-family:'Yu Gothic UI';-inkscape-font-specification:'Yu Gothic UI Bold';letter-spacing:0px;word-spacing:0px;fill:#ece8e5;fill-opacity:1;stroke-width:0.0733241">
      <path
         d="m 59.133022,104.83343 v 0.2539 H 59.0173 v -0.70019 h 0.212402 q 0.120605,0 0.187012,0.0562 0.06641,0.0562 0.06641,0.1582 0,0.10205 -0.06934,0.167 -0.06934,0.0649 -0.1875,0.0649 z m 0,-0.35059 v 0.25586 h 0.0752 q 0.07471,0 0.113769,-0.0347 0.03906,-0.0347 0.03906,-0.0977 0,-0.12354 -0.143555,-0.12354 z"
         style="font-style:normal;font-variant:normal;font-weight:bold;font-stretch:normal;font-size:1px;font-family:'Yu Gothic UI';-inkscape-font-specification:'Yu Gothic UI Bold';fill:#ece8e5;fill-opacity:1;stroke-width:0.0733241"
         id="path914" />
      <path
         d="M 60.141811,105.08733 H 60.01437 l -0.06299,-0.17822 h -0.275391 l -0.06055,0.17822 h -0.126953 l 0.262207,-0.70019 h 0.130859 z m -0.221191,-0.27295 -0.09717,-0.27929 q -0.0044,-0.0137 -0.0093,-0.0439 h -0.002 q -0.0044,0.0278 -0.0098,0.0439 l -0.09619,0.27929 z"
         style="font-style:normal;font-variant:normal;font-weight:bold;font-stretch:normal;font-size:1px;font-family:'Yu Gothic UI';-inkscape-font-specification:'Yu Gothic UI Bold';fill:#ece8e5;fill-opacity:1;stroke-width:0.0733241"
         id="path916" />
      <path
         d="m 60.647182,104.48577 h -0.201171 v 0.60156 H 60.3298 v -0.60156 h -0.200684 v -0.0986 h 0.518066 z"
         style="font-style:normal;font-variant:normal;font-weight:bold;font-stretch:normal;font-size:1px;font-family:'Yu Gothic UI';-inkscape-font-specification:'Yu Gothic UI Bold';fill:#ece8e5;fill-opacity:1;stroke-width:0.0733241"
         id="path918" />
      <path
         d="m 61.228237,105.05804 q -0.0791,0.041 -0.196777,0.041 -0.152344,0 -0.244141,-0.0962 -0.0918,-0.0962 -0.0918,-0.25244 0,-0.16797 0.103028,-0.27148 0.103515,-0.10352 0.26123,-0.10352 0.101563,0 0.168457,0.0288 v 0.11523 q -0.0708,-0.042 -0.15625,-0.042 -0.113769,0 -0.18457,0.0727 -0.07031,0.0728 -0.07031,0.19434 0,0.11572 0.06592,0.18457 0.06592,0.0684 0.17334,0.0684 0.09912,0 0.171875,-0.0469 z"
         style="font-style:normal;font-variant:normal;font-weight:bold;font-stretch:normal;font-size:1px;font-family:'Yu Gothic UI';-inkscape-font-specification:'Yu Gothic UI Bold';fill:#ece8e5;fill-opacity:1;stroke-width:0.0733241"
         id="path920" />
      <path
         d="m 61.92355,105.08733 h -0.1167 v -0.30371 h -0.329589 v 0.30371 H 61.36105 v -0.70019 h 0.116211 v 0.29443 h 0.329589 v -0.29443 h 0.1167 z"
         style="font-style:normal;font-variant:normal;font-weight:bold;font-stretch:normal;font-size:1px;font-family:'Yu Gothic UI';-inkscape-font-specification:'Yu Gothic UI Bold';fill:#ece8e5;fill-opacity:1;stroke-width:0.0733241"
         id="path922" />
    </g>
    <g
       aria-label="SHIFT"
       id="text41910-8-1-3-2-9-6-7-3-3-1-5-5-1-0-2-9-6-6-4"
       style="font-style:normal;font-variant:normal;font-weight:bold;font-stretch:normal;font-size:1px;line-height:1;font-family:'Yu Gothic UI';-inkscape-font-specification:'Yu Gothic UI Bold';letter-spacing:0px;word-spacing:0px;fill:#ece8e5;fill-opacity:1;stroke-width:0.0733241">
      <path
         d="m 65.132126,105.07132 v -0.11963 q 0.01611,0.0147 0.03809,0.0264 0.02246,0.0117 0.04736,0.02 0.0249,0.008 0.04981,0.0122 0.0249,0.004 0.0459,0.004 0.07324,0 0.108887,-0.0244 0.03613,-0.0244 0.03613,-0.0708 0,-0.0249 -0.01221,-0.043 -0.01172,-0.0186 -0.0332,-0.0337 -0.02148,-0.0151 -0.05078,-0.0288 -0.02881,-0.0142 -0.06201,-0.0293 -0.03565,-0.019 -0.06641,-0.0386 -0.03076,-0.0195 -0.05371,-0.043 -0.02246,-0.0239 -0.03564,-0.0537 -0.0127,-0.0298 -0.0127,-0.0698 0,-0.0493 0.02197,-0.0855 0.02246,-0.0366 0.05859,-0.0601 0.03662,-0.0239 0.08301,-0.0352 0.04639,-0.0117 0.09473,-0.0117 0.109864,0 0.160157,0.0249 v 0.11475 q -0.05957,-0.043 -0.153321,-0.043 -0.02588,0 -0.05176,0.005 -0.02539,0.005 -0.0459,0.0161 -0.02002,0.0112 -0.03272,0.0288 -0.01269,0.0176 -0.01269,0.0425 0,0.0234 0.0098,0.0405 0.0098,0.0171 0.02832,0.0312 0.01904,0.0142 0.0459,0.0278 0.02734,0.0132 0.06299,0.0288 0.03662,0.019 0.06885,0.04 0.03272,0.021 0.05713,0.0464 0.0249,0.0254 0.03906,0.0566 0.01465,0.0308 0.01465,0.0703 0,0.0532 -0.02148,0.0898 -0.02149,0.0366 -0.05811,0.0596 -0.03613,0.023 -0.0835,0.0332 -0.04736,0.0102 -0.100098,0.0102 -0.01758,0 -0.04346,-0.003 -0.02539,-0.002 -0.05225,-0.008 -0.02685,-0.005 -0.05078,-0.0122 -0.02393,-0.007 -0.03857,-0.0166 z"
         style="font-style:normal;font-variant:normal;font-weight:bold;font-stretch:normal;font-size:1px;font-family:'Yu Gothic UI';-inkscape-font-specification:'Yu Gothic UI Bold';fill:#ece8e5;fill-opacity:1;stroke-width:0.0733241"
         id="path903" />
      <path
         d="m 66.271286,105.09915 h -0.116699 v -0.30371 h -0.32959 v 0.30371 h -0.116211 v -0.70019 h 0.116211 v 0.29443 h 0.32959 v -0.29443 h 0.116699 z"
         style="font-style:normal;font-variant:normal;font-weight:bold;font-stretch:normal;font-size:1px;font-family:'Yu Gothic UI';-inkscape-font-specification:'Yu Gothic UI Bold';fill:#ece8e5;fill-opacity:1;stroke-width:0.0733241"
         id="path905" />
      <path
         d="m 66.563278,105.09915 h -0.119629 v -0.70019 h 0.119629 z"
         style="font-style:normal;font-variant:normal;font-weight:bold;font-stretch:normal;font-size:1px;font-family:'Yu Gothic UI';-inkscape-font-specification:'Yu Gothic UI Bold';fill:#ece8e5;fill-opacity:1;stroke-width:0.0733241"
         id="path907" />
      <path
         d="m 67.113571,104.49759 h -0.261719 v 0.21045 h 0.241211 v 0.0981 h -0.241211 v 0.29297 h -0.116211 v -0.70019 h 0.37793 z"
         style="font-style:normal;font-variant:normal;font-weight:bold;font-stretch:normal;font-size:1px;font-family:'Yu Gothic UI';-inkscape-font-specification:'Yu Gothic UI Bold';fill:#ece8e5;fill-opacity:1;stroke-width:0.0733241"
         id="path909" />
      <path
         d="M 67.687302,104.49759 H 67.48613 v 0.60156 h -0.116211 v -0.60156 h -0.200684 v -0.0986 h 0.518067 z"
         style="font-style:normal;font-variant:normal;font-weight:bold;font-stretch:normal;font-size:1px;font-family:'Yu Gothic UI';-inkscape-font-specification:'Yu Gothic UI Bold';fill:#ece8e5;fill-opacity:1;stroke-width:0.0733241"
         id="path911" />
    </g>
    <g
       aria-label="WAVE"
       id="text41910-8-1-3-2-9-6-7-3-3-1-5-5-1-0-2-9-6-6-4-6"
       style="font-style:normal;font-variant:normal;font-weight:bold;font-stretch:normal;font-size:1px;line-height:1;font-family:'Yu Gothic UI';-inkscape-font-specification:'Yu Gothic UI Bold';letter-spacing:0px;word-spacing:0px;fill:#ece8e5;fill-opacity:1;stroke-width:0.0733241">
      <path
         d="m 71.955322,104.40302 -0.191894,0.70019 H 71.63208 l -0.133301,-0.48975 q -0.0083,-0.0312 -0.01025,-0.0684 h -0.002 q -0.0024,0.0347 -0.01172,0.0674 l -0.13379,0.49072 h -0.134277 l -0.195801,-0.70019 h 0.127442 l 0.126953,0.51269 q 0.0078,0.0322 0.0098,0.0674 h 0.0024 q 0.002,-0.0249 0.01367,-0.0674 l 0.143554,-0.51269 h 0.119629 l 0.132813,0.5166 q 0.0068,0.0264 0.01025,0.0625 h 0.002 q 0.0015,-0.0244 0.01123,-0.0645 l 0.124512,-0.51464 z"
         style="font-style:normal;font-variant:normal;font-weight:bold;font-stretch:normal;font-size:1px;font-family:'Yu Gothic UI';-inkscape-font-specification:'Yu Gothic UI Bold';fill:#ece8e5;fill-opacity:1;stroke-width:0.0733241"
         id="path894" />
      <path
         d="m 72.582764,105.10321 h -0.127442 l -0.06299,-0.17822 h -0.275391 l -0.06055,0.17822 h -0.126953 l 0.262207,-0.70019 h 0.13086 z m -0.221192,-0.27295 -0.09717,-0.2793 q -0.0044,-0.0137 -0.0093,-0.0439 h -0.002 q -0.0044,0.0278 -0.0098,0.0439 l -0.09619,0.2793 z"
         style="font-style:normal;font-variant:normal;font-weight:bold;font-stretch:normal;font-size:1px;font-family:'Yu Gothic UI';-inkscape-font-specification:'Yu Gothic UI Bold';fill:#ece8e5;fill-opacity:1;stroke-width:0.0733241"
         id="path896" />
      <path
         d="m 73.182861,104.40302 -0.251465,0.70019 h -0.129882 l -0.247071,-0.70019 h 0.126953 l 0.172852,0.53125 q 0.0083,0.0254 0.0127,0.0591 h 0.002 q 0.0034,-0.0278 0.01416,-0.0601 l 0.176757,-0.53027 z"
         style="font-style:normal;font-variant:normal;font-weight:bold;font-stretch:normal;font-size:1px;font-family:'Yu Gothic UI';-inkscape-font-specification:'Yu Gothic UI Bold';fill:#ece8e5;fill-opacity:1;stroke-width:0.0733241"
         id="path898" />
      <path
         d="m 73.668701,105.10321 h -0.393066 v -0.70019 h 0.377441 v 0.0986 h -0.26123 v 0.19824 h 0.240722 v 0.0981 h -0.240722 v 0.20704 h 0.276855 z"
         style="font-style:normal;font-variant:normal;font-weight:bold;font-stretch:normal;font-size:1px;font-family:'Yu Gothic UI';-inkscape-font-specification:'Yu Gothic UI Bold';fill:#ece8e5;fill-opacity:1;stroke-width:0.0733241"
         id="path900" />
    </g>
  </g>
</svg>
