<?xml version="1.0" encoding="UTF-8" standalone="no"?>
<svg
   xmlns:dc="http://purl.org/dc/elements/1.1/"
   xmlns:cc="http://creativecommons.org/ns#"
   xmlns:rdf="http://www.w3.org/1999/02/22-rdf-syntax-ns#"
   xmlns:svg="http://www.w3.org/2000/svg"
   xmlns="http://www.w3.org/2000/svg"
   width="61.054253mm"
   height="28.054249mm"
   viewBox="0 0 61.054253 28.054249"
   version="1.1"
   id="svg22244">
  <defs
     id="defs22238" />
  <metadata
     id="metadata22241">
    <rdf:RDF>
      <cc:Work
         rdf:about="">
        <dc:format>image/svg+xml</dc:format>
        <dc:type
           rdf:resource="http://purl.org/dc/dcmitype/StillImage" />
        <dc:title />
      </cc:Work>
    </rdf:RDF>
  </metadata>
  <g
     id="layer1"
     transform="translate(-8.0264407,-104.65739)">
    <path
       id="rect41388-0-0-7-8-5-5"
       style="fill:none;fill-opacity:1;stroke:none;stroke-width:0.05;stroke-miterlimit:10;stroke-dasharray:none;stroke-opacity:1;paint-order:markers fill stroke"
       d="M 8.0535641,104.68452 H 69.053572 v 28 H 8.0535641 Z" />
    <path
       id="rect41866-4-9-8-1-3-3-1-5-1-6-9"
       style="fill:#000000;fill-opacity:1;stroke:#000000;stroke-width:0.0421658;stroke-miterlimit:10;stroke-dasharray:none;stroke-opacity:1;paint-order:markers fill stroke"
       d="m 11.512204,112.22005 c 0.59772,0 1.078917,0.50555 1.078917,1.13352 v 3.1554 c 0,0.62797 -0.481197,1.13352 -1.078917,1.13352 -0.59772,0 -1.078917,-0.50555 -1.078917,-1.13352 v -3.1554 c 0,-0.62797 0.481197,-1.13352 1.078917,-1.13352 z" />
    <path
       id="rect41866-4-9-8-1-3-3-1-5-1-6-9-9"
       style="fill:#000000;fill-opacity:1;stroke:#000000;stroke-width:0.0421658;stroke-miterlimit:10;stroke-dasharray:none;stroke-opacity:1;paint-order:markers fill stroke"
       d="m 11.484523,123.68977 c 0.597721,0 1.078918,0.50555 1.078918,1.13352 v 3.15541 c 0,0.62797 -0.481197,1.13352 -1.078918,1.13352 -0.59772,0 -1.078917,-0.50555 -1.078917,-1.13352 v -3.15541 c 0,-0.62797 0.481197,-1.13352 1.078917,-1.13352 z" />
    <g
       aria-label="ENVELOPES"
       id="text41512"
       style="font-style:normal;font-variant:normal;font-weight:bold;font-stretch:normal;font-size:1.6px;line-height:1.25;font-family:'Yu Gothic UI';-inkscape-font-specification:'Yu Gothic UI Bold';letter-spacing:0px;word-spacing:0px;fill:#ece8e5;fill-opacity:1;stroke-width:0.101;stroke-miterlimit:4;stroke-dasharray:none">
      <path
         d="m 10.868053,107.17721 h -0.59375 v -1.12031 h 0.56875 v 0.11875 h -0.4375 v 0.37265 h 0.404688 v 0.11797 h -0.404688 v 0.39219 h 0.4625 z"
         style="font-style:normal;font-variant:normal;font-weight:normal;font-stretch:normal;font-size:1.6px;font-family:'Yu Gothic UI';-inkscape-font-specification:'Yu Gothic UI';fill:#ece8e5;fill-opacity:1;stroke-width:0.101;stroke-miterlimit:4;stroke-dasharray:none"
         id="path999" />
      <path
         d="m 11.986803,107.17721 h -0.160937 l -0.576563,-0.89297 q -0.02187,-0.0336 -0.03594,-0.0703 h -0.0047 q 0.0062,0.0359 0.0062,0.1539 v 0.80938 h -0.13125 v -1.12031 h 0.170313 l 0.560937,0.8789 q 0.03516,0.0547 0.04531,0.075 h 0.0031 q -0.0078,-0.0484 -0.0078,-0.16484 v -0.78906 h 0.13125 z"
         style="font-style:normal;font-variant:normal;font-weight:normal;font-stretch:normal;font-size:1.6px;font-family:'Yu Gothic UI';-inkscape-font-specification:'Yu Gothic UI';fill:#ece8e5;fill-opacity:1;stroke-width:0.101;stroke-miterlimit:4;stroke-dasharray:none"
         id="path1001" />
      <path
         d="m 13.113365,106.0569 -0.414843,1.12031 H 12.55399 l -0.40625,-1.12031 h 0.146094 l 0.310156,0.88828 q 0.01484,0.043 0.02266,0.0992 h 0.0031 q 0.0062,-0.0469 0.02578,-0.10079 l 0.316406,-0.88671 z"
         style="font-style:normal;font-variant:normal;font-weight:normal;font-stretch:normal;font-size:1.6px;font-family:'Yu Gothic UI';-inkscape-font-specification:'Yu Gothic UI';fill:#ece8e5;fill-opacity:1;stroke-width:0.101;stroke-miterlimit:4;stroke-dasharray:none"
         id="path1003" />
      <path
         d="m 13.868053,107.17721 h -0.59375 v -1.12031 h 0.56875 v 0.11875 h -0.4375 v 0.37265 h 0.404688 v 0.11797 h -0.404688 v 0.39219 h 0.4625 z"
         style="font-style:normal;font-variant:normal;font-weight:normal;font-stretch:normal;font-size:1.6px;font-family:'Yu Gothic UI';-inkscape-font-specification:'Yu Gothic UI';fill:#ece8e5;fill-opacity:1;stroke-width:0.101;stroke-miterlimit:4;stroke-dasharray:none"
         id="path1005" />
      <path
         d="m 14.664928,107.17721 h -0.58125 v -1.12031 h 0.13125 v 1.00156 h 0.45 z"
         style="font-style:normal;font-variant:normal;font-weight:normal;font-stretch:normal;font-size:1.6px;font-family:'Yu Gothic UI';-inkscape-font-specification:'Yu Gothic UI';fill:#ece8e5;fill-opacity:1;stroke-width:0.101;stroke-miterlimit:4;stroke-dasharray:none"
         id="path1007" />
      <path
         d="m 15.272741,107.19596 q -0.238282,0 -0.382032,-0.15703 -0.142968,-0.15703 -0.142968,-0.4086 0,-0.27031 0.146093,-0.43125 0.146094,-0.16093 0.397657,-0.16093 0.232031,0 0.373437,0.15625 0.142188,0.15625 0.142188,0.40859 0,0.27422 -0.145313,0.43359 -0.145312,0.15938 -0.389062,0.15938 z m 0.0094,-1.03906 q -0.176563,0 -0.286719,0.12734 -0.110156,0.12734 -0.110156,0.33437 0,0.20704 0.107031,0.3336 0.107812,0.12578 0.280469,0.12578 0.184375,0 0.290625,-0.12031 0.10625,-0.12032 0.10625,-0.33672 0,-0.22188 -0.103125,-0.34297 -0.103125,-0.12109 -0.284375,-0.12109 z"
         style="font-style:normal;font-variant:normal;font-weight:normal;font-stretch:normal;font-size:1.6px;font-family:'Yu Gothic UI';-inkscape-font-specification:'Yu Gothic UI';fill:#ece8e5;fill-opacity:1;stroke-width:0.101;stroke-miterlimit:4;stroke-dasharray:none"
         id="path1009" />
      <path
         d="m 16.158678,106.75377 v 0.42344 h -0.13125 v -1.12031 h 0.307813 q 0.179687,0 0.278125,0.0875 0.09922,0.0875 0.09922,0.24687 0,0.15938 -0.110157,0.26094 -0.109375,0.10156 -0.296093,0.10156 z m 0,-0.57812 v 0.45937 h 0.1375 q 0.135938,0 0.207032,-0.0617 0.07188,-0.0625 0.07188,-0.17578 0,-0.22187 -0.2625,-0.22187 z"
         style="font-style:normal;font-variant:normal;font-weight:normal;font-stretch:normal;font-size:1.6px;font-family:'Yu Gothic UI';-inkscape-font-specification:'Yu Gothic UI';fill:#ece8e5;fill-opacity:1;stroke-width:0.101;stroke-miterlimit:4;stroke-dasharray:none"
         id="path1011" />
      <path
         d="m 17.517272,107.17721 h -0.59375 v -1.12031 h 0.56875 v 0.11875 h -0.4375 v 0.37265 h 0.404688 v 0.11797 h -0.404688 v 0.39219 h 0.4625 z"
         style="font-style:normal;font-variant:normal;font-weight:normal;font-stretch:normal;font-size:1.6px;font-family:'Yu Gothic UI';-inkscape-font-specification:'Yu Gothic UI';fill:#ece8e5;fill-opacity:1;stroke-width:0.101;stroke-miterlimit:4;stroke-dasharray:none"
         id="path1013" />
      <path
         d="m 17.680553,107.1319 v -0.15469 q 0.02656,0.0234 0.06328,0.0422 0.0375,0.0187 0.07813,0.032 0.04141,0.0125 0.08281,0.0195 0.04141,0.007 0.07656,0.007 0.121094,0 0.180469,-0.0445 0.06016,-0.0453 0.06016,-0.12969 0,-0.0453 -0.02031,-0.0789 -0.01953,-0.0336 -0.05469,-0.0609 -0.03516,-0.0281 -0.08359,-0.0531 -0.04766,-0.0258 -0.103125,-0.0539 -0.05859,-0.0297 -0.109375,-0.0602 -0.05078,-0.0305 -0.08828,-0.0672 -0.0375,-0.0367 -0.05937,-0.0828 -0.02109,-0.0469 -0.02109,-0.10938 0,-0.0766 0.03359,-0.13281 0.03359,-0.057 0.08828,-0.0937 0.05469,-0.0367 0.124218,-0.0547 0.07031,-0.018 0.142969,-0.018 0.165625,0 0.241406,0.0398 v 0.14766 q -0.09922,-0.0688 -0.254687,-0.0688 -0.04297,0 -0.08594,0.009 -0.04297,0.009 -0.07656,0.0289 -0.03359,0.0203 -0.05469,0.0523 -0.02109,0.032 -0.02109,0.0781 0,0.043 0.01563,0.0742 0.01641,0.0312 0.04766,0.057 0.03125,0.0258 0.07578,0.05 0.04531,0.0242 0.103906,0.0531 0.06016,0.0297 0.114063,0.0625 0.05391,0.0328 0.09453,0.0727 0.04063,0.0398 0.06406,0.0883 0.02422,0.0484 0.02422,0.11094 0,0.0828 -0.03281,0.14062 -0.03203,0.057 -0.0875,0.093 -0.05469,0.0359 -0.126563,0.0516 -0.07187,0.0164 -0.151562,0.0164 -0.02656,0 -0.06563,-0.005 -0.03906,-0.004 -0.07969,-0.0125 -0.04062,-0.008 -0.07734,-0.0195 -0.03594,-0.0125 -0.05781,-0.0273 z"
         style="font-style:normal;font-variant:normal;font-weight:normal;font-stretch:normal;font-size:1.6px;font-family:'Yu Gothic UI';-inkscape-font-specification:'Yu Gothic UI';fill:#ece8e5;fill-opacity:1;stroke-width:0.101;stroke-miterlimit:4;stroke-dasharray:none"
         id="path1015" />
    </g>
    <path
       style="fill:none;stroke:#ece8e5;stroke-width:0.1;stroke-linecap:butt;stroke-linejoin:miter;stroke-opacity:1;stroke-miterlimit:4;stroke-dasharray:none"
       d="m 9.0264407,105.65739 v 26"
       id="path8949" />
    <path
       style="fill:none;stroke:#fe5045;stroke-width:0.265;stroke-linecap:butt;stroke-linejoin:miter;stroke-opacity:1;stroke-miterlimit:4;stroke-dasharray:none"
       d="m 10.026441,107.65739 58,0"
       id="path8951" />
    <g
       aria-label="ENV 1"
       id="text41910"
       style="font-style:normal;font-variant:normal;font-weight:normal;font-stretch:normal;font-size:1.3px;line-height:1;font-family:'Yu Gothic UI';-inkscape-font-specification:'Yu Gothic UI';letter-spacing:0px;word-spacing:0px;fill:#ece8e5;fill-opacity:1;stroke-width:0.0733241">
      <path
         d="m 28.111996,109.34668 h -0.482421 v -0.91025 h 0.462109 v 0.0965 h -0.355469 v 0.30278 h 0.328809 v 0.0958 h -0.328809 v 0.31866 h 0.375781 z"
         style="font-style:normal;font-variant:normal;font-weight:normal;font-stretch:normal;font-size:1.3px;font-family:'Yu Gothic UI';-inkscape-font-specification:'Yu Gothic UI';fill:#ece8e5;fill-opacity:1;stroke-width:0.0733241"
         id="path990" />
      <path
         d="m 29.020981,109.34668 h -0.130762 l -0.468457,-0.72554 q -0.01777,-0.0273 -0.0292,-0.0571 h -0.0038 q 0.0051,0.0292 0.0051,0.12505 v 0.65762 h -0.10664 v -0.91025 h 0.138379 l 0.455761,0.71411 q 0.02857,0.0444 0.03682,0.0609 h 0.0025 q -0.0063,-0.0393 -0.0063,-0.13393 v -0.64111 h 0.106641 z"
         style="font-style:normal;font-variant:normal;font-weight:normal;font-stretch:normal;font-size:1.3px;font-family:'Yu Gothic UI';-inkscape-font-specification:'Yu Gothic UI';fill:#ece8e5;fill-opacity:1;stroke-width:0.0733241"
         id="path992" />
      <path
         d="m 29.936313,108.43643 -0.337061,0.91025 h -0.117431 l -0.330078,-0.91025 h 0.118701 l 0.252002,0.72172 q 0.01206,0.0349 0.01841,0.0806 h 0.0025 q 0.0051,-0.0381 0.02095,-0.0819 l 0.25708,-0.72045 z"
         style="font-style:normal;font-variant:normal;font-weight:normal;font-stretch:normal;font-size:1.3px;font-family:'Yu Gothic UI';-inkscape-font-specification:'Yu Gothic UI';fill:#ece8e5;fill-opacity:1;stroke-width:0.0733241"
         id="path994" />
      <path
         d="m 30.763412,109.34668 h -0.104101 v -0.78647 q -0.01206,0.0121 -0.03555,0.0279 -0.02285,0.0152 -0.05205,0.0305 -0.02856,0.0152 -0.06094,0.0286 -0.03174,0.0133 -0.06221,0.0209 v -0.10538 q 0.03428,-0.01 0.07236,-0.0254 0.03872,-0.0165 0.07554,-0.0362 0.03745,-0.0203 0.07046,-0.0419 0.03301,-0.0222 0.05713,-0.0432 h 0.03936 z"
         style="font-style:normal;font-variant:normal;font-weight:normal;font-stretch:normal;font-size:1.3px;font-family:'Yu Gothic UI';-inkscape-font-specification:'Yu Gothic UI';fill:#ece8e5;fill-opacity:1;stroke-width:0.0733241"
         id="path996" />
    </g>
    <g
       aria-label="ENV 2"
       id="text41910-3"
       style="font-style:normal;font-variant:normal;font-weight:normal;font-stretch:normal;font-size:1.3px;line-height:1;font-family:'Yu Gothic UI';-inkscape-font-specification:'Yu Gothic UI';letter-spacing:0px;word-spacing:0px;fill:#ece8e5;fill-opacity:1;stroke-width:0.0733241">
      <path
         d="m 55.179314,109.43334 h -0.482421 v -0.91025 h 0.462109 v 0.0965 h -0.355469 v 0.30279 h 0.328809 v 0.0958 h -0.328809 v 0.31865 h 0.375781 z"
         style="font-style:normal;font-variant:normal;font-weight:normal;font-stretch:normal;font-size:1.3px;font-family:'Yu Gothic UI';-inkscape-font-specification:'Yu Gothic UI';fill:#ece8e5;fill-opacity:1;stroke-width:0.0733241"
         id="path981" />
      <path
         d="M 56.088299,109.43334 H 55.957537 L 55.48908,108.7078 q -0.01777,-0.0273 -0.0292,-0.0571 h -0.0038 q 0.0051,0.0292 0.0051,0.12504 v 0.65762 h -0.10664 v -0.91025 h 0.138379 l 0.455761,0.71411 q 0.02857,0.0444 0.03682,0.0609 h 0.0025 q -0.0063,-0.0394 -0.0063,-0.13394 v -0.64111 h 0.106641 z"
         style="font-style:normal;font-variant:normal;font-weight:normal;font-stretch:normal;font-size:1.3px;font-family:'Yu Gothic UI';-inkscape-font-specification:'Yu Gothic UI';fill:#ece8e5;fill-opacity:1;stroke-width:0.0733241"
         id="path983" />
      <path
         d="m 57.003631,108.52309 -0.337061,0.91025 h -0.117431 l -0.330079,-0.91025 h 0.118702 l 0.252002,0.72173 q 0.01206,0.0349 0.01841,0.0806 h 0.0025 q 0.0051,-0.0381 0.02095,-0.0819 l 0.25708,-0.72046 z"
         style="font-style:normal;font-variant:normal;font-weight:normal;font-stretch:normal;font-size:1.3px;font-family:'Yu Gothic UI';-inkscape-font-specification:'Yu Gothic UI';fill:#ece8e5;fill-opacity:1;stroke-width:0.0733241"
         id="path985" />
      <path
         d="m 57.861199,108.76176 q 0,-0.0419 -0.01333,-0.073 -0.0127,-0.0311 -0.03555,-0.0514 -0.02222,-0.0209 -0.05269,-0.0311 -0.03047,-0.0101 -0.06602,-0.0101 -0.03047,0 -0.05967,0.008 -0.0292,0.008 -0.05713,0.0229 -0.0273,0.0146 -0.05332,0.0349 -0.02539,0.0203 -0.04761,0.0451 v -0.11172 q 0.0438,-0.0425 0.09775,-0.0647 0.05459,-0.0229 0.132666,-0.0229 0.05586,0 0.103467,0.0165 0.04761,0.0159 0.08252,0.047 0.03491,0.0311 0.05459,0.0768 0.02031,0.0457 0.02031,0.10473 0,0.054 -0.0127,0.0978 -0.01206,0.0438 -0.03745,0.0825 -0.02475,0.0387 -0.06284,0.0743 -0.03809,0.0356 -0.0895,0.0724 -0.06411,0.0457 -0.106006,0.0781 -0.04126,0.0324 -0.06602,0.0609 -0.02412,0.0279 -0.03428,0.0565 -0.0095,0.0279 -0.0095,0.0647 h 0.453223 v 0.0933 h -0.561768 v -0.0451 q 0,-0.0584 0.0127,-0.10283 0.01269,-0.0444 0.04189,-0.0844 0.0292,-0.04 0.07617,-0.08 0.04761,-0.04 0.116162,-0.0901 0.04951,-0.0356 0.08252,-0.0679 0.03364,-0.0324 0.05396,-0.0648 0.02031,-0.0324 0.02856,-0.0654 0.0089,-0.0336 0.0089,-0.0711 z"
         style="font-style:normal;font-variant:normal;font-weight:normal;font-stretch:normal;font-size:1.3px;font-family:'Yu Gothic UI';-inkscape-font-specification:'Yu Gothic UI';fill:#ece8e5;fill-opacity:1;stroke-width:0.0733241"
         id="path987" />
    </g>
    <g
       aria-label="H"
       id="text41910-2"
       style="font-style:normal;font-variant:normal;font-weight:bold;font-stretch:normal;font-size:1px;line-height:1;font-family:'Yu Gothic UI';-inkscape-font-specification:'Yu Gothic UI Bold';letter-spacing:0px;word-spacing:0px;fill:#ece8e5;fill-opacity:1;stroke-width:0.0733241">
      <path
         d="m 19.471174,130.99974 h -0.116699 v -0.30371 h -0.32959 v 0.30371 h -0.116211 v -0.70019 h 0.116211 v 0.29443 h 0.32959 v -0.29443 h 0.116699 z"
         style="font-style:normal;font-variant:normal;font-weight:bold;font-stretch:normal;font-size:1px;font-family:'Yu Gothic UI';-inkscape-font-specification:'Yu Gothic UI Bold';fill:#ece8e5;fill-opacity:1;stroke-width:0.0733241"
         id="path978" />
    </g>
    <g
       aria-label="A"
       id="text41910-2-4"
       style="font-style:normal;font-variant:normal;font-weight:bold;font-stretch:normal;font-size:1px;line-height:1;font-family:'Yu Gothic UI';-inkscape-font-specification:'Yu Gothic UI Bold';letter-spacing:0px;word-spacing:0px;fill:#ece8e5;fill-opacity:1;stroke-width:0.0733241">
      <path
         d="m 24.3692,131.01418 h -0.127442 l -0.06299,-0.17823 h -0.275391 l -0.06055,0.17823 h -0.126954 l 0.262207,-0.7002 h 0.13086 z m -0.221192,-0.27295 -0.09717,-0.2793 q -0.0044,-0.0137 -0.0093,-0.0439 h -0.002 q -0.0044,0.0278 -0.0098,0.0439 l -0.09619,0.2793 z"
         style="font-style:normal;font-variant:normal;font-weight:bold;font-stretch:normal;font-size:1px;font-family:'Yu Gothic UI';-inkscape-font-specification:'Yu Gothic UI Bold';fill:#ece8e5;fill-opacity:1;stroke-width:0.0733241"
         id="path975" />
    </g>
    <g
       aria-label="D"
       id="text41910-2-4-8"
       style="font-style:normal;font-variant:normal;font-weight:bold;font-stretch:normal;font-size:1px;line-height:1;font-family:'Yu Gothic UI';-inkscape-font-specification:'Yu Gothic UI Bold';letter-spacing:0px;word-spacing:0px;fill:#ece8e5;fill-opacity:1;stroke-width:0.0733241">
      <path
         d="m 28.865341,131.01418 v -0.7002 h 0.202149 q 0.387207,0 0.387207,0.34131 0,0.16211 -0.107422,0.26074 -0.107422,0.0982 -0.288086,0.0982 z m 0.115723,-0.60157 v 0.50342 h 0.09277 q 0.122559,0 0.19043,-0.0674 0.06836,-0.0674 0.06836,-0.19043 0,-0.24561 -0.254394,-0.24561 z"
         style="font-style:normal;font-variant:normal;font-weight:bold;font-stretch:normal;font-size:1px;font-family:'Yu Gothic UI';-inkscape-font-specification:'Yu Gothic UI Bold';fill:#ece8e5;fill-opacity:1;stroke-width:0.0733241"
         id="path972" />
    </g>
    <g
       aria-label="S"
       id="text41910-2-4-8-5"
       style="font-style:normal;font-variant:normal;font-weight:bold;font-stretch:normal;font-size:1px;line-height:1;font-family:'Yu Gothic UI';-inkscape-font-specification:'Yu Gothic UI Bold';letter-spacing:0px;word-spacing:0px;fill:#ece8e5;fill-opacity:1;stroke-width:0.0733241">
      <path
         d="m 33.656151,131.00079 v -0.11963 q 0.01611,0.0147 0.03809,0.0264 0.02246,0.0117 0.04736,0.02 0.0249,0.008 0.0498,0.0122 0.0249,0.004 0.0459,0.004 0.07324,0 0.108887,-0.0244 0.03613,-0.0244 0.03613,-0.0708 0,-0.0249 -0.01221,-0.043 -0.01172,-0.0186 -0.0332,-0.0337 -0.02148,-0.0151 -0.05078,-0.0288 -0.02881,-0.0142 -0.06201,-0.0293 -0.03565,-0.019 -0.06641,-0.0386 -0.03076,-0.0195 -0.05371,-0.043 -0.02246,-0.0239 -0.03564,-0.0537 -0.0127,-0.0298 -0.0127,-0.0698 0,-0.0493 0.02197,-0.0854 0.02246,-0.0366 0.05859,-0.0601 0.03662,-0.0239 0.08301,-0.0352 0.04639,-0.0117 0.09473,-0.0117 0.109864,0 0.160157,0.0249 v 0.11475 q -0.05957,-0.043 -0.153321,-0.043 -0.02588,0 -0.05176,0.005 -0.02539,0.005 -0.0459,0.0161 -0.02002,0.0112 -0.03272,0.0288 -0.0127,0.0176 -0.0127,0.0425 0,0.0234 0.0098,0.0405 0.0098,0.0171 0.02832,0.0312 0.01904,0.0142 0.0459,0.0278 0.02734,0.0132 0.06299,0.0288 0.03662,0.0191 0.06885,0.04 0.03272,0.021 0.05713,0.0464 0.0249,0.0254 0.03906,0.0566 0.01465,0.0308 0.01465,0.0703 0,0.0532 -0.02148,0.0899 -0.02148,0.0366 -0.05811,0.0596 -0.03613,0.0229 -0.0835,0.0332 -0.04736,0.0102 -0.100098,0.0102 -0.01758,0 -0.04346,-0.003 -0.02539,-0.002 -0.05225,-0.008 -0.02685,-0.005 -0.05078,-0.0122 -0.02393,-0.007 -0.03857,-0.0166 z"
         style="font-style:normal;font-variant:normal;font-weight:bold;font-stretch:normal;font-size:1px;font-family:'Yu Gothic UI';-inkscape-font-specification:'Yu Gothic UI Bold';fill:#ece8e5;fill-opacity:1;stroke-width:0.0733241"
         id="path969" />
    </g>
    <g
       aria-label="R"
       id="text41910-2-4-8-5-3"
       style="font-style:normal;font-variant:normal;font-weight:bold;font-stretch:normal;font-size:1px;line-height:1;font-family:'Yu Gothic UI';-inkscape-font-specification:'Yu Gothic UI Bold';letter-spacing:0px;word-spacing:0px;fill:#ece8e5;fill-opacity:1;stroke-width:0.0733241">
      <path
         d="m 39.219471,130.97624 h -0.135742 l -0.111817,-0.1875 q -0.01514,-0.0259 -0.02979,-0.0439 -0.01416,-0.0186 -0.0293,-0.0303 -0.01465,-0.0117 -0.03223,-0.0171 -0.01758,-0.005 -0.03955,-0.005 h -0.04687 v 0.28418 h -0.115723 v -0.70019 h 0.230469 q 0.04932,0 0.09082,0.0117 0.0415,0.0117 0.07227,0.0356 0.03076,0.0234 0.04785,0.0591 0.01758,0.0352 0.01758,0.0825 0,0.0371 -0.01123,0.0684 -0.01074,0.0308 -0.03125,0.0552 -0.02002,0.0239 -0.04883,0.041 -0.02832,0.0171 -0.06397,0.0264 v 0.002 q 0.01904,0.0107 0.0332,0.0239 0.01416,0.0127 0.02686,0.0264 0.0127,0.0137 0.0249,0.0312 0.0127,0.0171 0.02783,0.04 z m -0.425293,-0.60595 v 0.22753 h 0.09668 q 0.02685,0 0.04932,-0.008 0.02295,-0.008 0.03955,-0.0239 0.0166,-0.0156 0.02588,-0.0381 0.0093,-0.0225 0.0093,-0.0503 0,-0.0503 -0.03174,-0.0786 -0.03174,-0.0283 -0.09131,-0.0283 z"
         style="font-style:normal;font-variant:normal;font-weight:bold;font-stretch:normal;font-size:1px;font-family:'Yu Gothic UI';-inkscape-font-specification:'Yu Gothic UI Bold';fill:#ece8e5;fill-opacity:1;stroke-width:0.0733241"
         id="path966" />
    </g>
    <g
       aria-label="A"
       id="text41910-2-4-8-5-3-4"
       style="font-style:normal;font-variant:normal;font-weight:bold;font-stretch:normal;font-size:1px;line-height:1;font-family:'Yu Gothic UI';-inkscape-font-specification:'Yu Gothic UI Bold';letter-spacing:0px;word-spacing:0px;fill:#ece8e5;fill-opacity:1;stroke-width:0.0733241">
      <path
         d="M 49.365181,130.99295 H 49.23774 l -0.06299,-0.17822 h -0.27539 l -0.06055,0.17822 h -0.126953 l 0.262207,-0.70019 h 0.130859 z M 49.14399,130.72 l -0.09717,-0.2793 q -0.0044,-0.0137 -0.0093,-0.0439 h -0.002 q -0.0044,0.0278 -0.0098,0.0439 l -0.09619,0.2793 z"
         style="font-style:normal;font-variant:normal;font-weight:bold;font-stretch:normal;font-size:1px;font-family:'Yu Gothic UI';-inkscape-font-specification:'Yu Gothic UI Bold';fill:#ece8e5;fill-opacity:1;stroke-width:0.0733241"
         id="path963" />
    </g>
    <g
       aria-label="D"
       id="text41910-2-4-8-5-3-4-6"
       style="font-style:normal;font-variant:normal;font-weight:bold;font-stretch:normal;font-size:1px;line-height:1;font-family:'Yu Gothic UI';-inkscape-font-specification:'Yu Gothic UI Bold';letter-spacing:0px;word-spacing:0px;fill:#ece8e5;fill-opacity:1;stroke-width:0.0733241">
      <path
         d="m 53.692017,130.99069 v -0.70019 h 0.202148 q 0.387207,0 0.387207,0.34131 0,0.1621 -0.107422,0.26074 -0.107422,0.0981 -0.288086,0.0981 z m 0.115722,-0.60156 v 0.50342 h 0.09277 q 0.122558,0 0.190429,-0.0674 0.06836,-0.0674 0.06836,-0.19042 0,-0.24561 -0.254395,-0.24561 z"
         style="font-style:normal;font-variant:normal;font-weight:bold;font-stretch:normal;font-size:1px;font-family:'Yu Gothic UI';-inkscape-font-specification:'Yu Gothic UI Bold';fill:#ece8e5;fill-opacity:1;stroke-width:0.0733241"
         id="path960" />
    </g>
    <g
       aria-label="S"
       id="text41910-2-4-8-5-3-4-6-9"
       style="font-style:normal;font-variant:normal;font-weight:bold;font-stretch:normal;font-size:1px;line-height:1;font-family:'Yu Gothic UI';-inkscape-font-specification:'Yu Gothic UI Bold';letter-spacing:0px;word-spacing:0px;fill:#ece8e5;fill-opacity:1;stroke-width:0.0733241">
      <path
         d="m 58.678757,130.97729 v -0.11962 q 0.01611,0.0146 0.03809,0.0264 0.02246,0.0117 0.04736,0.02 0.0249,0.008 0.0498,0.0122 0.0249,0.004 0.0459,0.004 0.07324,0 0.108887,-0.0244 0.03613,-0.0244 0.03613,-0.0708 0,-0.0249 -0.01221,-0.043 -0.01172,-0.0185 -0.0332,-0.0337 -0.02148,-0.0151 -0.05078,-0.0288 -0.02881,-0.0142 -0.06201,-0.0293 -0.03564,-0.019 -0.06641,-0.0386 -0.03076,-0.0195 -0.05371,-0.043 -0.02246,-0.0239 -0.03564,-0.0537 -0.0127,-0.0298 -0.0127,-0.0698 0,-0.0493 0.02197,-0.0855 0.02246,-0.0366 0.05859,-0.0601 0.03662,-0.0239 0.08301,-0.0352 0.04639,-0.0117 0.09473,-0.0117 0.109863,0 0.160156,0.0249 v 0.11474 q -0.05957,-0.043 -0.15332,-0.043 -0.02588,0 -0.05176,0.005 -0.02539,0.005 -0.0459,0.0161 -0.02002,0.0112 -0.03271,0.0288 -0.0127,0.0176 -0.0127,0.0425 0,0.0234 0.0098,0.0405 0.0098,0.0171 0.02832,0.0312 0.01904,0.0142 0.0459,0.0278 0.02734,0.0132 0.06299,0.0288 0.03662,0.019 0.06885,0.04 0.03271,0.021 0.05713,0.0464 0.0249,0.0254 0.03906,0.0566 0.01465,0.0308 0.01465,0.0703 0,0.0532 -0.02148,0.0898 -0.02148,0.0366 -0.05811,0.0596 -0.03613,0.023 -0.0835,0.0332 -0.04736,0.0103 -0.100098,0.0103 -0.01758,0 -0.04346,-0.003 -0.02539,-0.002 -0.05225,-0.008 -0.02686,-0.005 -0.05078,-0.0122 -0.02393,-0.007 -0.03857,-0.0166 z"
         style="font-style:normal;font-variant:normal;font-weight:bold;font-stretch:normal;font-size:1px;font-family:'Yu Gothic UI';-inkscape-font-specification:'Yu Gothic UI Bold';fill:#ece8e5;fill-opacity:1;stroke-width:0.0733241"
         id="path957" />
    </g>
    <g
       aria-label="R"
       id="text41910-2-4-8-5-3-4-6-9-5"
       style="font-style:normal;font-variant:normal;font-weight:bold;font-stretch:normal;font-size:1px;line-height:1;font-family:'Yu Gothic UI';-inkscape-font-specification:'Yu Gothic UI Bold';letter-spacing:0px;word-spacing:0px;fill:#ece8e5;fill-opacity:1;stroke-width:0.0733241">
      <path
         d="m 64.191963,131.00287 h -0.135742 l -0.111816,-0.1875 q -0.01514,-0.0259 -0.02979,-0.0439 -0.01416,-0.0186 -0.0293,-0.0303 -0.01465,-0.0117 -0.03223,-0.0171 -0.01758,-0.005 -0.03955,-0.005 h -0.04687 v 0.28418 h -0.115722 v -0.7002 h 0.230468 q 0.04932,0 0.09082,0.0117 0.0415,0.0117 0.07226,0.0357 0.03076,0.0234 0.04785,0.0591 0.01758,0.0351 0.01758,0.0825 0,0.0371 -0.01123,0.0684 -0.01074,0.0308 -0.03125,0.0552 -0.02002,0.0239 -0.04883,0.041 -0.02832,0.0171 -0.06396,0.0264 v 0.002 q 0.01904,0.0107 0.0332,0.0239 0.01416,0.0127 0.02686,0.0264 0.01269,0.0137 0.0249,0.0312 0.0127,0.0171 0.02783,0.04 z m -0.425293,-0.60596 v 0.22754 h 0.09668 q 0.02686,0 0.04932,-0.008 0.02295,-0.008 0.03955,-0.0239 0.0166,-0.0156 0.02588,-0.0381 0.0093,-0.0225 0.0093,-0.0503 0,-0.0503 -0.03174,-0.0786 -0.03174,-0.0283 -0.09131,-0.0283 z"
         style="font-style:normal;font-variant:normal;font-weight:bold;font-stretch:normal;font-size:1px;font-family:'Yu Gothic UI';-inkscape-font-specification:'Yu Gothic UI Bold';fill:#ece8e5;fill-opacity:1;stroke-width:0.0733241"
         id="path954" />
    </g>
    <g
       aria-label="ON"
       id="text41910-2-4-3-7-6-9-6-4-5-1-1-7"
       style="font-style:normal;font-variant:normal;font-weight:300;font-stretch:normal;font-size:0.75px;line-height:1.25;font-family:'Yu Gothic UI';-inkscape-font-specification:'Yu Gothic UI Light';letter-spacing:0px;word-spacing:0px;fill:#ece8e5;fill-opacity:1;stroke-width:0.070762">
      <path
         d="m 13.277811,124.47458 q -0.113525,0 -0.182007,-0.0736 -0.06811,-0.0736 -0.06811,-0.19153 0,-0.12671 0.06958,-0.20215 0.06958,-0.0754 0.188965,-0.0754 0.110596,0 0.177978,0.0733 0.06775,0.0732 0.06775,0.19152 0,0.12854 -0.06921,0.20325 -0.06921,0.0747 -0.184937,0.0747 z m 0.004,-0.46619 q -0.07214,0 -0.117553,0.0538 -0.04504,0.0538 -0.04504,0.14172 0,0.0875 0.04395,0.14099 0.04394,0.0535 0.11499,0.0535 0.07544,0 0.119019,-0.0509 0.04358,-0.0509 0.04358,-0.14245 0,-0.0941 -0.04248,-0.14539 -0.04211,-0.0513 -0.116455,-0.0513 z"
         style="font-style:normal;font-variant:normal;font-weight:bold;font-stretch:normal;font-size:0.75px;font-family:'Yu Gothic UI';-inkscape-font-specification:'Yu Gothic UI Bold';fill:#ece8e5;fill-opacity:1;stroke-width:0.070762"
         id="path949" />
      <path
         d="m 14.073587,124.46579 h -0.09521 l -0.250855,-0.38599 q -0.0095,-0.0146 -0.01575,-0.0304 h -0.0022 q 0.0029,0.0168 0.0029,0.0721 v 0.34424 h -0.08423 v -0.52515 h 0.10144 l 0.242432,0.37683 q 0.01538,0.0234 0.01978,0.0322 h 0.0015 q -0.0037,-0.0209 -0.0037,-0.0707 v -0.33838 h 0.08386 z"
         style="font-style:normal;font-variant:normal;font-weight:bold;font-stretch:normal;font-size:0.75px;font-family:'Yu Gothic UI';-inkscape-font-specification:'Yu Gothic UI Bold';fill:#ece8e5;fill-opacity:1;stroke-width:0.070762"
         id="path951" />
    </g>
    <g
       aria-label="1/2"
       id="text41910-2-4-3-7-6-9-6-4-5-1-1-7-3"
       style="font-style:normal;font-variant:normal;font-weight:300;font-stretch:normal;font-size:0.75px;line-height:1.25;font-family:'Yu Gothic UI';-inkscape-font-specification:'Yu Gothic UI Light';letter-spacing:0px;word-spacing:0px;fill:#ece8e5;fill-opacity:1;stroke-width:0.070762">
      <path
         d="m 13.284654,126.22822 v 0.53686 h -0.08496 v -0.43286 q -0.02307,0.0165 -0.0498,0.0282 -0.02637,0.0113 -0.06043,0.0201 v -0.0725 q 0.02124,-0.007 0.04102,-0.0146 0.01978,-0.008 0.03882,-0.0172 0.01941,-0.01 0.03882,-0.0212 0.01977,-0.0117 0.04065,-0.0267 z"
         style="font-style:normal;font-variant:normal;font-weight:bold;font-stretch:normal;font-size:0.75px;font-family:'Yu Gothic UI';-inkscape-font-specification:'Yu Gothic UI Bold';fill:#ece8e5;fill-opacity:1;stroke-width:0.070762"
         id="path942" />
      <path
         d="m 13.678697,126.23994 -0.253785,0.6123 h -0.07727 l 0.252685,-0.6123 z"
         style="font-style:normal;font-variant:normal;font-weight:bold;font-stretch:normal;font-size:0.75px;font-family:'Yu Gothic UI';-inkscape-font-specification:'Yu Gothic UI Bold';fill:#ece8e5;fill-opacity:1;stroke-width:0.070762"
         id="path944" />
      <path
         d="m 14.036851,126.76508 h -0.32959 v -0.0406 q 0,-0.0249 0.007,-0.0465 0.007,-0.022 0.01868,-0.041 0.01172,-0.0194 0.02747,-0.0363 0.01575,-0.0172 0.03369,-0.0329 0.01794,-0.0161 0.03662,-0.0308 0.01868,-0.015 0.03662,-0.03 0.01685,-0.0143 0.03076,-0.0278 0.01392,-0.0139 0.0238,-0.0286 0.0099,-0.0146 0.01538,-0.0308 0.0055,-0.0165 0.0055,-0.0355 0,-0.0209 -0.0066,-0.0362 -0.0062,-0.0157 -0.01794,-0.026 -0.01135,-0.0106 -0.0271,-0.0157 -0.01575,-0.005 -0.03442,-0.005 -0.03223,0 -0.06555,0.015 -0.03333,0.015 -0.06409,0.045 v -0.0817 q 0.01611,-0.0121 0.03259,-0.0209 0.01648,-0.009 0.03406,-0.015 0.01758,-0.006 0.03699,-0.009 0.01941,-0.003 0.04138,-0.003 0.03552,0 0.06445,0.01 0.02893,0.009 0.04944,0.0275 0.02051,0.0179 0.03149,0.045 0.01135,0.0271 0.01135,0.0622 0,0.0319 -0.0081,0.0575 -0.0077,0.0253 -0.02234,0.0472 -0.01428,0.022 -0.03479,0.0417 -0.02051,0.0198 -0.04578,0.0406 -0.02124,0.0172 -0.04248,0.0337 -0.02087,0.0161 -0.03772,0.0319 -0.01685,0.0154 -0.02747,0.0311 -0.01025,0.0154 -0.01025,0.0311 v 0.002 h 0.236939 z"
         style="font-style:normal;font-variant:normal;font-weight:bold;font-stretch:normal;font-size:0.75px;font-family:'Yu Gothic UI';-inkscape-font-specification:'Yu Gothic UI Bold';fill:#ece8e5;fill-opacity:1;stroke-width:0.070762"
         id="path946" />
    </g>
    <g
       aria-label="OFF"
       id="text41910-2-4-3-7-6-9-6-4-5-1-1-7-3-8"
       style="font-style:normal;font-variant:normal;font-weight:300;font-stretch:normal;font-size:0.75px;line-height:1.25;font-family:'Yu Gothic UI';-inkscape-font-specification:'Yu Gothic UI Light';letter-spacing:0px;word-spacing:0px;fill:#ece8e5;fill-opacity:1;stroke-width:0.070762">
      <path
         d="m 13.222582,129.04962 q -0.113526,0 -0.182007,-0.0736 -0.06812,-0.0736 -0.06812,-0.19153 0,-0.1267 0.06958,-0.20214 0.06958,-0.0754 0.188965,-0.0754 0.110595,0 0.177978,0.0732 0.06775,0.0732 0.06775,0.19153 0,0.12854 -0.06921,0.20324 -0.06921,0.0747 -0.184936,0.0747 z m 0.004,-0.46618 q -0.07214,0 -0.117554,0.0538 -0.04504,0.0538 -0.04504,0.14172 0,0.0875 0.04395,0.14099 0.04395,0.0535 0.11499,0.0535 0.07544,0 0.119019,-0.0509 0.04358,-0.0509 0.04358,-0.14246 0,-0.0941 -0.04248,-0.14539 -0.04211,-0.0513 -0.116455,-0.0513 z"
         style="font-style:normal;font-variant:normal;font-weight:bold;font-stretch:normal;font-size:0.75px;font-family:'Yu Gothic UI';-inkscape-font-specification:'Yu Gothic UI Bold';fill:#ece8e5;fill-opacity:1;stroke-width:0.070762"
         id="path935" />
      <path
         d="m 13.856493,128.58966 h -0.196289 v 0.15784 h 0.180908 v 0.0736 h -0.180908 v 0.21972 h -0.08716 v -0.52514 h 0.283447 z"
         style="font-style:normal;font-variant:normal;font-weight:bold;font-stretch:normal;font-size:0.75px;font-family:'Yu Gothic UI';-inkscape-font-specification:'Yu Gothic UI Bold';fill:#ece8e5;fill-opacity:1;stroke-width:0.070762"
         id="path937" />
      <path
         d="m 14.233324,128.58966 h -0.196289 v 0.15784 h 0.180908 v 0.0736 h -0.180908 v 0.21972 h -0.08716 v -0.52514 h 0.283447 z"
         style="font-style:normal;font-variant:normal;font-weight:bold;font-stretch:normal;font-size:0.75px;font-family:'Yu Gothic UI';-inkscape-font-specification:'Yu Gothic UI Bold';fill:#ece8e5;fill-opacity:1;stroke-width:0.070762"
         id="path939" />
    </g>
    <g
       aria-label="LOOP"
       id="text41910-2-4-3-7-6-9-6-4-5-1-1-7-4"
       style="font-style:normal;font-variant:normal;font-weight:300;font-stretch:normal;font-size:0.75px;line-height:1.25;font-family:'Yu Gothic UI';-inkscape-font-specification:'Yu Gothic UI Light';letter-spacing:0px;word-spacing:0px;fill:#ece8e5;fill-opacity:1;stroke-width:0.070762">
      <path
         d="m 13.450117,112.97094 h -0.290771 v -0.52515 h 0.08716 v 0.45154 h 0.203613 z"
         style="font-style:normal;font-variant:normal;font-weight:bold;font-stretch:normal;font-size:0.75px;font-family:'Yu Gothic UI';-inkscape-font-specification:'Yu Gothic UI Bold';fill:#ece8e5;fill-opacity:1;stroke-width:0.070762"
         id="path926" />
      <path
         d="m 13.735029,112.97973 q -0.113525,0 -0.182007,-0.0736 -0.06812,-0.0736 -0.06812,-0.19153 0,-0.12671 0.06958,-0.20215 0.06958,-0.0754 0.188965,-0.0754 0.110596,0 0.177979,0.0733 0.06775,0.0732 0.06775,0.19152 0,0.12854 -0.06921,0.20325 -0.06921,0.0747 -0.184937,0.0747 z m 0.004,-0.46619 q -0.07214,0 -0.117554,0.0538 -0.04504,0.0538 -0.04504,0.14172 0,0.0875 0.04394,0.14099 0.04395,0.0535 0.11499,0.0535 0.07544,0 0.119019,-0.0509 0.04358,-0.0509 0.04358,-0.14245 0,-0.0941 -0.04248,-0.14539 -0.04212,-0.0513 -0.116455,-0.0513 z"
         style="font-style:normal;font-variant:normal;font-weight:bold;font-stretch:normal;font-size:0.75px;font-family:'Yu Gothic UI';-inkscape-font-specification:'Yu Gothic UI Bold';fill:#ece8e5;fill-opacity:1;stroke-width:0.070762"
         id="path928" />
      <path
         d="m 14.301924,112.97973 q -0.113526,0 -0.182007,-0.0736 -0.06811,-0.0736 -0.06811,-0.19153 0,-0.12671 0.06958,-0.20215 0.06958,-0.0754 0.188965,-0.0754 0.110595,0 0.177978,0.0733 0.06775,0.0732 0.06775,0.19152 0,0.12854 -0.06921,0.20325 -0.06921,0.0747 -0.184936,0.0747 z m 0.004,-0.46619 q -0.07214,0 -0.117554,0.0538 -0.04504,0.0538 -0.04504,0.14172 0,0.0875 0.04395,0.14099 0.04394,0.0535 0.11499,0.0535 0.07544,0 0.119019,-0.0509 0.04358,-0.0509 0.04358,-0.14245 0,-0.0941 -0.04248,-0.14539 -0.04211,-0.0513 -0.116455,-0.0513 z"
         style="font-style:normal;font-variant:normal;font-weight:bold;font-stretch:normal;font-size:0.75px;font-family:'Yu Gothic UI';-inkscape-font-specification:'Yu Gothic UI Bold';fill:#ece8e5;fill-opacity:1;stroke-width:0.070762"
         id="path930" />
      <path
         d="m 14.73918,112.78051 v 0.19043 h -0.08679 v -0.52515 h 0.159301 q 0.09045,0 0.140259,0.0421 0.04981,0.0421 0.04981,0.11865 0,0.0765 -0.052,0.12524 -0.052,0.0487 -0.140625,0.0487 z m 0,-0.26294 v 0.1919 h 0.0564 q 0.05603,0 0.08533,-0.026 0.0293,-0.026 0.0293,-0.0732 0,-0.0926 -0.107666,-0.0926 z"
         style="font-style:normal;font-variant:normal;font-weight:bold;font-stretch:normal;font-size:0.75px;font-family:'Yu Gothic UI';-inkscape-font-specification:'Yu Gothic UI Bold';fill:#ece8e5;fill-opacity:1;stroke-width:0.070762"
         id="path932" />
    </g>
    <g
       aria-label="INV-ENV"
       id="text41910-2-4-3-7-6-9-6-4-5-1-1-7-3-2"
       style="font-style:normal;font-variant:normal;font-weight:300;font-stretch:normal;font-size:0.75px;line-height:1.25;font-family:'Yu Gothic UI';-inkscape-font-specification:'Yu Gothic UI Light';letter-spacing:0px;word-spacing:0px;fill:#ece8e5;fill-opacity:1;stroke-width:0.070762">
      <path
         d="m 13.311574,115.27023 h -0.08972 v -0.52514 h 0.08972 z"
         style="font-style:normal;font-variant:normal;font-weight:bold;font-stretch:normal;font-size:0.75px;font-family:'Yu Gothic UI';-inkscape-font-specification:'Yu Gothic UI Bold';fill:#ece8e5;fill-opacity:1;stroke-width:0.070762"
         id="path911" />
      <path
         d="m 13.886159,115.27023 h -0.09521 l -0.250854,-0.38598 q -0.0095,-0.0146 -0.01575,-0.0304 h -0.0022 q 0.0029,0.0169 0.0029,0.0721 v 0.34424 h -0.08423 v -0.52514 h 0.101441 l 0.242432,0.37683 q 0.01538,0.0234 0.01977,0.0322 h 0.0015 q -0.0037,-0.0209 -0.0037,-0.0707 v -0.33838 h 0.08386 z"
         style="font-style:normal;font-variant:normal;font-weight:bold;font-stretch:normal;font-size:0.75px;font-family:'Yu Gothic UI';-inkscape-font-specification:'Yu Gothic UI Bold';fill:#ece8e5;fill-opacity:1;stroke-width:0.070762"
         id="path913" />
      <path
         d="m 14.427785,114.74509 -0.188599,0.52514 h -0.09741 l -0.185303,-0.52514 h 0.09521 l 0.129639,0.39843 q 0.0062,0.0191 0.0095,0.0443 h 0.0015 q 0.0026,-0.0209 0.01062,-0.045 l 0.132569,-0.3977 z"
         style="font-style:normal;font-variant:normal;font-weight:bold;font-stretch:normal;font-size:0.75px;font-family:'Yu Gothic UI';-inkscape-font-specification:'Yu Gothic UI Bold';fill:#ece8e5;fill-opacity:1;stroke-width:0.070762"
         id="path915" />
      <path
         d="m 14.640187,115.09665 h -0.199951 v -0.0626 h 0.199951 z"
         style="font-style:normal;font-variant:normal;font-weight:bold;font-stretch:normal;font-size:0.75px;font-family:'Yu Gothic UI';-inkscape-font-specification:'Yu Gothic UI Bold';fill:#ece8e5;fill-opacity:1;stroke-width:0.070762"
         id="path917" />
      <path
         d="m 15.048512,115.27023 h -0.294799 v -0.52514 h 0.283081 v 0.074 h -0.195923 v 0.14868 h 0.180542 v 0.0736 h -0.180542 v 0.15527 h 0.207641 z"
         style="font-style:normal;font-variant:normal;font-weight:bold;font-stretch:normal;font-size:0.75px;font-family:'Yu Gothic UI';-inkscape-font-specification:'Yu Gothic UI Bold';fill:#ece8e5;fill-opacity:1;stroke-width:0.070762"
         id="path919" />
      <path
         d="m 15.587209,115.27023 h -0.09521 l -0.250855,-0.38598 q -0.0095,-0.0146 -0.01575,-0.0304 h -0.0022 q 0.0029,0.0169 0.0029,0.0721 v 0.34424 h -0.08423 v -0.52514 h 0.101441 l 0.242431,0.37683 q 0.01538,0.0234 0.01978,0.0322 h 0.0015 q -0.0037,-0.0209 -0.0037,-0.0707 v -0.33838 h 0.08386 z"
         style="font-style:normal;font-variant:normal;font-weight:bold;font-stretch:normal;font-size:0.75px;font-family:'Yu Gothic UI';-inkscape-font-specification:'Yu Gothic UI Bold';fill:#ece8e5;fill-opacity:1;stroke-width:0.070762"
         id="path921" />
      <path
         d="m 16.128835,114.74509 -0.188599,0.52514 h -0.09741 l -0.185303,-0.52514 h 0.09522 l 0.129639,0.39843 q 0.0062,0.0191 0.0095,0.0443 h 0.0015 q 0.0026,-0.0209 0.01062,-0.045 l 0.132569,-0.3977 z"
         style="font-style:normal;font-variant:normal;font-weight:bold;font-stretch:normal;font-size:0.75px;font-family:'Yu Gothic UI';-inkscape-font-specification:'Yu Gothic UI Bold';fill:#ece8e5;fill-opacity:1;stroke-width:0.070762"
         id="path923" />
    </g>
    <g
       aria-label="ENV"
       id="text41910-2-4-3-7-6-9-6-4-5-1-1-7-3-8-7"
       style="font-style:normal;font-variant:normal;font-weight:300;font-stretch:normal;font-size:0.75px;line-height:1.25;font-family:'Yu Gothic UI';-inkscape-font-specification:'Yu Gothic UI Light';letter-spacing:0px;word-spacing:0px;fill:#ece8e5;fill-opacity:1;stroke-width:0.070762">
      <path
         d="m 13.398916,117.54598 h -0.2948 v -0.52514 h 0.283081 v 0.074 h -0.195922 v 0.14868 h 0.180542 v 0.0736 h -0.180542 v 0.15527 h 0.207641 z"
         style="font-style:normal;font-variant:normal;font-weight:bold;font-stretch:normal;font-size:0.75px;font-family:'Yu Gothic UI';-inkscape-font-specification:'Yu Gothic UI Bold';fill:#ece8e5;fill-opacity:1;stroke-width:0.070762"
         id="path904" />
      <path
         d="m 13.937613,117.54598 h -0.09522 L 13.591543,117.16 q -0.0095,-0.0147 -0.01575,-0.0304 h -0.0022 q 0.0029,0.0169 0.0029,0.0721 v 0.34424 H 13.4923 v -0.52514 h 0.10144 l 0.242432,0.37683 q 0.01538,0.0234 0.01978,0.0322 h 0.0015 q -0.0037,-0.0209 -0.0037,-0.0707 v -0.33837 h 0.08386 z"
         style="font-style:normal;font-variant:normal;font-weight:bold;font-stretch:normal;font-size:0.75px;font-family:'Yu Gothic UI';-inkscape-font-specification:'Yu Gothic UI Bold';fill:#ece8e5;fill-opacity:1;stroke-width:0.070762"
         id="path906" />
      <path
         d="m 14.479239,117.02084 -0.188599,0.52514 h -0.09741 l -0.185303,-0.52514 h 0.09521 l 0.129639,0.39843 q 0.0062,0.0191 0.0095,0.0443 h 0.0015 q 0.0026,-0.0209 0.01062,-0.045 l 0.132568,-0.3977 z"
         style="font-style:normal;font-variant:normal;font-weight:bold;font-stretch:normal;font-size:0.75px;font-family:'Yu Gothic UI';-inkscape-font-specification:'Yu Gothic UI Bold';fill:#ece8e5;fill-opacity:1;stroke-width:0.070762"
         id="path908" />
    </g>
    <path
       style="fill:none;stroke:#ece8e5;stroke-width:0.25;stroke-linecap:butt;stroke-linejoin:miter;stroke-miterlimit:4;stroke-dasharray:none;stroke-opacity:1"
       d="m 17.026441,127.65739 h 24"
       id="path5032" />
    <path
       style="fill:none;stroke:#ece8e5;stroke-width:0.25;stroke-linecap:butt;stroke-linejoin:miter;stroke-miterlimit:4;stroke-dasharray:none;stroke-opacity:1"
       d="m 17.026441,113.65739 h 24"
       id="path5032-2" />
    <path
       style="fill:none;stroke:#ece8e5;stroke-width:0.25;stroke-linecap:butt;stroke-linejoin:miter;stroke-miterlimit:4;stroke-dasharray:none;stroke-opacity:1"
       d="m 17.026441,120.65739 h 24"
       id="path5032-2-8" />
    <path
       style="fill:none;stroke:#ece8e5;stroke-width:0.1;stroke-linecap:butt;stroke-linejoin:miter;stroke-miterlimit:4;stroke-dasharray:none;stroke-opacity:1"
       d="m 17.026441,118.42359 h 24"
       id="path5032-2-9-9" />
    <path
       style="fill:none;stroke:#ece8e5;stroke-width:0.1;stroke-linecap:butt;stroke-linejoin:miter;stroke-miterlimit:4;stroke-dasharray:none;stroke-opacity:1"
       d="m 17.026441,115.89119 h 24"
       id="path5032-2-9" />
    <path
       style="fill:none;stroke:#ece8e5;stroke-width:0.1;stroke-linecap:butt;stroke-linejoin:miter;stroke-miterlimit:4;stroke-dasharray:none;stroke-opacity:1"
       d="m 17.026441,125.42359 h 24"
       id="path5032-2-9-9-3-0" />
    <path
       style="fill:none;stroke:#ece8e5;stroke-width:0.1;stroke-linecap:butt;stroke-linejoin:miter;stroke-miterlimit:4;stroke-dasharray:none;stroke-opacity:1"
       d="m 17.026441,122.89119 h 24"
       id="path5032-2-9-9-3" />
    <path
       style="fill:none;stroke:#ece8e5;stroke-width:0.25;stroke-linecap:butt;stroke-linejoin:miter;stroke-miterlimit:4;stroke-dasharray:none;stroke-opacity:1"
       d="m 47.026441,127.65739 h 19"
       id="path5032-9" />
    <path
       style="fill:none;stroke:#ece8e5;stroke-width:0.25;stroke-linecap:butt;stroke-linejoin:miter;stroke-miterlimit:4;stroke-dasharray:none;stroke-opacity:1"
       d="m 47.026441,113.65739 h 19"
       id="path5032-2-94" />
    <path
       style="fill:none;stroke:#ece8e5;stroke-width:0.25;stroke-linecap:butt;stroke-linejoin:miter;stroke-miterlimit:4;stroke-dasharray:none;stroke-opacity:1"
       d="m 47.026441,120.65739 h 19"
       id="path5032-2-8-5" />
    <path
       style="fill:none;stroke:#ece8e5;stroke-width:0.1;stroke-linecap:butt;stroke-linejoin:miter;stroke-miterlimit:4;stroke-dasharray:none;stroke-opacity:1"
       d="m 47.026441,118.42359 h 19"
       id="path5032-2-9-9-78" />
    <path
       style="fill:none;stroke:#ece8e5;stroke-width:0.1;stroke-linecap:butt;stroke-linejoin:miter;stroke-miterlimit:4;stroke-dasharray:none;stroke-opacity:1"
       d="m 47.026441,115.89119 h 19"
       id="path5032-2-9-8" />
    <path
       style="fill:none;stroke:#ece8e5;stroke-width:0.1;stroke-linecap:butt;stroke-linejoin:miter;stroke-miterlimit:4;stroke-dasharray:none;stroke-opacity:1"
       d="m 47.026441,125.42359 h 19"
       id="path5032-2-9-9-3-0-39" />
    <path
       style="fill:none;stroke:#ece8e5;stroke-width:0.1;stroke-linecap:butt;stroke-linejoin:miter;stroke-miterlimit:4;stroke-dasharray:none;stroke-opacity:1"
       d="m 47.026441,122.89119 h 19"
       id="path5032-2-9-9-3-4" />
    <path
       id="rect41866-4-9-6-8-7-2-8-5-5-1-6-0-2-9"
       style="fill:#000000;fill-opacity:1;stroke:#000000;stroke-width:0.0526698;stroke-miterlimit:10;stroke-dasharray:none;stroke-opacity:1;paint-order:markers fill stroke"
       d="m 19.032806,112.37124 c 0.304038,0 0.548806,0.24477 0.548806,0.54881 v 15.5352 c 0,0.30404 -0.244768,0.5488 -0.548806,0.5488 -0.304039,0 -0.548807,-0.24476 -0.548807,-0.5488 v -15.5352 c 0,-0.30404 0.244768,-0.54881 0.548807,-0.54881 z" />
    <path
       id="rect41866-4-9-6-8-7-2-8-5-5-1-6-0-2-9-2"
       style="fill:#000000;fill-opacity:1;stroke:#000000;stroke-width:0.0526698;stroke-miterlimit:10;stroke-dasharray:none;stroke-opacity:1;paint-order:markers fill stroke"
       d="m 24.036262,112.40431 c 0.304038,0 0.548806,0.24477 0.548806,0.54881 v 15.5352 c 0,0.30404 -0.244768,0.54881 -0.548806,0.54881 -0.304039,0 -0.548807,-0.24477 -0.548807,-0.54881 v -15.5352 c 0,-0.30404 0.244768,-0.54881 0.548807,-0.54881 z" />
    <path
       id="rect41866-4-9-6-8-7-2-8-5-5-1-6-0-2-9-2-4"
       style="fill:#000000;fill-opacity:1;stroke:#000000;stroke-width:0.0526698;stroke-miterlimit:10;stroke-dasharray:none;stroke-opacity:1;paint-order:markers fill stroke"
       d="m 29.020824,112.40431 c 0.304038,0 0.548806,0.24477 0.548806,0.54881 v 15.5352 c 0,0.30404 -0.244768,0.54881 -0.548806,0.54881 -0.304039,0 -0.548807,-0.24477 -0.548807,-0.54881 v -15.5352 c 0,-0.30404 0.244768,-0.54881 0.548807,-0.54881 z" />
    <path
       id="rect41866-4-9-6-8-7-2-8-5-5-1-6-0-2-9-2-4-8"
       style="fill:#000000;fill-opacity:1;stroke:#000000;stroke-width:0.0526698;stroke-miterlimit:10;stroke-dasharray:none;stroke-opacity:1;paint-order:markers fill stroke"
       d="m 34.019567,112.37124 c 0.304038,0 0.548806,0.24477 0.548806,0.54881 v 15.5352 c 0,0.30404 -0.244768,0.5488 -0.548806,0.5488 -0.304039,0 -0.548807,-0.24476 -0.548807,-0.5488 v -15.5352 c 0,-0.30404 0.244768,-0.54881 0.548807,-0.54881 z" />
    <path
       id="rect41866-4-9-6-8-7-2-8-5-5-1-6-0-2-9-2-4-2"
       style="fill:#000000;fill-opacity:1;stroke:#000000;stroke-width:0.0526698;stroke-miterlimit:10;stroke-dasharray:none;stroke-opacity:1;paint-order:markers fill stroke"
       d="m 39.065561,112.37124 c 0.304038,0 0.548806,0.24477 0.548806,0.54881 v 15.5352 c 0,0.30404 -0.244768,0.5488 -0.548806,0.5488 -0.304039,0 -0.548807,-0.24476 -0.548807,-0.5488 v -15.5352 c 0,-0.30404 0.244768,-0.54881 0.548807,-0.54881 z" />
    <path
       id="rect41866-4-9-6-8-7-2-8-5-5-1-6-0-2-9-2-4-5"
       style="fill:#000000;fill-opacity:1;stroke:#000000;stroke-width:0.0526698;stroke-miterlimit:10;stroke-dasharray:none;stroke-opacity:1;paint-order:markers fill stroke"
       d="m 49.015763,112.40431 c 0.304039,0 0.548807,0.24477 0.548807,0.54881 v 15.5352 c 0,0.30404 -0.244768,0.54881 -0.548807,0.54881 -0.304038,0 -0.548806,-0.24477 -0.548806,-0.54881 v -15.5352 c 0,-0.30404 0.244768,-0.54881 0.548806,-0.54881 z" />
    <path
       id="rect41866-4-9-6-8-7-2-8-5-5-1-6-0-2-9-2-4-6"
       style="fill:#000000;fill-opacity:1;stroke:#000000;stroke-width:0.0526698;stroke-miterlimit:10;stroke-dasharray:none;stroke-opacity:1;paint-order:markers fill stroke"
       d="m 54.019235,112.43739 c 0.304039,0 0.548806,0.24477 0.548806,0.54881 v 15.5352 c 0,0.30404 -0.244767,0.54881 -0.548806,0.54881 -0.304039,0 -0.548807,-0.24477 -0.548807,-0.54881 v -15.5352 c 0,-0.30404 0.244768,-0.54881 0.548807,-0.54881 z" />
    <path
       id="rect41866-4-9-6-8-7-2-8-5-5-1-6-0-2-9-2-4-84"
       style="fill:#000000;fill-opacity:1;stroke:#000000;stroke-width:0.0526698;stroke-miterlimit:10;stroke-dasharray:none;stroke-opacity:1;paint-order:markers fill stroke"
       d="m 58.989629,112.40431 c 0.304039,0 0.548806,0.24477 0.548806,0.54881 v 15.5352 c 0,0.30404 -0.244767,0.54881 -0.548806,0.54881 -0.304039,0 -0.548806,-0.24477 -0.548806,-0.54881 v -15.5352 c 0,-0.30404 0.244767,-0.54881 0.548806,-0.54881 z" />
    <path
       id="rect41866-4-9-6-8-7-2-8-5-5-1-6-0-2-9-2-4-63"
       style="fill:#000000;fill-opacity:1;stroke:#000000;stroke-width:0.0526698;stroke-miterlimit:10;stroke-dasharray:none;stroke-opacity:1;paint-order:markers fill stroke"
       d="m 64.02144,112.40431 c 0.304038,0 0.548806,0.24477 0.548806,0.54881 v 15.5352 c 0,0.30404 -0.244768,0.54881 -0.548806,0.54881 -0.304039,0 -0.548807,-0.24477 -0.548807,-0.54881 v -15.5352 c 0,-0.30404 0.244768,-0.54881 0.548807,-0.54881 z" />
  </g>
</svg>
