<?xml version="1.0" encoding="UTF-8" standalone="no"?>
<svg
   xmlns:dc="http://purl.org/dc/elements/1.1/"
   xmlns:cc="http://creativecommons.org/ns#"
   xmlns:rdf="http://www.w3.org/1999/02/22-rdf-syntax-ns#"
   xmlns:svg="http://www.w3.org/2000/svg"
   xmlns="http://www.w3.org/2000/svg"
   width="29.056314mm"
   height="16.056324mm"
   viewBox="0 0 29.056314 16.056324"
   version="1.1"
   id="svg8544">
  <defs
     id="defs8538" />
  <metadata
     id="metadata8541">
    <rdf:RDF>
      <cc:Work
         rdf:about="">
        <dc:format>image/svg+xml</dc:format>
        <dc:type
           rdf:resource="http://purl.org/dc/dcmitype/StillImage" />
        <dc:title />
      </cc:Work>
    </rdf:RDF>
  </metadata>
  <g
     id="layer1"
     transform="translate(-58.799224,-154.50159)">
    <path
       id="rect41388-0-0-7-8-5-1"
       style="fill:none;fill-opacity:1;stroke:none;stroke-width:0.05;stroke-miterlimit:10;stroke-dasharray:none;stroke-opacity:1;paint-order:markers fill stroke"
       d="m 58.827385,154.52975 h 28.999992 v 16.00001 H 58.827385 Z" />
    <path
       style="fill:none;stroke:#ece8e5;stroke-width:0.1;stroke-linecap:butt;stroke-linejoin:miter;stroke-opacity:1;stroke-miterlimit:4;stroke-dasharray:none"
       d="m 59.799224,155.50159 v 14"
       id="path15894" />
    <path
       style="fill:none;stroke:#fe5045;stroke-width:0.264583px;stroke-linecap:butt;stroke-linejoin:miter;stroke-opacity:1"
       d="M 60.799224,157.50159 H 86.799223"
       id="path15896" />
    <g
       aria-label="DELAY"
       id="text41512"
       style="font-style:normal;font-variant:normal;font-weight:bold;font-stretch:normal;font-size:1.6px;line-height:1.25;font-family:'Yu Gothic UI';-inkscape-font-specification:'Yu Gothic UI Bold';letter-spacing:0px;word-spacing:0px;fill:#ece8e5;fill-opacity:1;stroke-width:0.101;stroke-miterlimit:4;stroke-dasharray:none">
      <path
         d="m 60.815939,156.87767 v -1.12031 h 0.309375 q 0.592187,0 0.592187,0.54609 0,0.25938 -0.164844,0.41719 -0.164062,0.15703 -0.439843,0.15703 z m 0.13125,-1.00156 v 0.88281 h 0.167187 q 0.220313,0 0.342969,-0.11797 0.122656,-0.11797 0.122656,-0.33437 0,-0.43047 -0.457812,-0.43047 z"
         style="font-style:normal;font-variant:normal;font-weight:normal;font-stretch:normal;font-size:1.6px;font-family:'Yu Gothic UI';-inkscape-font-specification:'Yu Gothic UI';fill:#ece8e5;fill-opacity:1;stroke-width:0.101;stroke-miterlimit:4;stroke-dasharray:none"
         id="path918" />
      <path
         d="m 62.531564,156.87767 h -0.59375 v -1.12031 h 0.56875 v 0.11875 h -0.4375 v 0.37265 h 0.404687 v 0.11797 h -0.404687 v 0.39219 h 0.4625 z"
         style="font-style:normal;font-variant:normal;font-weight:normal;font-stretch:normal;font-size:1.6px;font-family:'Yu Gothic UI';-inkscape-font-specification:'Yu Gothic UI';fill:#ece8e5;fill-opacity:1;stroke-width:0.101;stroke-miterlimit:4;stroke-dasharray:none"
         id="path920" />
      <path
         d="m 63.328439,156.87767 h -0.58125 v -1.12031 h 0.13125 v 1.00156 h 0.45 z"
         style="font-style:normal;font-variant:normal;font-weight:normal;font-stretch:normal;font-size:1.6px;font-family:'Yu Gothic UI';-inkscape-font-specification:'Yu Gothic UI';fill:#ece8e5;fill-opacity:1;stroke-width:0.101;stroke-miterlimit:4;stroke-dasharray:none"
         id="path922" />
      <path
         d="m 64.367501,156.87767 h -0.145312 l -0.11875,-0.31406 h -0.475 l -0.111719,0.31406 h -0.146094 l 0.429688,-1.12031 h 0.135937 z m -0.307031,-0.43203 -0.175781,-0.47734 q -0.0086,-0.0234 -0.01719,-0.075 h -0.0031 q -0.0078,0.0476 -0.01797,0.075 l -0.174218,0.47734 z"
         style="font-style:normal;font-variant:normal;font-weight:normal;font-stretch:normal;font-size:1.6px;font-family:'Yu Gothic UI';-inkscape-font-specification:'Yu Gothic UI';fill:#ece8e5;fill-opacity:1;stroke-width:0.101;stroke-miterlimit:4;stroke-dasharray:none"
         id="path924" />
      <path
         d="m 65.188595,155.75736 -0.369531,0.70625 v 0.41406 h -0.13125 v -0.41094 l -0.360157,-0.70937 h 0.149219 l 0.250781,0.50625 q 0.0047,0.009 0.02734,0.0687 h 0.0023 q 0.0078,-0.0266 0.02969,-0.0687 l 0.2625,-0.50625 z"
         style="font-style:normal;font-variant:normal;font-weight:normal;font-stretch:normal;font-size:1.6px;font-family:'Yu Gothic UI';-inkscape-font-specification:'Yu Gothic UI';fill:#ece8e5;fill-opacity:1;stroke-width:0.101;stroke-miterlimit:4;stroke-dasharray:none"
         id="path926" />
    </g>
    <g
       aria-label="LEVEL"
       id="text41910"
       style="font-style:normal;font-variant:normal;font-weight:bold;font-stretch:normal;font-size:1px;line-height:1;font-family:'Yu Gothic UI';-inkscape-font-specification:'Yu Gothic UI Bold';letter-spacing:0px;word-spacing:0px;fill:#ece8e5;fill-opacity:1;stroke-width:0.0733241">
      <path
         d="m 63.17704,168.3784 h -0.387695 v -0.70019 h 0.116211 v 0.60205 h 0.271484 z"
         style="font-style:normal;font-variant:normal;font-weight:bold;font-stretch:normal;font-size:1px;font-family:'Yu Gothic UI';-inkscape-font-specification:'Yu Gothic UI Bold';fill:#ece8e5;fill-opacity:1;stroke-width:0.0733241"
         id="path907" />
      <path
         d="m 63.671181,168.3784 h -0.393067 v -0.70019 h 0.377442 v 0.0986 h -0.261231 v 0.19824 h 0.240723 v 0.0982 h -0.240723 v 0.20703 h 0.276856 z"
         style="font-style:normal;font-variant:normal;font-weight:bold;font-stretch:normal;font-size:1px;font-family:'Yu Gothic UI';-inkscape-font-specification:'Yu Gothic UI Bold';fill:#ece8e5;fill-opacity:1;stroke-width:0.0733241"
         id="path909" />
      <path
         d="m 64.344521,167.67821 -0.251465,0.70019 h -0.129883 l -0.24707,-0.70019 h 0.126953 l 0.172851,0.53125 q 0.0083,0.0254 0.0127,0.0591 h 0.002 q 0.0034,-0.0278 0.01416,-0.0601 l 0.176758,-0.53027 z"
         style="font-style:normal;font-variant:normal;font-weight:bold;font-stretch:normal;font-size:1px;font-family:'Yu Gothic UI';-inkscape-font-specification:'Yu Gothic UI Bold';fill:#ece8e5;fill-opacity:1;stroke-width:0.0733241"
         id="path911" />
      <path
         d="m 64.83036,168.3784 h -0.393066 v -0.70019 h 0.377441 v 0.0986 h -0.26123 v 0.19824 h 0.240723 v 0.0982 h -0.240723 v 0.20703 h 0.276855 z"
         style="font-style:normal;font-variant:normal;font-weight:bold;font-stretch:normal;font-size:1px;font-family:'Yu Gothic UI';-inkscape-font-specification:'Yu Gothic UI Bold';fill:#ece8e5;fill-opacity:1;stroke-width:0.0733241"
         id="path913" />
      <path
         d="m 65.342567,168.3784 h -0.387695 v -0.70019 h 0.116211 v 0.60205 h 0.271484 z"
         style="font-style:normal;font-variant:normal;font-weight:bold;font-stretch:normal;font-size:1px;font-family:'Yu Gothic UI';-inkscape-font-specification:'Yu Gothic UI Bold';fill:#ece8e5;fill-opacity:1;stroke-width:0.0733241"
         id="path915" />
    </g>
    <g
       aria-label="TIME"
       id="text41910-9"
       style="font-style:normal;font-variant:normal;font-weight:bold;font-stretch:normal;font-size:1px;line-height:1;font-family:'Yu Gothic UI';-inkscape-font-specification:'Yu Gothic UI Bold';letter-spacing:0px;word-spacing:0px;fill:#ece8e5;fill-opacity:1;stroke-width:0.0733241">
      <path
         d="m 72.911263,167.80797 h -0.201172 v 0.60156 H 72.59388 v -0.60156 h -0.200684 v -0.0986 h 0.518067 z"
         style="font-style:normal;font-variant:normal;font-weight:bold;font-stretch:normal;font-size:1px;font-family:'Yu Gothic UI';-inkscape-font-specification:'Yu Gothic UI Bold';fill:#ece8e5;fill-opacity:1;stroke-width:0.0733241"
         id="path898" />
      <path
         d="m 73.132942,168.40953 h -0.119629 v -0.70019 h 0.119629 z"
         style="font-style:normal;font-variant:normal;font-weight:bold;font-stretch:normal;font-size:1px;font-family:'Yu Gothic UI';-inkscape-font-specification:'Yu Gothic UI Bold';fill:#ece8e5;fill-opacity:1;stroke-width:0.0733241"
         id="path900" />
      <path
         d="m 74.057259,168.40953 h -0.115235 v -0.45312 q 0,-0.0557 0.0068,-0.13623 h -0.002 q -0.01074,0.0459 -0.01904,0.0659 l -0.208984,0.52344 h -0.08008 L 73.429329,167.89 q -0.0088,-0.0229 -0.01855,-0.0698 h -0.002 q 0.0039,0.042 0.0039,0.1372 v 0.45215 h -0.107422 v -0.70019 h 0.163575 l 0.184082,0.4663 q 0.021,0.0537 0.02734,0.0801 h 0.0024 q 0.01807,-0.0552 0.0293,-0.082 l 0.1875,-0.46435 h 0.157715 z"
         style="font-style:normal;font-variant:normal;font-weight:bold;font-stretch:normal;font-size:1px;font-family:'Yu Gothic UI';-inkscape-font-specification:'Yu Gothic UI Bold';fill:#ece8e5;fill-opacity:1;stroke-width:0.0733241"
         id="path902" />
      <path
         d="m 74.622688,168.40953 h -0.393066 v -0.70019 h 0.377441 v 0.0986 h -0.26123 v 0.19824 h 0.240722 v 0.0981 h -0.240722 v 0.20704 h 0.276855 z"
         style="font-style:normal;font-variant:normal;font-weight:bold;font-stretch:normal;font-size:1px;font-family:'Yu Gothic UI';-inkscape-font-specification:'Yu Gothic UI Bold';fill:#ece8e5;fill-opacity:1;stroke-width:0.0733241"
         id="path904" />
    </g>
    <g
       aria-label="FEEDBACK"
       id="text41910-9-9"
       style="font-style:normal;font-variant:normal;font-weight:bold;font-stretch:normal;font-size:1px;line-height:1;font-family:'Yu Gothic UI';-inkscape-font-specification:'Yu Gothic UI Bold';letter-spacing:0px;word-spacing:0px;fill:#ece8e5;fill-opacity:1;stroke-width:0.0733241">
      <path
         d="m 81.606102,167.77008 h -0.261719 v 0.21045 h 0.241211 v 0.0981 h -0.241211 v 0.29297 h -0.116211 v -0.70019 h 0.37793 z"
         style="font-style:normal;font-variant:normal;font-weight:bold;font-stretch:normal;font-size:1px;font-family:'Yu Gothic UI';-inkscape-font-specification:'Yu Gothic UI Bold';fill:#ece8e5;fill-opacity:1;stroke-width:0.0733241"
         id="path881" />
      <path
         d="m 82.12368,168.37164 h -0.393066 v -0.70019 h 0.377441 v 0.0986 h -0.26123 v 0.19824 h 0.240722 v 0.0982 h -0.240722 v 0.20703 h 0.276855 z"
         style="font-style:normal;font-variant:normal;font-weight:bold;font-stretch:normal;font-size:1px;font-family:'Yu Gothic UI';-inkscape-font-specification:'Yu Gothic UI Bold';fill:#ece8e5;fill-opacity:1;stroke-width:0.0733241"
         id="path883" />
      <path
         d="m 82.641258,168.37164 h -0.393066 v -0.70019 h 0.377441 v 0.0986 h -0.26123 v 0.19824 h 0.240722 v 0.0982 h -0.240722 v 0.20703 h 0.276855 z"
         style="font-style:normal;font-variant:normal;font-weight:bold;font-stretch:normal;font-size:1px;font-family:'Yu Gothic UI';-inkscape-font-specification:'Yu Gothic UI Bold';fill:#ece8e5;fill-opacity:1;stroke-width:0.0733241"
         id="path885" />
      <path
         d="m 82.76577,168.37164 v -0.70019 h 0.202148 q 0.387207,0 0.387207,0.34131 0,0.16211 -0.107421,0.26074 -0.107422,0.0981 -0.288086,0.0981 z m 0.115723,-0.60156 v 0.50342 h 0.09277 q 0.122559,0 0.19043,-0.0674 0.06836,-0.0674 0.06836,-0.19043 0,-0.24561 -0.254394,-0.24561 z"
         style="font-style:normal;font-variant:normal;font-weight:bold;font-stretch:normal;font-size:1px;font-family:'Yu Gothic UI';-inkscape-font-specification:'Yu Gothic UI Bold';fill:#ece8e5;fill-opacity:1;stroke-width:0.0733241"
         id="path887" />
      <path
         d="m 83.483055,168.37164 v -0.70019 h 0.222168 q 0.101563,0 0.160645,0.0444 0.05957,0.0444 0.05957,0.11572 0,0.0596 -0.03369,0.10352 -0.03369,0.0439 -0.09326,0.0625 v 0.002 q 0.07227,0.008 0.115234,0.0537 0.04346,0.0449 0.04346,0.11719 0,0.0898 -0.0708,0.14551 -0.0708,0.0557 -0.178711,0.0557 z m 0.115723,-0.60693 v 0.19922 h 0.0752 q 0.06055,0 0.09473,-0.0283 0.03467,-0.0288 0.03467,-0.0811 0,-0.0898 -0.120118,-0.0898 z m 0,0.29248 v 0.22168 h 0.09912 q 0.06494,0 0.100098,-0.0298 0.03564,-0.0303 0.03564,-0.083 0,-0.10889 -0.150879,-0.10889 z"
         style="font-style:normal;font-variant:normal;font-weight:bold;font-stretch:normal;font-size:1px;font-family:'Yu Gothic UI';-inkscape-font-specification:'Yu Gothic UI Bold';fill:#ece8e5;fill-opacity:1;stroke-width:0.0733241"
         id="path889" />
      <path
         d="m 84.662254,168.37164 h -0.127441 l -0.06299,-0.17822 h -0.275391 l -0.06055,0.17822 h -0.126953 l 0.262207,-0.70019 H 84.402 Z m -0.221191,-0.27295 -0.09717,-0.27929 q -0.0044,-0.0137 -0.0093,-0.0439 h -0.002 q -0.0044,0.0278 -0.0098,0.0439 l -0.09619,0.27929 z"
         style="font-style:normal;font-variant:normal;font-weight:bold;font-stretch:normal;font-size:1px;font-family:'Yu Gothic UI';-inkscape-font-specification:'Yu Gothic UI Bold';fill:#ece8e5;fill-opacity:1;stroke-width:0.0733241"
         id="path891" />
      <path
         d="m 85.23159,168.34235 q -0.0791,0.041 -0.196777,0.041 -0.152344,0 -0.244141,-0.0962 -0.0918,-0.0962 -0.0918,-0.25244 0,-0.16797 0.103028,-0.27149 0.103515,-0.10351 0.26123,-0.10351 0.101563,0 0.168457,0.0288 v 0.11523 q -0.0708,-0.042 -0.15625,-0.042 -0.113769,0 -0.18457,0.0728 -0.07031,0.0728 -0.07031,0.19434 0,0.11572 0.06592,0.18457 0.06592,0.0684 0.17334,0.0684 0.09912,0 0.171875,-0.0469 z"
         style="font-style:normal;font-variant:normal;font-weight:bold;font-stretch:normal;font-size:1px;font-family:'Yu Gothic UI';-inkscape-font-specification:'Yu Gothic UI Bold';fill:#ece8e5;fill-opacity:1;stroke-width:0.0733241"
         id="path893" />
      <path
         d="m 85.894188,168.37164 h -0.151367 l -0.243653,-0.32031 q -0.01367,-0.0181 -0.0166,-0.0244 h -0.002 v 0.34472 h -0.116211 v -0.70019 h 0.116211 v 0.3291 h 0.002 q 0.0059,-0.0107 0.0166,-0.0239 l 0.234864,-0.30517 h 0.13916 l -0.274903,0.33594 z"
         style="font-style:normal;font-variant:normal;font-weight:bold;font-stretch:normal;font-size:1px;font-family:'Yu Gothic UI';-inkscape-font-specification:'Yu Gothic UI Bold';fill:#ece8e5;fill-opacity:1;stroke-width:0.0733241"
         id="path895" />
    </g>
    <path
       style="fill:none;stroke:#ece8e5;stroke-width:0.25;stroke-linecap:round;stroke-linejoin:miter;stroke-miterlimit:4;stroke-dasharray:none;stroke-opacity:1"
       d="m 62.934524,165.1653 -0.850209,1.41186"
       id="path5187-56" />
    <path
       style="fill:none;stroke:#ece8e5;stroke-width:0.1;stroke-linecap:round;stroke-linejoin:miter;stroke-miterlimit:4;stroke-dasharray:none;stroke-opacity:1"
       d="m 62.314407,164.51211 -1.372039,1.03304"
       id="path5189-1" />
    <path
       style="fill:none;stroke:#ece8e5;stroke-width:0.1;stroke-linecap:round;stroke-linejoin:miter;stroke-miterlimit:4;stroke-dasharray:none;stroke-opacity:1"
       d="m 61.900996,163.69355 -1.563384,0.40207"
       id="path5191-1" />
    <path
       style="fill:none;stroke:#ece8e5;stroke-width:0.1;stroke-linecap:round;stroke-linejoin:miter;stroke-miterlimit:4;stroke-dasharray:none;stroke-opacity:1"
       d="m 61.9258,162.78405 -1.59362,-0.47789"
       id="path5193-7" />
    <path
       style="fill:none;stroke:#ece8e5;stroke-width:0.1;stroke-linecap:round;stroke-linejoin:miter;stroke-miterlimit:4;stroke-dasharray:none;stroke-opacity:1"
       d="m 62.355748,161.97376 -1.221792,-1.04957"
       id="path5195-4" />
    <path
       style="fill:none;stroke:#ece8e5;stroke-width:0.1;stroke-linecap:round;stroke-linejoin:miter;stroke-miterlimit:4;stroke-dasharray:none;stroke-opacity:1"
       d="m 63.108157,161.40325 -0.754759,-1.46416"
       id="path5197-9" />
    <path
       style="fill:none;stroke:#ece8e5;stroke-width:0.1;stroke-linecap:round;stroke-linejoin:miter;stroke-miterlimit:4;stroke-dasharray:none;stroke-opacity:1"
       d="m 63.984589,161.22962 0.0083,-1.53714"
       id="path5199-4" />
    <path
       style="fill:none;stroke:#ece8e5;stroke-width:0.1;stroke-linecap:round;stroke-linejoin:miter;stroke-miterlimit:4;stroke-dasharray:none;stroke-opacity:1"
       d="m 64.894094,161.41152 0.738223,-1.43393"
       id="path5201-7" />
    <path
       style="fill:none;stroke:#ece8e5;stroke-width:0.1;stroke-linecap:round;stroke-linejoin:miter;stroke-miterlimit:4;stroke-dasharray:none;stroke-opacity:1"
       d="m 65.629967,161.95723 1.323604,-1.11147"
       id="path5203-5" />
    <path
       style="fill:none;stroke:#ece8e5;stroke-width:0.1;stroke-linecap:round;stroke-linejoin:miter;stroke-miterlimit:4;stroke-dasharray:none;stroke-opacity:1"
       d="m 66.059915,162.78405 1.570233,-0.41459"
       id="path5205-5" />
    <path
       style="fill:none;stroke:#ece8e5;stroke-width:0.1;stroke-linecap:round;stroke-linejoin:miter;stroke-miterlimit:4;stroke-dasharray:none;stroke-opacity:1"
       d="m 65.687844,164.52038 1.55771,1.1032"
       id="path5209-4" />
    <path
       style="fill:none;stroke:#ece8e5;stroke-width:0.25;stroke-linecap:round;stroke-linejoin:miter;stroke-miterlimit:4;stroke-dasharray:none;stroke-opacity:1"
       d="m 65.034654,165.1653 0.919364,1.4177"
       id="path5211-0" />
    <path
       style="fill:none;stroke:#ece8e5;stroke-width:0.25;stroke-linecap:round;stroke-linejoin:miter;stroke-miterlimit:4;stroke-dasharray:none;stroke-opacity:1"
       d="m 72.773383,165.14859 -0.850209,1.41186"
       id="path5187" />
    <path
       style="fill:none;stroke:#ece8e5;stroke-width:0.1;stroke-linecap:round;stroke-linejoin:miter;stroke-miterlimit:4;stroke-dasharray:none;stroke-opacity:1"
       d="m 72.153266,164.4954 -1.372039,1.03304"
       id="path5189" />
    <path
       style="fill:none;stroke:#ece8e5;stroke-width:0.1;stroke-linecap:round;stroke-linejoin:miter;stroke-miterlimit:4;stroke-dasharray:none;stroke-opacity:1"
       d="m 71.739855,163.67684 -1.563384,0.40207"
       id="path5191" />
    <path
       style="fill:none;stroke:#ece8e5;stroke-width:0.1;stroke-linecap:round;stroke-linejoin:miter;stroke-miterlimit:4;stroke-dasharray:none;stroke-opacity:1"
       d="m 71.764659,162.76734 -1.59362,-0.47789"
       id="path5193" />
    <path
       style="fill:none;stroke:#ece8e5;stroke-width:0.1;stroke-linecap:round;stroke-linejoin:miter;stroke-miterlimit:4;stroke-dasharray:none;stroke-opacity:1"
       d="m 72.194607,161.95705 -1.221792,-1.04956"
       id="path5195" />
    <path
       style="fill:none;stroke:#ece8e5;stroke-width:0.1;stroke-linecap:round;stroke-linejoin:miter;stroke-miterlimit:4;stroke-dasharray:none;stroke-opacity:1"
       d="m 72.947016,161.38654 -0.754759,-1.46416"
       id="path5197" />
    <path
       style="fill:none;stroke:#ece8e5;stroke-width:0.1;stroke-linecap:round;stroke-linejoin:miter;stroke-miterlimit:4;stroke-dasharray:none;stroke-opacity:1"
       d="m 73.823448,161.21291 0.0083,-1.53714"
       id="path5199" />
    <path
       style="fill:none;stroke:#ece8e5;stroke-width:0.1;stroke-linecap:round;stroke-linejoin:miter;stroke-miterlimit:4;stroke-dasharray:none;stroke-opacity:1"
       d="m 74.732953,161.39481 0.738223,-1.43393"
       id="path5201" />
    <path
       style="fill:none;stroke:#ece8e5;stroke-width:0.1;stroke-linecap:round;stroke-linejoin:miter;stroke-miterlimit:4;stroke-dasharray:none;stroke-opacity:1"
       d="m 75.468826,161.94052 1.323604,-1.11147"
       id="path5203" />
    <path
       style="fill:none;stroke:#ece8e5;stroke-width:0.1;stroke-linecap:round;stroke-linejoin:miter;stroke-miterlimit:4;stroke-dasharray:none;stroke-opacity:1"
       d="m 75.898774,162.76734 1.570233,-0.41459"
       id="path5205" />
    <path
       style="fill:none;stroke:#ece8e5;stroke-width:0.1;stroke-linecap:round;stroke-linejoin:miter;stroke-miterlimit:4;stroke-dasharray:none;stroke-opacity:1"
       d="m 75.948383,163.68511 1.546847,0.30852"
       id="path5207-7" />
    <path
       style="fill:none;stroke:#ece8e5;stroke-width:0.1;stroke-linecap:round;stroke-linejoin:miter;stroke-miterlimit:4;stroke-dasharray:none;stroke-opacity:1"
       d="m 75.526703,164.50367 1.55771,1.1032"
       id="path5209" />
    <path
       style="fill:none;stroke:#ece8e5;stroke-width:0.25;stroke-linecap:round;stroke-linejoin:miter;stroke-miterlimit:4;stroke-dasharray:none;stroke-opacity:1"
       d="m 74.873513,165.14859 0.919364,1.4177"
       id="path5211" />
    <path
       style="fill:none;stroke:#ece8e5;stroke-width:0.1;stroke-linecap:round;stroke-linejoin:miter;stroke-miterlimit:4;stroke-dasharray:none;stroke-opacity:1"
       d="m 66.094,163.65162 1.546847,0.30852"
       id="path5207-7-6" />
    <path
       style="fill:none;stroke:#ece8e5;stroke-width:0.25;stroke-linecap:round;stroke-linejoin:miter;stroke-miterlimit:4;stroke-dasharray:none;stroke-opacity:1"
       d="m 82.628947,165.182 -0.850209,1.41186"
       id="path5187-3" />
    <path
       style="fill:none;stroke:#ece8e5;stroke-width:0.1;stroke-linecap:round;stroke-linejoin:miter;stroke-miterlimit:4;stroke-dasharray:none;stroke-opacity:1"
       d="m 82.00883,164.52881 -1.372039,1.03304"
       id="path5189-2" />
    <path
       style="fill:none;stroke:#ece8e5;stroke-width:0.1;stroke-linecap:round;stroke-linejoin:miter;stroke-miterlimit:4;stroke-dasharray:none;stroke-opacity:1"
       d="m 81.595419,163.71025 -1.563384,0.40207"
       id="path5191-9" />
    <path
       style="fill:none;stroke:#ece8e5;stroke-width:0.1;stroke-linecap:round;stroke-linejoin:miter;stroke-miterlimit:4;stroke-dasharray:none;stroke-opacity:1"
       d="m 81.620223,162.80075 -1.59362,-0.47789"
       id="path5193-4" />
    <path
       style="fill:none;stroke:#ece8e5;stroke-width:0.1;stroke-linecap:round;stroke-linejoin:miter;stroke-miterlimit:4;stroke-dasharray:none;stroke-opacity:1"
       d="M 82.050171,161.99046 80.828379,160.9409"
       id="path5195-1" />
    <path
       style="fill:none;stroke:#ece8e5;stroke-width:0.1;stroke-linecap:round;stroke-linejoin:miter;stroke-miterlimit:4;stroke-dasharray:none;stroke-opacity:1"
       d="m 82.80258,161.41995 -0.754759,-1.46416"
       id="path5197-7" />
    <path
       style="fill:none;stroke:#ece8e5;stroke-width:0.1;stroke-linecap:round;stroke-linejoin:miter;stroke-miterlimit:4;stroke-dasharray:none;stroke-opacity:1"
       d="m 83.679012,161.24632 0.0083,-1.53714"
       id="path5199-45" />
    <path
       style="fill:none;stroke:#ece8e5;stroke-width:0.1;stroke-linecap:round;stroke-linejoin:miter;stroke-miterlimit:4;stroke-dasharray:none;stroke-opacity:1"
       d="m 84.588517,161.42822 0.738223,-1.43393"
       id="path5201-1" />
    <path
       style="fill:none;stroke:#ece8e5;stroke-width:0.1;stroke-linecap:round;stroke-linejoin:miter;stroke-miterlimit:4;stroke-dasharray:none;stroke-opacity:1"
       d="m 85.32439,161.97393 1.323604,-1.11147"
       id="path5203-3" />
    <path
       style="fill:none;stroke:#ece8e5;stroke-width:0.1;stroke-linecap:round;stroke-linejoin:miter;stroke-miterlimit:4;stroke-dasharray:none;stroke-opacity:1"
       d="m 85.754338,162.80075 1.570233,-0.41459"
       id="path5205-9" />
    <path
       style="fill:none;stroke:#ece8e5;stroke-width:0.1;stroke-linecap:round;stroke-linejoin:miter;stroke-miterlimit:4;stroke-dasharray:none;stroke-opacity:1"
       d="m 85.803947,163.71852 1.546847,0.30852"
       id="path5207-7-7" />
    <path
       style="fill:none;stroke:#ece8e5;stroke-width:0.1;stroke-linecap:round;stroke-linejoin:miter;stroke-miterlimit:4;stroke-dasharray:none;stroke-opacity:1"
       d="m 85.382267,164.53708 1.55771,1.1032"
       id="path5209-9" />
    <path
       style="fill:none;stroke:#ece8e5;stroke-width:0.25;stroke-linecap:round;stroke-linejoin:miter;stroke-miterlimit:4;stroke-dasharray:none;stroke-opacity:1"
       d="m 84.729077,165.182 0.919364,1.4177"
       id="path5211-6" />
  </g>
</svg>
